<svg version="1.1" id="Layer_1" xmlns="http://www.w3.org/2000/svg" viewBox="0 0 1000 217.7">
<style type="text/css">
	.st0{fill:#FFFFFF;}
</style>
<title>Glassdoor</title>
	<path class="st0" d="M992.9,64.8c0.7-0.6,1.1-1.6,1-2.5c0.1-1-0.3-2-1.1-2.7c-1-0.7-2.1-1-3.3-0.9h-5v12.6h2v-5.4h2.1l3.4,5.4h2.1
		l-3.6-5.6C991.4,65.6,992.2,65.3,992.9,64.8z M988.7,64.3h-1.9v-4h2.6c0.3,0,0.7,0.1,1,0.1l0.9,0.3l0.6,0.6c0.1,0.3,0.2,0.7,0.2,1
		c0,0.4-0.1,0.8-0.3,1.2c-0.1,0.3-0.4,0.5-0.7,0.6c-0.4,0.1-0.7,0.2-1.1,0.2H988.7z"/>
	<path class="st0" d="M988.8,53.8C988.8,53.8,988.8,53.8,988.8,53.8L988.8,53.8c-6.2,0-11.2,5-11.2,11.2c0,6.2,5,11.2,11.2,11.2
		c6.2,0,11.2-5,11.2-11.2C1000,58.8,995,53.8,988.8,53.8z M988.8,74.2c-5.1,0-9.2-4.1-9.2-9.2c0-5.1,4.1-9.2,9.2-9.2c0,0,0,0,0,0
		c5.1,0,9.2,4.1,9.2,9.2C998,70,993.9,74.2,988.8,74.2z"/>
	<path class="st0" d="M232.4,65.3c-5.3-7.8-14.9-11.7-25-11.7c-10-0.2-19.4,4.3-25.6,12.1c-5.7,7.4-7.5,11.1-7.5,38.5
		c0,27.2,1.6,30.9,7.2,38.3c6.3,7.7,15.8,12.2,25.8,12c10.1,0,19.6-4.7,24.9-11.5h0.1v10.2c0,13.8-8.8,21.4-22,21.4
		c-7.6,0-13.9-4-18.7-8.9l-15.4,12.2c8.8,9.9,21.7,16.5,34.3,16.5c22.6,0,42.9-13.6,42.9-43.4V55.2h-21V65.3z M229.4,127
		c-1,1.2-2.1,2.3-3.3,3.3c-8.7,6.8-21.2,5.4-28.1-3.3c-3.4-4.4-3.9-7-3.9-22.9c0-15.9,0.4-18.6,3.9-23.1c3.8-4.9,9.6-7.7,15.8-7.6
		c6.1-0.1,11.9,2.7,15.6,7.6c3.5,4.4,3.9,7.2,3.9,23.1C233.3,119.8,232.9,122.5,229.4,127z"/>
	<path class="st0" d="M296.5,127.8v-112h-20.9v113.6c0,17.7,12,22.8,26.4,22.8h7.7v-18.4h-5.8C299,133.8,296.5,132.3,296.5,127.8z"
		/>
	<path class="st0" d="M360.3,53.6c-14.7,0-25.8,3.9-33.4,14.4l15.4,11.9c3.5-5.7,8.1-7.6,18.4-7.6c14.2,0,19.8,3.3,19.8,12.6v9.6
		h-26.4c-21.2,0-32.1,13.6-32.1,29.4c0,17.1,12.8,30.4,34.8,30.4c12.8,0,19.5-1.9,23.7-8.9v6.9h21V86.1
		C401.5,61.8,384.6,53.6,360.3,53.6z M358.8,135.5c-13.4,0-18.2-6.2-18.2-12.8c0-7.2,5.4-12.5,17.1-12.5h22.8h0v8.5
		C380.5,134.1,375.3,135.5,358.8,135.5z"/>
	<path class="st0" d="M473,94.6l-16.3-1.2c-10-0.7-13.1-5-13.1-9.3c0-6.7,4.3-11.8,16.9-11.8c10.7,0,18.7,3.7,26.5,9.1L499.3,67
		c-9.7-8.2-21.4-13.4-38.7-13.4c-20.8,0-36.8,10.3-36.8,30.3c0,16.9,12,26.6,28.4,28l17.5,1.6c6.8,0.5,12.1,2.7,12.1,9.7
		c0,8.3-8.2,12.6-19.5,12.6c-13.2,0-22.5-4.3-31.1-12.6l-13.9,13.6c12.7,11.9,27.4,17.7,43.4,17.7c23,0,40.9-11.1,40.9-30.3
		C501.6,108.4,493.4,96,473,94.6z"/>
	<path class="st0" d="M567.4,94.6l-16.3-1.2c-9.9-0.7-13-5-13-9.3c0-6.7,4.3-11.8,16.9-11.8c10.7,0,18.7,3.7,26.5,9.1L593.8,67
		c-9.7-8.2-21.4-13.4-38.7-13.4c-20.8,0-36.7,10.3-36.7,30.3c0,16.9,12,26.6,28.4,28l17.5,1.6c6.8,0.5,12.1,2.7,12.1,9.7
		c0,8.3-8.2,12.6-19.5,12.6c-13.2,0-22.5-4.3-31.1-12.6l-14.1,13.6c12.7,11.9,27.4,17.7,43.4,17.7c23,0,40.9-11.1,40.9-30.3
		C596,108.4,587.8,96,567.4,94.6z"/>
	<path class="st0" d="M671.1,65.4c-7.8-7-15.7-11.7-25.8-11.7c-12.1,0-21.2,5.4-26.8,12.8c-5.5,7-7,13.4-7,37.5
		c0,24.3,1.7,30.7,7.1,37.7c5.6,7.4,14.5,12.8,26.6,12.8c10.2,0,18-4.7,25.9-11.5v9.4h18.4V16h-18.4V65.4z M650.8,134.6
		c-18.6,0-19.6-15.3-19.6-30.7l0,0c0-15.2,1.1-30.5,19.6-30.5s19.5,16.3,19.5,30.5C670.3,118.3,669.4,134.6,650.8,134.6z"/>
	<path class="st0" d="M747.2,53.6c-15.4,0-24.5,6.6-30,12.6c-7.5,8.4-10.6,16.5-10.7,37.7c0,21.4,3.1,29.5,10.7,37.9
		c5.5,6,14.6,12.6,30,12.6s24.6-6.6,30-12.6c7.6-8.3,10.7-16.5,10.7-37.9c0-21.2-3.1-29.3-10.7-37.7
		C771.7,60.2,762.6,53.6,747.2,53.6z M763.2,127.4c-3,4.1-9.2,7.2-16,7.2s-13.1-3.1-16-7.2c-3.7-5.2-4.9-9.1-4.9-23.5
		c0-14.2,1.2-18.1,4.9-23.3c3-4.1,9.1-7.2,16-7.2s13.1,3.1,16,7.2c3.7,5.2,4.8,9.1,4.9,23.5C768.1,118.3,766.9,122.2,763.2,127.4z"
		/>
	<path class="st0" d="M843.6,53.6c-15.4,0-24.6,6.6-30,12.6c-7.6,8.4-10.7,16.5-10.7,37.7c0,21.4,3.1,29.5,10.7,37.9
		c5.5,6,14.6,12.6,30,12.6s24.5-6.6,30-12.6c7.6-8.3,10.7-16.5,10.7-37.9c0-21.2-3.1-29.3-10.7-37.7C868.1,60.2,859,53.6,843.6,53.6
		z M859.5,127.4c-3,4.1-9.2,7.2-16,7.2s-13.1-3.1-16-7.2c-3.7-5.2-4.9-9.1-4.9-23.5c0-14.2,1.2-18.1,4.9-23.3c3-4.1,9.1-7.2,16-7.2
		s13.1,3.1,16,7.2c3.7,5.2,4.9,9.1,4.9,23.5C864.4,118.3,863.2,122.2,859.5,127.4z"/>
	<path class="st0" d="M922.6,65.4V55.1h-21v97.1h21V94c0-14.4,9.2-20.6,19-20.6c5.1,0,8.1,1.4,12.8,4.9l14.4-17.1
		c-6-4.7-12.6-7.5-20.6-7.5C937.8,53.7,928.8,57.6,922.6,65.4z"/>
	<path class="st0" d="M0.4,16.9C0.1,18.1,0,19.4,0,20.7v179.6c0,9.6,7.8,17.4,17.5,17.4c2.3,0,4.5-0.5,6.6-1.3l94.2-39.3
		c8.1-3.4,13.4-11.3,13.4-20.1V42.6l-21.8-1.4v103.9c0,7.1-4.4,13.4-11,15.8L39.1,183V39.3c0-7.5,6.1-13.6,13.6-13.6
		c0.5,0,1,0,1.5,0.1l77.5,8.6V20.3L24.5,0.4C13.3-1.7,2.5,5.7,0.4,16.9z"/>
</svg>
