<?xml version="1.0" encoding="UTF-8" standalone="no"?>
<svg width="16px" height="18px" viewBox="0 0 16 18" version="1.1" xmlns="http://www.w3.org/2000/svg" xmlns:xlink="http://www.w3.org/1999/xlink">
    <!-- Generator: Sketch 39.1 (31720) - http://www.bohemiancoding.com/sketch -->
    <title>calendar</title>
    <desc>Created with Sketch.</desc>
    <defs></defs>
    <g id="Desktop" stroke="none" stroke-width="1" fill="none" fill-rule="evenodd">
        <g id="Microstep-Search" transform="translate(-251.000000, -497.000000)" fill="#353539">
            <g id="col-left" transform="translate(251.000000, 492.000000)">
                <path d="M12.4444444,14.7777778 L8,14.7777778 L8,19.2222222 L12.4444444,19.2222222 L12.4444444,14.7777778 L12.4444444,14.7777778 Z M11.5555556,5 L11.5555556,6.77777778 L4.44444444,6.77777778 L4.44444444,5 L2.66666667,5 L2.66666667,6.77777778 L1.77777778,6.77777778 C0.8,6.77777778 0,7.57777778 0,8.55555556 L0,21 C0,21.9777778 0.8,22.7777778 1.77777778,22.7777778 L14.2222222,22.7777778 C15.2,22.7777778 16,21.9777778 16,21 L16,8.55555556 C16,7.57777778 15.2,6.77777778 14.2222222,6.77777778 L13.3333333,6.77777778 L13.3333333,5 L11.5555556,5 L11.5555556,5 Z M14.2222222,21 L1.77777778,21 L1.77777778,11.2222222 L14.2222222,11.2222222 L14.2222222,21 L14.2222222,21 Z" id="calendar"></path>
            </g>
        </g>
    </g>
</svg>