<?xml version="1.0" encoding="UTF-8" standalone="no"?>
<svg width="16px" height="19px" viewBox="0 0 16 19" version="1.1" xmlns="http://www.w3.org/2000/svg" xmlns:xlink="http://www.w3.org/1999/xlink">
    <!-- Generator: Sketch 39.1 (31720) - http://www.bohemiancoding.com/sketch -->
    <title>copy</title>
    <desc>Created with Sketch.</desc>
    <defs></defs>
    <g id="Desktop" stroke="none" stroke-width="1" fill="none" fill-rule="evenodd">
        <g id="Microstep-Search" transform="translate(-251.000000, -587.000000)" fill="#6AC8CF">
            <g id="col-left" transform="translate(251.000000, 492.000000)">
                <path d="M11.7894737,95 L1.68421053,95 C0.757894737,95 0,95.7578947 0,96.6842105 L0,108.473684 L1.68421053,108.473684 L1.68421053,96.6842105 L11.7894737,96.6842105 L11.7894737,95 L11.7894737,95 Z M14.3157895,98.3684211 L5.05263158,98.3684211 C4.12631579,98.3684211 3.36842105,99.1263158 3.36842105,100.052632 L3.36842105,111.842105 C3.36842105,112.768421 4.12631579,113.526316 5.05263158,113.526316 L14.3157895,113.526316 C15.2421053,113.526316 16,112.768421 16,111.842105 L16,100.052632 C16,99.1263158 15.2421053,98.3684211 14.3157895,98.3684211 L14.3157895,98.3684211 Z M14.3157895,111.842105 L5.05263158,111.842105 L5.05263158,100.052632 L14.3157895,100.052632 L14.3157895,111.842105 L14.3157895,111.842105 Z" id="copy"></path>
            </g>
        </g>
    </g>
</svg>