<?xml version="1.0" encoding="UTF-8" standalone="no"?>
<svg width="16px" height="16px" viewBox="0 0 16 16" version="1.1" xmlns="http://www.w3.org/2000/svg" xmlns:xlink="http://www.w3.org/1999/xlink">
    <!-- Generator: Sketch 39.1 (31720) - http://www.bohemiancoding.com/sketch -->
    <title>informational</title>
    <desc>Created with Sketch.</desc>
    <defs></defs>
    <g id="Desktop" stroke="none" stroke-width="1" fill="none" fill-rule="evenodd">
        <g id="Microstep-Search" transform="translate(-251.000000, -529.000000)" fill="#353539">
            <g id="col-left" transform="translate(251.000000, 492.000000)">
                <path d="M14.2222222,37 L1.77777778,37 C0.8,37 0,37.8 0,38.7777778 L0,51.2222222 C0,52.2 0.8,53 1.77777778,53 L14.2222222,53 C15.2,53 16,52.2 16,51.2222222 L16,38.7777778 C16,37.8 15.2,37 14.2222222,37 L14.2222222,37 Z M12.4444444,42.3333333 L3.55555556,42.3333333 L3.55555556,40.5555556 L12.4444444,40.5555556 L12.4444444,42.3333333 L12.4444444,42.3333333 Z M12.4444444,45.8888889 L3.55555556,45.8888889 L3.55555556,44.1111111 L12.4444444,44.1111111 L12.4444444,45.8888889 L12.4444444,45.8888889 Z M9.77777778,49.4444444 L3.55555556,49.4444444 L3.55555556,47.6666667 L9.77777778,47.6666667 L9.77777778,49.4444444 L9.77777778,49.4444444 Z" id="informational"></path>
            </g>
        </g>
    </g>
</svg>