<?xml version="1.0" encoding="UTF-8" standalone="no"?>
<svg width="16px" height="14px" viewBox="0 0 16 14" version="1.1" xmlns="http://www.w3.org/2000/svg" xmlns:xlink="http://www.w3.org/1999/xlink">
    <!-- Generator: Sketch 39.1 (31720) - http://www.bohemiancoding.com/sketch -->
    <title>product</title>
    <desc>Created with Sketch.</desc>
    <defs></defs>
    <g id="Desktop" stroke="none" stroke-width="1" fill="none" fill-rule="evenodd">
        <g id="Microstep-Search" transform="translate(-251.000000, -559.000000)" fill="#353539">
            <g id="col-left" transform="translate(251.000000, 492.000000)">
                <path d="M11.7818182,72.0909091 L8.58181818,67.2909091 C8.43636364,67.1454545 8.21818182,67 8,67 C7.78181818,67 7.56363636,67.0727273 7.41818182,67.2909091 L4.21818182,72.0909091 L0.727272727,72.0909091 C0.290909091,72.0909091 0,72.3818182 0,72.8181818 L0,73.0363636 L1.81818182,79.8 C1.96363636,80.3818182 2.54545455,80.8909091 3.2,80.8909091 L12.6545455,80.8909091 C13.3090909,80.8909091 13.8909091,80.4545455 14.0363636,79.8 L15.8545455,73.0363636 L15.8545455,72.8181818 C15.8545455,72.3818182 15.5636364,72.0909091 15.1272727,72.0909091 L11.7818182,72.0909091 L11.7818182,72.0909091 Z M5.81818182,72.0909091 L8,68.8909091 L10.1818182,72.0909091 L5.81818182,72.0909091 L5.81818182,72.0909091 Z M8,77.9090909 C7.2,77.9090909 6.54545455,77.2545455 6.54545455,76.4545455 C6.54545455,75.6545455 7.2,75 8,75 C8.8,75 9.45454545,75.6545455 9.45454545,76.4545455 C9.45454545,77.2545455 8.8,77.9090909 8,77.9090909 L8,77.9090909 Z" id="product"></path>
            </g>
        </g>
    </g>
</svg>