<svg id="Layer_1" data-name="Layer 1" xmlns="http://www.w3.org/2000/svg" xmlns:xlink="http://www.w3.org/1999/xlink" viewBox="0 0 760 711.8"><defs><clipPath id="clip-path"><rect width="760.5" height="711.97" style="fill:none"/></clipPath></defs><title>Artboard 1 copy 2</title><g style="clip-path:url(#clip-path)"><path d="M865.75,202.86l-15.65,15.65a2.32,2.32,0,0,0-.94-.2h-.33a2.34,2.34,0,0,0-2.34,2.34V221a2.32,2.32,0,0,0,.2.95l-33.6,33.59a2.32,2.32,0,0,0-.94-.2H812V219.14a2.33,2.33,0,0,0,1.5-2.17v-.33a2.32,2.32,0,0,0-.06-.52l27.88-27.88a2.32,2.32,0,0,0,.52.06h.33A2.34,2.34,0,0,0,844.5,186v-.33a2.32,2.32,0,0,0-.06-.52l5.9-5.9-.71-.71L844,184.18a2.32,2.32,0,0,0-1.81-.87h-.33a2.34,2.34,0,0,0-2.34,2.34V186a2.32,2.32,0,0,0,.87,1.81L813,215.18a2.33,2.33,0,0,0-1-.71V164.8h-1v49.5h-.16a2.31,2.31,0,0,0-1.14.31l-27.5-27.5a2.31,2.31,0,0,0,.31-1.14v-.33a2.34,2.34,0,0,0-2.34-2.34h-.33a2.31,2.31,0,0,0-1.14.31L774.1,179l-.71.71,4.55,4.55a2.32,2.32,0,0,0-.44,1.36V186a2.34,2.34,0,0,0,2.34,2.34h.33a2.32,2.32,0,0,0,1.36-.44l27.42,27.42a2.32,2.32,0,0,0-.44,1.36V217a2.34,2.34,0,0,0,2.34,2.34H811v36.16a2.32,2.32,0,0,0-.59.34L774,219.39a2.31,2.31,0,0,0,.5-1.43v-.33a2.34,2.34,0,0,0-2.34-2.34h-.33a2.31,2.31,0,0,0-1.43.5L759,204.39V171.14a2.34,2.34,0,0,0,1.5-2.18v-.33a2.32,2.32,0,0,0-.45-1.36l33.42-33.42a2.32,2.32,0,0,0,1.36.45h.33A2.34,2.34,0,0,0,797.5,132v-.33a2.32,2.32,0,0,0-.45-1.36l14.47-14.47H812v-.47l.54-.54-.54-.54v-33h.16A2.34,2.34,0,0,0,814.5,79v-.33a2.31,2.31,0,0,0-.52-1.46l33.4-33.4a2.31,2.31,0,0,0,1.46.52h.33A2.34,2.34,0,0,0,851.5,42v-.33a2.31,2.31,0,0,0-.52-1.46L866.46,24.7l-.71-.71L850.19,39.55a2.31,2.31,0,0,0-1-.25h-.33a2.34,2.34,0,0,0-2.34,2.34V42a2.31,2.31,0,0,0,.25,1L813.19,76.55a2.31,2.31,0,0,0-1-.25H812V40.14A2.33,2.33,0,0,0,813.5,38v-.33a2.32,2.32,0,0,0,0-.41l28-28a2.32,2.32,0,0,0,.41,0h.33A2.34,2.34,0,0,0,844.5,7V6.64a2.32,2.32,0,0,0,0-.41L850.34.35l-.71-.71L844,5.25a2.33,2.33,0,0,0-1.86-.94h-.33a2.34,2.34,0,0,0-2.34,2.34V7a2.33,2.33,0,0,0,.94,1.86L813,36.25a2.34,2.34,0,0,0-1-.78V-14.2h-1V35.3h-.16a2.31,2.31,0,0,0-1.23.36L782.14,8.19A2.31,2.31,0,0,0,782.5,7V6.64a2.34,2.34,0,0,0-2.34-2.34h-.33a2.31,2.31,0,0,0-1.23.36L774.1.15l-.71.71,4.5,4.5a2.32,2.32,0,0,0-.39,1.29V7a2.34,2.34,0,0,0,2.34,2.34h.33a2.32,2.32,0,0,0,1.29-.39l27.44,27.44a2.32,2.32,0,0,0-.39,1.29V38a2.34,2.34,0,0,0,2.34,2.34H811V76.47a2.32,2.32,0,0,0-.66.4l-36-36a2.32,2.32,0,0,0,.17-.88v-.33a2.34,2.34,0,0,0-2.34-2.34h-.33a2.32,2.32,0,0,0-.88.17L757.64,24.16l-.11.11-.28-.28L741.51,39.73a2.32,2.32,0,0,0-1.34-.43h-.33a2.34,2.34,0,0,0-2.34,2.34V42a2.32,2.32,0,0,0,.43,1.34l-33.1,33.1a2.3,2.3,0,0,0-.67-.11H704V40.14A2.33,2.33,0,0,0,705.5,38v-.33a2.31,2.31,0,0,0-.15-.8L733,9.15a2.31,2.31,0,0,0,.8.15h.33A2.34,2.34,0,0,0,736.5,7V6.64a2.31,2.31,0,0,0-.15-.8L741.83.35l-.71-.71L735.8,5a2.33,2.33,0,0,0-1.63-.67h-.33a2.34,2.34,0,0,0-2.34,2.34V7a2.33,2.33,0,0,0,.67,1.63L704.8,36a2.34,2.34,0,0,0-.8-.51V-14.2h-1V35.3h-.16a2.32,2.32,0,0,0-1.52.57L673.93,8.48A2.31,2.31,0,0,0,674.5,7V6.64a2.34,2.34,0,0,0-2.34-2.34h-.33a2.32,2.32,0,0,0-1.52.57L665.6.15l-.71.71,4.82,4.82a2.31,2.31,0,0,0-.21,1V7a2.34,2.34,0,0,0,2.34,2.34h.33a2.32,2.32,0,0,0,1-.21l27.59,27.59a2.31,2.31,0,0,0-.21,1V38a2.34,2.34,0,0,0,2.34,2.34H703V76.47a2.33,2.33,0,0,0-.92.65L665.44,40.47a2.33,2.33,0,0,0,.06-.5v-.33a2.34,2.34,0,0,0-2.34-2.34h-.33a2.32,2.32,0,0,0-.5.06l-13.2-13.2-.44.44-.61-.61L632.41,39.67a2.32,2.32,0,0,0-1.24-.37h-.33a2.34,2.34,0,0,0-2.34,2.34V42a2.32,2.32,0,0,0,.37,1.24L595.41,76.67a2.32,2.32,0,0,0-1.24-.37H594V40.14A2.33,2.33,0,0,0,595.5,38v-.33s0-.07,0-.11L623.91,9.11a2.32,2.32,0,0,0,.93.19h.33A2.34,2.34,0,0,0,627.5,7V6.64a2.32,2.32,0,0,0-.19-.93L632.67.35,632-.35,626.71,4.9a2.32,2.32,0,0,0-1.54-.6h-.33a2.34,2.34,0,0,0-2.34,2.34V7a2.32,2.32,0,0,0,.6,1.54L595.16,36.44a2.34,2.34,0,0,0-1.16-1V-14.2h-1V35.3h-.16a2.31,2.31,0,0,0-1,.24L564.26,8a2.31,2.31,0,0,0,.24-1V6.64a2.34,2.34,0,0,0-2.34-2.34h-.33a2.31,2.31,0,0,0-1,.24L556.43.15l-.71.71L560,5.17a2.31,2.31,0,0,0-.54,1.47V7a2.34,2.34,0,0,0,2.34,2.34h.33a2.31,2.31,0,0,0,1.47-.54L591,36.17a2.31,2.31,0,0,0-.54,1.47V38a2.34,2.34,0,0,0,2.34,2.34H593V76.47a2.33,2.33,0,0,0-.48.25L556.4,40.59a2.31,2.31,0,0,0,.1-.63v-.33a2.34,2.34,0,0,0-2.34-2.34h-.33a2.3,2.3,0,0,0-.63.1L540,24.16l-.11.11-.28-.28-15.5,15.5a2.32,2.32,0,0,0-.92-.19h-.33a2.34,2.34,0,0,0-2.34,2.34V42a2.32,2.32,0,0,0,.19.92L487.08,76.49a2.32,2.32,0,0,0-.92-.19H486V40.14A2.33,2.33,0,0,0,487.5,38v-.33a2.31,2.31,0,0,0-.07-.55L515.28,9.23a2.31,2.31,0,0,0,.55.07h.33A2.34,2.34,0,0,0,518.5,7V6.64a2.31,2.31,0,0,0-.07-.55L524.16.35l-.71-.71-5.51,5.51a2.32,2.32,0,0,0-1.79-.85h-.33a2.34,2.34,0,0,0-2.34,2.34V7a2.32,2.32,0,0,0,.85,1.79l-27.4,27.4a2.33,2.33,0,0,0-.95-.69V-14.2h-1V35.3h-.16a2.32,2.32,0,0,0-1.33.42L456.08,8.3A2.32,2.32,0,0,0,456.5,7V6.64a2.34,2.34,0,0,0-2.34-2.34h-.33a2.32,2.32,0,0,0-1.33.42L447.93.15l-.71.71,4.61,4.61a2.31,2.31,0,0,0-.33,1.17V7a2.34,2.34,0,0,0,2.34,2.34h.33A2.31,2.31,0,0,0,455.34,9l27.49,27.49a2.31,2.31,0,0,0-.33,1.17V38a2.34,2.34,0,0,0,2.34,2.34H485V76.47a2.33,2.33,0,0,0-.76.48l-36-36a2.31,2.31,0,0,0,.23-1v-.33a2.34,2.34,0,0,0-2.34-2.34h-.33a2.31,2.31,0,0,0-1,.23l-12-12,.88-.87L433,24l-.87.88-.7-.7-.71.71.7.7L417.38,39.66a2.31,2.31,0,0,0-1.22-.35h-.33a2.34,2.34,0,0,0-2.34,2.34V42a2.31,2.31,0,0,0,.35,1.22L380.67,76.36a2.32,2.32,0,0,0-.51-.06h-.33a2.32,2.32,0,0,0-.84.16V40.3h.16A2.34,2.34,0,0,0,381.5,38v-.33a2.31,2.31,0,0,0-.21-1L408.89,9.1a2.32,2.32,0,0,0,1,.21h.33A2.34,2.34,0,0,0,412.5,7V6.64a2.32,2.32,0,0,0-.21-.95L417.63.35l-.71-.71-5.24,5.24a2.32,2.32,0,0,0-1.52-.58h-.33a2.34,2.34,0,0,0-2.34,2.34V7a2.32,2.32,0,0,0,.58,1.52L380.69,35.88a2.32,2.32,0,0,0-1.52-.58H379V-14.2h-1V35.47a2.34,2.34,0,0,0-.79.5l-28-28a2.31,2.31,0,0,0,.25-1V6.64a2.34,2.34,0,0,0-2.34-2.34h-.33a2.31,2.31,0,0,0-1,.25L341.39.15l-.71.71L345,5.19a2.31,2.31,0,0,0-.52,1.45V7a2.34,2.34,0,0,0,2.34,2.34h.33a2.31,2.31,0,0,0,1.45-.52l28,28a2.31,2.31,0,0,0-.15.81V38a2.33,2.33,0,0,0,1.5,2.17V77.21h0l-36.6-36.6a2.3,2.3,0,0,0,.11-.66v-.33a2.34,2.34,0,0,0-2.34-2.34h-.33a2.3,2.3,0,0,0-.66.11L324.94,24.16l-.11.11-.28-.28L309.05,39.48a2.32,2.32,0,0,0-.89-.18h-.33a2.34,2.34,0,0,0-2.34,2.34V42a2.32,2.32,0,0,0,.18.89L272.05,76.48a2.32,2.32,0,0,0-.89-.18H271V40.14A2.33,2.33,0,0,0,272.5,38v-.33a2.31,2.31,0,0,0-.08-.58L300.26,9.22a2.31,2.31,0,0,0,.58.08h.33A2.34,2.34,0,0,0,303.5,7V6.64a2.31,2.31,0,0,0-.08-.58L309.12.35l-.71-.71-5.48,5.48a2.32,2.32,0,0,0-1.77-.83h-.33a2.34,2.34,0,0,0-2.34,2.34V7a2.32,2.32,0,0,0,.83,1.77l-27.4,27.39a2.33,2.33,0,0,0-.93-.67V-14.2h-1V35.3h-.16a2.32,2.32,0,0,0-1.36.44L241.06,8.32A2.32,2.32,0,0,0,241.5,7V6.64a2.34,2.34,0,0,0-2.34-2.34h-.33a2.32,2.32,0,0,0-1.36.44L232.89.15l-.71.71,4.63,4.63a2.31,2.31,0,0,0-.31,1.15V7a2.34,2.34,0,0,0,2.34,2.34h.33A2.31,2.31,0,0,0,240.31,9l27.5,27.5a2.31,2.31,0,0,0-.31,1.15V38a2.34,2.34,0,0,0,2.34,2.34H270V76.47a2.34,2.34,0,0,0-.78.49l-36-36a2.31,2.31,0,0,0,.25-1v-.33a2.34,2.34,0,0,0-2.34-2.34h-.33a2.31,2.31,0,0,0-1,.25L216.43,24.16l-.44.44-.61-.61L199.93,39.44a2.31,2.31,0,0,0-.76-.14h-.33a2.34,2.34,0,0,0-2.34,2.34V42a2.31,2.31,0,0,0,.14.76L162.93,76.44a2.31,2.31,0,0,0-.76-.14H162V40.14A2.33,2.33,0,0,0,163.5,38v-.33a2.3,2.3,0,0,0-.12-.71L191.13,9.18a2.3,2.3,0,0,0,.7.12h.33A2.34,2.34,0,0,0,194.5,7V6.64a2.3,2.3,0,0,0-.12-.7L200,.35l-.71-.71L193.86,5a2.32,2.32,0,0,0-1.7-.74h-.33a2.34,2.34,0,0,0-2.34,2.34V7a2.32,2.32,0,0,0,.74,1.69L162.86,36a2.33,2.33,0,0,0-.86-.58V-14.2h-1V35.3h-.16a2.31,2.31,0,0,0-1.44.51L132,8.41A2.31,2.31,0,0,0,132.5,7V6.64a2.34,2.34,0,0,0-2.34-2.34h-.33a2.31,2.31,0,0,0-1.44.51L123.73.15,123,.86l4.74,4.74a2.31,2.31,0,0,0-.26,1V7a2.34,2.34,0,0,0,2.34,2.34h.33a2.31,2.31,0,0,0,1-.26L158.76,36.6a2.31,2.31,0,0,0-.26,1V38a2.34,2.34,0,0,0,2.34,2.34H161V76.47a2.33,2.33,0,0,0-.86.58L124.2,41.09a2.31,2.31,0,0,0,.3-1.13v-.33a2.34,2.34,0,0,0-2.34-2.34h-.33a2.31,2.31,0,0,0-1.13.3L107.27,24.16l-.11.11-.28-.28L91.27,39.6a2.31,2.31,0,0,0-1.11-.29h-.33a2.34,2.34,0,0,0-2.34,2.34V42a2.31,2.31,0,0,0,.29,1.11L54.52,76.34a2.31,2.31,0,0,0-.36,0h-.33a2.31,2.31,0,0,0-.84.16V40.3h.16A2.34,2.34,0,0,0,55.5,38v-.33a2.31,2.31,0,0,0-.27-1.06L82.77,9a2.31,2.31,0,0,0,1.06.27h.33A2.34,2.34,0,0,0,86.5,7V6.64a2.31,2.31,0,0,0-.27-1.06L91.46.35l-.71-.71L85.59,4.8a2.31,2.31,0,0,0-1.43-.5h-.33A2.34,2.34,0,0,0,81.5,6.64V7A2.31,2.31,0,0,0,82,8.39L54.59,35.8a2.31,2.31,0,0,0-1.43-.5H53V-14.2H52V35.47a2.33,2.33,0,0,0-.87.59L23.19,8.12A2.31,2.31,0,0,0,23.5,7V6.64A2.34,2.34,0,0,0,21.16,4.3h-.33a2.31,2.31,0,0,0-1.15.32L15.22.15l-.71.71,4.43,4.43a2.32,2.32,0,0,0-.44,1.35V7A2.34,2.34,0,0,0,20.84,9.3h.33a2.32,2.32,0,0,0,1.35-.44L50.61,37a2.3,2.3,0,0,0-.11.68V38A2.33,2.33,0,0,0,52,40.14V77.21l-.09.1L15.35,40.76A2.31,2.31,0,0,0,15.5,40v-.33a2.34,2.34,0,0,0-2.34-2.34h-.33a2.31,2.31,0,0,0-.79.15L-1.24,24.16l-.71.71L11.18,38a2.33,2.33,0,0,0-.68,1.64V40a2.34,2.34,0,0,0,2.34,2.34h.33a2.33,2.33,0,0,0,1.64-.68L51.53,78.35a2.3,2.3,0,0,0,0,.29V79a2.31,2.31,0,0,0,.5,1.43v34L36.58,129.8a2.31,2.31,0,0,0-1.42-.49h-.33a2.34,2.34,0,0,0-2.34,2.34V132a2.31,2.31,0,0,0,.49,1.42L-.42,166.8a2.31,2.31,0,0,0-1.42-.49H-2v-36h.16A2.34,2.34,0,0,0,.5,128v-.33a2.3,2.3,0,0,0-.12-.7L27.47,99.85a2.31,2.31,0,0,0,1.37.45h.33A2.34,2.34,0,0,0,31.5,98v-.33A2.32,2.32,0,0,0,31,96.27l5.83-5.83-.71-.71L30.3,95.61a2.31,2.31,0,0,0-1.13-.31h-.33a2.34,2.34,0,0,0-2.34,2.34V98a2.31,2.31,0,0,0,.31,1.13L-.14,126a2.32,2.32,0,0,0-1.7-.74H-2V75.8H-3v49.66a2.33,2.33,0,0,0-.71.43l-28-28a2.32,2.32,0,0,0,.2-.94v-.33a2.34,2.34,0,0,0-2.34-2.34h-.33a2.32,2.32,0,0,0-.94.2l-4.26-4.26-.71.71,4.16,4.16a2.32,2.32,0,0,0-.59,1.53V97a2.34,2.34,0,0,0,2.34,2.34h.33a2.32,2.32,0,0,0,1.53-.59l28,28a2.32,2.32,0,0,0-.19.93V128A2.33,2.33,0,0,0-3,130.14v36.32a2.33,2.33,0,0,0-.41.2l-35.46-35.46A2.32,2.32,0,0,0-38.5,130v-.33a2.34,2.34,0,0,0-2.34-2.34h-.33a2.32,2.32,0,0,0-1.24.37l-13.41-13.41-.71.71,13.41,13.41a2.32,2.32,0,0,0-.38,1.27V130a2.34,2.34,0,0,0,2.34,2.34h.33a2.32,2.32,0,0,0,1.27-.38l35.45,35.45a2.32,2.32,0,0,0-.38,1.27V169A2.34,2.34,0,0,0-3,171.14V205.8h1V171.3h.16A2.34,2.34,0,0,0,.5,169v-.33a2.31,2.31,0,0,0-.27-1.08L33.76,134a2.31,2.31,0,0,0,1.08.27h.33A2.34,2.34,0,0,0,37.5,132v-.33a2.31,2.31,0,0,0-.27-1.07L52,115.79h1v-.48l12.45,12.45a2.33,2.33,0,0,0-.95,1.87V130a2.34,2.34,0,0,0,2.34,2.34h.33a2.33,2.33,0,0,0,1.87-.95l36.59,36.59a2.3,2.3,0,0,0-.12.7V169a2.34,2.34,0,0,0,1.5,2.18V203l-.13-.13L91.19,218.55a2.31,2.31,0,0,0-1-.25h-.33a2.34,2.34,0,0,0-2.34,2.34V221a2.31,2.31,0,0,0,.25,1L54.41,255.33l-.24,0h-.33a2.31,2.31,0,0,0-.84.16V219.3h.16A2.34,2.34,0,0,0,55.5,217v-.33a2.31,2.31,0,0,0-.31-1.15L82.69,188a2.31,2.31,0,0,0,1.15.31h.33A2.34,2.34,0,0,0,86.5,186v-.33a2.31,2.31,0,0,0-.31-1.15l5.27-5.27-.71-.71-5.23,5.23a2.32,2.32,0,0,0-1.36-.44h-.33a2.34,2.34,0,0,0-2.34,2.34V186a2.32,2.32,0,0,0,.44,1.36L54.52,214.74a2.32,2.32,0,0,0-1.36-.44H53V164.8H52v49.66a2.34,2.34,0,0,0-.81.52l-28-28A2.31,2.31,0,0,0,23.5,186v-.33a2.34,2.34,0,0,0-2.34-2.34h-.33a2.31,2.31,0,0,0-1.07.27L15.22,179l-.71.71L19,184.22a2.31,2.31,0,0,0-.5,1.43V186a2.34,2.34,0,0,0,2.34,2.34h.33a2.31,2.31,0,0,0,1.43-.5l28.06,28.06a2.31,2.31,0,0,0-.14.78V217a2.33,2.33,0,0,0,1.5,2.17v37.07l0,0L15.05,219.33A2.32,2.32,0,0,0,15.5,218v-.33a2.34,2.34,0,0,0-2.34-2.34h-.33a2.32,2.32,0,0,0-1.36.45L-1.24,203l-.71.71L10.81,216.5a2.31,2.31,0,0,0-.31,1.14V218a2.34,2.34,0,0,0,2.34,2.34h.33a2.31,2.31,0,0,0,1.14-.31l37.24,37.24a2.32,2.32,0,0,0,0,.41V258a2.31,2.31,0,0,0,.5,1.43v33.85L36.51,308.74a2.32,2.32,0,0,0-1.35-.43h-.33a2.34,2.34,0,0,0-2.34,2.34V311a2.32,2.32,0,0,0,.43,1.35L-.49,345.74a2.32,2.32,0,0,0-1.35-.43H-2v-36h.16A2.34,2.34,0,0,0,.5,307v-.33a2.31,2.31,0,0,0-.15-.8L28,278.15a2.31,2.31,0,0,0,.8.15h.33A2.34,2.34,0,0,0,31.5,276v-.33a2.31,2.31,0,0,0-.15-.8l5.52-5.52-.71-.71L30.8,274a2.33,2.33,0,0,0-1.64-.67h-.33a2.34,2.34,0,0,0-2.34,2.34V276a2.33,2.33,0,0,0,.67,1.64L-.2,305a2.33,2.33,0,0,0-1.64-.67H-2V254.8H-3v49.66a2.32,2.32,0,0,0-.64.38l-28-28a2.31,2.31,0,0,0,.16-.84v-.33a2.34,2.34,0,0,0-2.34-2.34h-.33a2.31,2.31,0,0,0-.84.16l-4.35-4.35-.71.71,4.21,4.21a2.32,2.32,0,0,0-.65,1.6V276a2.34,2.34,0,0,0,2.34,2.34h.33a2.32,2.32,0,0,0,1.6-.65l28,28a2.31,2.31,0,0,0-.24,1V307A2.34,2.34,0,0,0-3,309.14v36.32a2.32,2.32,0,0,0-.32.16l-35.5-35.5A2.31,2.31,0,0,0-38.5,309v-.33a2.34,2.34,0,0,0-2.34-2.34h-.33a2.31,2.31,0,0,0-1.16.32l-13.5-13.5-.71.71,13.46,13.46a2.32,2.32,0,0,0-.43,1.35V309a2.34,2.34,0,0,0,2.34,2.34h.33a2.32,2.32,0,0,0,1.35-.43l35.42,35.42a2.32,2.32,0,0,0-.43,1.35V348A2.33,2.33,0,0,0-3,350.14V384.8h1V350.3h.16A2.34,2.34,0,0,0,.5,348v-.33a2.31,2.31,0,0,0-.32-1.16L33.68,313a2.31,2.31,0,0,0,1.16.32h.33A2.34,2.34,0,0,0,37.5,311v-.33a2.31,2.31,0,0,0-.32-1.16L52,294.66v.14h1v-.61l12.52,12.52a2.33,2.33,0,0,0-1,1.93V309a2.34,2.34,0,0,0,2.34,2.34h.33a2.33,2.33,0,0,0,1.93-1l36.56,36.56a2.31,2.31,0,0,0-.15.79V348a2.33,2.33,0,0,0,1.5,2.17v33l-.13-.13L91.31,398.61a2.31,2.31,0,0,0-1.14-.31h-.33a2.34,2.34,0,0,0-2.34,2.34V401a2.31,2.31,0,0,0,.31,1.14L54.57,435.35a2.32,2.32,0,0,0-.41,0h-.33a2.31,2.31,0,0,0-.84.16V399.3h.16A2.34,2.34,0,0,0,55.5,397v-.33a2.31,2.31,0,0,0-.25-1l27-27a2.33,2.33,0,0,0,1.62.66h.33A2.34,2.34,0,0,0,86.5,367v-.33a2.32,2.32,0,0,0-.66-1.62l5.61-5.61-.71-.71L85,364.46a2.31,2.31,0,0,0-.82-.16h-.33a2.34,2.34,0,0,0-2.34,2.34V367a2.31,2.31,0,0,0,.16.82l-27,27a2.31,2.31,0,0,0-1.46-.52H53V344.8H52v49.66a2.33,2.33,0,0,0-.9.62L23.17,367.15A2.31,2.31,0,0,0,23.5,366v-.33a2.34,2.34,0,0,0-2.34-2.34h-.33a2.31,2.31,0,0,0-1.19.33l-4.43-4.43-.71.71,4.4,4.4a2.32,2.32,0,0,0-.41,1.32V366a2.34,2.34,0,0,0,2.34,2.34h.33a2.32,2.32,0,0,0,1.32-.42L50.6,396a2.31,2.31,0,0,0-.1.64V397a2.34,2.34,0,0,0,1.5,2.18v37.07l-.11.14L15.34,399.8a2.31,2.31,0,0,0,.16-.83v-.33a2.34,2.34,0,0,0-2.34-2.34h-.33a2.32,2.32,0,0,0-.83.16L-1.24,383.22l-.71.71L11.15,397a2.33,2.33,0,0,0-.65,1.61V399a2.34,2.34,0,0,0,2.34,2.34h.33a2.32,2.32,0,0,0,1.61-.65L51.52,437.4a2.29,2.29,0,0,0,0,.24V438a2.31,2.31,0,0,0,.5,1.43v34L36.61,488.82a2.31,2.31,0,0,0-1.45-.52h-.33a2.34,2.34,0,0,0-2.34,2.34V491a2.31,2.31,0,0,0,.52,1.45L-.39,525.82a2.31,2.31,0,0,0-1.45-.52H-2v-36h.16A2.34,2.34,0,0,0,.5,487v-.33A2.3,2.3,0,0,0,.39,486l27.1-27.1a2.32,2.32,0,0,0,1.34.43h.33A2.34,2.34,0,0,0,31.5,457v-.33a2.32,2.32,0,0,0-.43-1.34l5.8-5.8-.71-.71-5.84,5.84a2.31,2.31,0,0,0-1.17-.32h-.33a2.34,2.34,0,0,0-2.34,2.34V457a2.31,2.31,0,0,0,.32,1.17L-.11,485.07a2.32,2.32,0,0,0-1.72-.77H-2V434.8H-3v49.66a2.33,2.33,0,0,0-.74.46l-28-28a2.31,2.31,0,0,0,.22-1v-.33a2.34,2.34,0,0,0-2.34-2.34h-.33a2.31,2.31,0,0,0-1,.22l-4.22-4.22-.71.71,4.13,4.13a2.31,2.31,0,0,0-.56,1.5V456a2.34,2.34,0,0,0,2.34,2.34h.33a2.32,2.32,0,0,0,1.5-.56l28,28a2.32,2.32,0,0,0-.18.89V487A2.34,2.34,0,0,0-3,489.14v36.32a2.33,2.33,0,0,0-.44.22l-35.44-35.44A2.32,2.32,0,0,0-38.5,489v-.33a2.34,2.34,0,0,0-2.34-2.34h-.33a2.32,2.32,0,0,0-1.28.39l-13.38-13.38-.71.71,13.39,13.39a2.31,2.31,0,0,0-.36,1.23V489a2.34,2.34,0,0,0,2.34,2.34h.33a2.32,2.32,0,0,0,1.23-.36l35.46,35.46a2.31,2.31,0,0,0-.36,1.23V528A2.33,2.33,0,0,0-3,530.14V564.8h1V530.3h.16A2.34,2.34,0,0,0,.5,528v-.33a2.31,2.31,0,0,0-.26-1L33.8,493a2.31,2.31,0,0,0,1,.26h.33A2.34,2.34,0,0,0,37.5,491v-.33a2.31,2.31,0,0,0-.26-1L52,474.8h1v-.42L65.42,486.8a2.32,2.32,0,0,0-.92,1.84V489a2.34,2.34,0,0,0,2.34,2.34h.33a2.33,2.33,0,0,0,1.84-.92L105.6,527a2.3,2.3,0,0,0-.1.65V528a2.33,2.33,0,0,0,1.5,2.17V564.8h1V530.3h.16A2.34,2.34,0,0,0,110.5,528v-.33a2.32,2.32,0,0,0-.59-1.54l33-33a2.32,2.32,0,0,0,.93.2h.33A2.34,2.34,0,0,0,146.5,491v-.33a2.32,2.32,0,0,0-.2-.93l14.9-14.9h.72l12.82,12.82a2.31,2.31,0,0,0-.24,1V489a2.34,2.34,0,0,0,2.34,2.34h.33a2.31,2.31,0,0,0,1-.24l35.56,35.56a2.31,2.31,0,0,0-.24,1V528a2.34,2.34,0,0,0,2.34,2.34H216v34.5h1V530.14a2.33,2.33,0,0,0,1.5-2.17v-.33a2.32,2.32,0,0,0-.37-1.26l33.45-33.45a2.32,2.32,0,0,0,1.26.37h.33A2.34,2.34,0,0,0,255.5,491v-.33a2.32,2.32,0,0,0-.37-1.25L270,474.51v.29h1v-.09l12.23,12.23a2.32,2.32,0,0,0-.73,1.69V489a2.34,2.34,0,0,0,2.34,2.34h.33a2.32,2.32,0,0,0,1.69-.73l35.95,35.95a2.31,2.31,0,0,0-.3,1.12V528a2.33,2.33,0,0,0,1.5,2.17V564.8h1V530.3h.16A2.34,2.34,0,0,0,327.5,528v-.33a2.31,2.31,0,0,0-.31-1.15l33.5-33.5a2.31,2.31,0,0,0,1.15.31h.33A2.34,2.34,0,0,0,364.5,491v-.33a2.31,2.31,0,0,0-.31-1.15l13.73-13.73L389.17,487a2.33,2.33,0,0,0-.67,1.63V489a2.34,2.34,0,0,0,2.34,2.34h.33a2.33,2.33,0,0,0,1.63-.67l36,36a2.31,2.31,0,0,0-.26,1V528a2.34,2.34,0,0,0,2.34,2.34H431v34.5h1V530.14a2.33,2.33,0,0,0,1.5-2.17v-.33a2.31,2.31,0,0,0-.36-1.23l33.93-33.93a2.32,2.32,0,0,0,1.77.82h.33A2.34,2.34,0,0,0,471.5,491v-.33a2.32,2.32,0,0,0-.82-1.77L485,474.55v.25h1v-.13l12.81,12.81a2.31,2.31,0,0,0-.31,1.15V489a2.34,2.34,0,0,0,2.34,2.34h.33a2.31,2.31,0,0,0,1.15-.31l35.5,35.5a2.31,2.31,0,0,0-.32,1.15V528a2.34,2.34,0,0,0,2.34,2.34H540v34.5h1V530.14a2.33,2.33,0,0,0,1.5-2.17v-.33a2.31,2.31,0,0,0-.3-1.12L575.71,493a2.31,2.31,0,0,0,1.12.3h.33A2.34,2.34,0,0,0,579.5,491v-.33a2.31,2.31,0,0,0-.3-1.12l14.71-14.71H594v-.09l.27-.27L607,487.19a2.31,2.31,0,0,0-.52,1.45V489a2.34,2.34,0,0,0,2.34,2.34h.33a2.31,2.31,0,0,0,1.45-.52l36,36a2.31,2.31,0,0,0-.16.82V528a2.33,2.33,0,0,0,1.5,2.17V564.8h1V530.3h.16A2.34,2.34,0,0,0,651.5,528v-.33a2.31,2.31,0,0,0-.5-1.42l33.41-33.41a2.31,2.31,0,0,0,1.42.5h.33A2.34,2.34,0,0,0,688.5,491v-.33a2.31,2.31,0,0,0-.5-1.42l15-15v.58h.8l12.3,12.3a2.32,2.32,0,0,0-.59,1.54V489a2.34,2.34,0,0,0,2.34,2.34h.33a2.32,2.32,0,0,0,1.54-.59l36,36a2.32,2.32,0,0,0-.2.93V528a2.34,2.34,0,0,0,2.34,2.34H758v34.5h1V530.14a2.33,2.33,0,0,0,1.5-2.17v-.33a2.32,2.32,0,0,0-.42-1.33l33.43-33.42a2.32,2.32,0,0,0,1.33.42h.33A2.34,2.34,0,0,0,797.5,491v-.33a2.32,2.32,0,0,0-.42-1.33l14.5-14.5H812v-.42l.54-.54-.54-.54v-33h.16A2.34,2.34,0,0,0,814.5,438v-.33a2.31,2.31,0,0,0-.5-1.43l33.41-33.41a2.31,2.31,0,0,0,1.43.5h.33A2.34,2.34,0,0,0,851.5,401v-.33a2.31,2.31,0,0,0-.5-1.43l15.46-15.46-.71-.71-15.53,15.53a2.31,2.31,0,0,0-1.06-.27h-.33a2.34,2.34,0,0,0-2.34,2.34V401a2.31,2.31,0,0,0,.27,1.06l-33.54,33.54a2.31,2.31,0,0,0-1.06-.27H812V399.14a2.34,2.34,0,0,0,1.5-2.18v-.33a2.31,2.31,0,0,0,0-.36L840.73,369a2.31,2.31,0,0,0,1.1.29h.33A2.34,2.34,0,0,0,844.5,367v-.33a2.31,2.31,0,0,0-.29-1.1l6.13-6.13-.71-.71-6.07,6.07a2.31,2.31,0,0,0-1.39-.47h-.33a2.34,2.34,0,0,0-2.34,2.34V367a2.31,2.31,0,0,0,.47,1.39l-26.92,26.92a2.34,2.34,0,0,0-1.05-.81V344.8h-1v49.5h-.16a2.32,2.32,0,0,0-1.26.38l-27.45-27.45a2.32,2.32,0,0,0,.38-1.26v-.33a2.34,2.34,0,0,0-2.34-2.34h-.33a2.32,2.32,0,0,0-1.26.38l-4.47-4.47-.71.71,4.48,4.48a2.32,2.32,0,0,0-.37,1.25V366a2.34,2.34,0,0,0,2.34,2.34h.33a2.32,2.32,0,0,0,1.25-.37l27.46,27.46a2.32,2.32,0,0,0-.37,1.25V397a2.34,2.34,0,0,0,2.34,2.34H811v36.16a2.32,2.32,0,0,0-.69.42l-36-36a2.32,2.32,0,0,0,.19-.92v-.33a2.34,2.34,0,0,0-2.34-2.34h-.33a2.32,2.32,0,0,0-.92.19L759,384.58V350.14a2.33,2.33,0,0,0,1.5-2.17v-.33a2.31,2.31,0,0,0-.51-1.44L793.4,312.8a2.31,2.31,0,0,0,1.43.51h.33A2.34,2.34,0,0,0,797.5,311v-.33a2.31,2.31,0,0,0-.51-1.44l14.4-14.4H812v-.61l.54-.54-.54-.54V260.3h.16A2.34,2.34,0,0,0,814.5,258v-.33a2.32,2.32,0,0,0-.58-1.53l33.39-33.39a2.32,2.32,0,0,0,1.53.58h.33A2.34,2.34,0,0,0,851.5,221v-.33a2.32,2.32,0,0,0-.58-1.53l15.54-15.54ZM704,81.3h.16A2.34,2.34,0,0,0,706.5,79v-.33a2.32,2.32,0,0,0-.77-1.72L738.67,44a2.31,2.31,0,0,0,1.16.32h.33A2.34,2.34,0,0,0,742.5,42v-.33a2.31,2.31,0,0,0-.32-1.16l15.18-15.18,12.77,12.77a2.32,2.32,0,0,0-.63,1.58V40a2.34,2.34,0,0,0,2.34,2.34h.33a2.32,2.32,0,0,0,1.58-.63l36,36a2.31,2.31,0,0,0-.22,1V79a2.33,2.33,0,0,0,1.5,2.17v33.77l-14.7,14.7a2.31,2.31,0,0,0-1.14-.31h-.33a2.34,2.34,0,0,0-2.34,2.34V132a2.31,2.31,0,0,0,.31,1.14L759.3,166.61a2.32,2.32,0,0,0-.3-.15V130.14a2.33,2.33,0,0,0,1.5-2.17v-.33a2.31,2.31,0,0,0-.25-1l26.56-26.55a2.31,2.31,0,0,0,1,.25h.33A2.34,2.34,0,0,0,790.5,98v-.33a2.31,2.31,0,0,0-.25-1l6.16-6.16-.71-.71-6.09,6.09a2.31,2.31,0,0,0-1.45-.52h-.33a2.34,2.34,0,0,0-2.34,2.34V98a2.31,2.31,0,0,0,.52,1.45l-26.41,26.4a2.32,2.32,0,0,0-.62-.36V75.8h-1v49.5h-.16a2.32,2.32,0,0,0-1.77.83L728.14,98.21A2.31,2.31,0,0,0,728.5,97v-.33a2.34,2.34,0,0,0-2.34-2.34h-.33a2.32,2.32,0,0,0-1.24.36l-4.42-4.42-.71.71,4.41,4.41a2.32,2.32,0,0,0-.38,1.27V97a2.34,2.34,0,0,0,2.34,2.34h.33a2.32,2.32,0,0,0,1.28-.38l28.14,28.14a2.31,2.31,0,0,0-.08.58V128a2.34,2.34,0,0,0,2.34,2.34H758v36h-.16a2.31,2.31,0,0,0-1.51.57l-36-36a2.32,2.32,0,0,0,.18-.89v-.33a2.34,2.34,0,0,0-2.34-2.34h-.33a2.32,2.32,0,0,0-.89.18L704,114.54Zm-.15,34.5,12.27,12.27a2.32,2.32,0,0,0-.62,1.57V130a2.34,2.34,0,0,0,2.34,2.34h.33a2.32,2.32,0,0,0,1.57-.62l36,36a2.31,2.31,0,0,0-.22,1V169a2.34,2.34,0,0,0,2.34,2.34H758v32.09l-.36-.36-.11.11-.28-.28-15.82,15.82a2.32,2.32,0,0,0-1.26-.38h-.33a2.34,2.34,0,0,0-2.34,2.34V221a2.32,2.32,0,0,0,.38,1.27l-33.15,33.15a2.31,2.31,0,0,0-.57-.08H704V219.14a2.33,2.33,0,0,0,1.5-2.17v-.33a2.32,2.32,0,0,0-.18-.9l27.62-27.61a2.32,2.32,0,0,0,.9.18h.33A2.34,2.34,0,0,0,736.5,186v-.33a2.32,2.32,0,0,0-.18-.9l5.51-5.51-.71-.71-5.4,5.4a2.32,2.32,0,0,0-1.56-.61h-.33a2.34,2.34,0,0,0-2.34,2.34V186a2.32,2.32,0,0,0,.61,1.56l-27.39,27.39a2.33,2.33,0,0,0-.72-.45V164.8h-1v49.5h-.16a2.31,2.31,0,0,0-1.45.52L674,187.41a2.31,2.31,0,0,0,.52-1.45v-.33a2.34,2.34,0,0,0-2.34-2.34h-.33a2.31,2.31,0,0,0-1.45.52l-4.8-4.8-.71.71,4.87,4.87a2.31,2.31,0,0,0-.26,1V186a2.34,2.34,0,0,0,2.34,2.34h.33a2.31,2.31,0,0,0,1-.26l27.55,27.55a2.31,2.31,0,0,0-.26,1V217a2.34,2.34,0,0,0,2.34,2.34H703v36.16a2.33,2.33,0,0,0-.86.58L665.2,219.09a2.31,2.31,0,0,0,.3-1.13v-.33a2.34,2.34,0,0,0-2.34-2.34h-.33a2.31,2.31,0,0,0-1.13.3L649.14,203l-.14.14V171.3h.16A2.34,2.34,0,0,0,651.5,169v-.33a2.31,2.31,0,0,0-.52-1.45l33.41-33.41a2.31,2.31,0,0,0,1.45.52h.33A2.34,2.34,0,0,0,688.5,132v-.33a2.31,2.31,0,0,0-.52-1.45l15-15v.64ZM683.71,311.91l-33.59,33.59a2.32,2.32,0,0,0-.95-.21H649v-36h.16A2.34,2.34,0,0,0,651.5,307v-.33a2.31,2.31,0,0,0-.35-1.22l27.18-27.18a2.32,2.32,0,0,0,.51.06h.33A2.34,2.34,0,0,0,681.5,276v-.33a2.32,2.32,0,0,0-.06-.51l5.81-5.81-.71-.71L681,274.18a2.32,2.32,0,0,0-1.81-.88h-.33a2.34,2.34,0,0,0-2.34,2.34V276a2.32,2.32,0,0,0,.88,1.81L650.45,304.7a2.32,2.32,0,0,0-1.29-.39H649V254.8h-1v49.66a2.33,2.33,0,0,0-.95.69l-28.63-28.63a2.31,2.31,0,0,0,.07-.56v-.33a2.34,2.34,0,0,0-2.34-2.34h-.33a2.31,2.31,0,0,0-.56.07L611,269.11l-.71.71,4,4a2.32,2.32,0,0,0-.84,1.78V276a2.34,2.34,0,0,0,2.34,2.34h.33a2.32,2.32,0,0,0,1.78-.84l28.63,28.63a2.31,2.31,0,0,0-.07.55V307a2.34,2.34,0,0,0,1.5,2.18v36.32a2.33,2.33,0,0,0-.69.42l-36-36a2.32,2.32,0,0,0,.19-.92v-.33a2.34,2.34,0,0,0-2.34-2.34h-.33a2.32,2.32,0,0,0-.92.19l-13.37-13.37-.11.11-.28-.28-.16.16V260.3h.16A2.34,2.34,0,0,0,596.5,258v-.33a2.32,2.32,0,0,0-.43-1.35l33.42-33.42a2.32,2.32,0,0,0,1.35.43h.33A2.34,2.34,0,0,0,633.5,221v-.33a2.32,2.32,0,0,0-.43-1.35L648,204.36v1.44h1v-1.49l12,12a2.32,2.32,0,0,0-.46,1.37V218a2.34,2.34,0,0,0,2.34,2.34h.33a2.32,2.32,0,0,0,1.37-.46l37.09,37.09a2.3,2.3,0,0,0-.12.71V258a2.34,2.34,0,0,0,1.5,2.18v33.15l-.33-.33-15.55,15.55a2.32,2.32,0,0,0-.95-.21h-.33a2.34,2.34,0,0,0-2.34,2.34V311A2.32,2.32,0,0,0,683.71,311.91ZM594,81.3h.16A2.34,2.34,0,0,0,596.5,79v-.33a2.32,2.32,0,0,0-.38-1.27l33.45-33.45a2.32,2.32,0,0,0,1.27.38h.33A2.34,2.34,0,0,0,633.5,42v-.33a2.32,2.32,0,0,0-.38-1.27L648.53,25l12.86,12.86a2.32,2.32,0,0,0-.88,1.82V40a2.34,2.34,0,0,0,2.34,2.34h.33a2.32,2.32,0,0,0,1.82-.88L701.59,78a2.31,2.31,0,0,0-.09.61V79a2.33,2.33,0,0,0,1.5,2.17v33.28l-.33-.33L687.2,129.56a2.31,2.31,0,0,0-1-.25h-.33a2.34,2.34,0,0,0-2.34,2.34V132a2.31,2.31,0,0,0,.25,1L650.2,166.56a2.31,2.31,0,0,0-1-.25H649v-36h.16A2.34,2.34,0,0,0,651.5,128v-.33a2.31,2.31,0,0,0-.31-1.14L677.7,100a2.31,2.31,0,0,0,1.14.31h.33A2.34,2.34,0,0,0,681.5,98v-.33a2.31,2.31,0,0,0-.31-1.14l6.06-6.06-.71-.71-6,6a2.31,2.31,0,0,0-1.36-.45h-.33a2.34,2.34,0,0,0-2.34,2.34V98a2.32,2.32,0,0,0,.45,1.37l-26.42,26.42a2.32,2.32,0,0,0-1.36-.45H649V75.8h-1v49.66a2.33,2.33,0,0,0-1,.76l-28.6-28.6a2.3,2.3,0,0,0,.11-.66v-.33a2.34,2.34,0,0,0-2.34-2.34h-.33a2.3,2.3,0,0,0-.66.11L611,90.25l-.71.71,4,4a2.32,2.32,0,0,0-.77,1.72V97a2.34,2.34,0,0,0,2.34,2.34h.33a2.32,2.32,0,0,0,1.72-.77l28.66,28.66a2.33,2.33,0,0,0,0,.45V128a2.33,2.33,0,0,0,1.5,2.17v36.32a2.33,2.33,0,0,0-.76.48l-36-36a2.31,2.31,0,0,0,.23-1v-.33a2.34,2.34,0,0,0-2.34-2.34h-.33a2.31,2.31,0,0,0-1,.23l-13.28-13.28-.11.11-.28-.28-.16.16Zm-.14,34.5H594v-.14l.27-.27L607,128.16a2.32,2.32,0,0,0-.54,1.48V130a2.34,2.34,0,0,0,2.34,2.34h.33a2.31,2.31,0,0,0,1.48-.54l36,36a2.32,2.32,0,0,0-.17.86V169a2.34,2.34,0,0,0,1.5,2.18v31.81l-15.68,15.68a2.31,2.31,0,0,0-1.16-.32h-.33a2.34,2.34,0,0,0-2.34,2.34V221a2.31,2.31,0,0,0,.32,1.16l-33.5,33.5a2.31,2.31,0,0,0-1.16-.32H594V219.14a2.33,2.33,0,0,0,1.5-2.17v-.33c0-.08,0-.15,0-.23l28.35-28.35a2.31,2.31,0,0,0,1,.24h.33A2.34,2.34,0,0,0,627.5,186v-.33a2.31,2.31,0,0,0-.24-1l5.41-5.41-.71-.71-5.32,5.32a2.31,2.31,0,0,0-1.47-.54h-.33a2.34,2.34,0,0,0-2.34,2.34V186a2.31,2.31,0,0,0,.54,1.47l-27.92,27.92a2.34,2.34,0,0,0-1.11-.9V164.8h-1v49.5h-.16a2.32,2.32,0,0,0-.93.19l-27.6-27.6a2.32,2.32,0,0,0,.2-.93v-.33a2.34,2.34,0,0,0-2.34-2.34h-.33a2.32,2.32,0,0,0-.93.2L556.43,179l-.71.71,4.37,4.37a2.32,2.32,0,0,0-.59,1.54V186a2.34,2.34,0,0,0,2.34,2.34h.33a2.32,2.32,0,0,0,1.54-.59l27.39,27.39a2.32,2.32,0,0,0-.59,1.54V217a2.34,2.34,0,0,0,2.34,2.34H593v36.16a2.32,2.32,0,0,0-.4.2L556.14,219.2a2.32,2.32,0,0,0,.36-1.23v-.33a2.34,2.34,0,0,0-2.34-2.34h-.33a2.31,2.31,0,0,0-1.23.36L541,204.06V171.14a2.34,2.34,0,0,0,1.5-2.18v-.33a2.31,2.31,0,0,0-.32-1.16l33.5-33.5a2.31,2.31,0,0,0,1.16.32h.33A2.34,2.34,0,0,0,579.5,132v-.33a2.31,2.31,0,0,0-.32-1.16Zm-19,196.43-33.45,33.45a2.33,2.33,0,0,0-.43-.22V309.14a2.34,2.34,0,0,0,1.5-2.18v-.33a2.32,2.32,0,0,0-.18-.9l27.62-27.62a2.32,2.32,0,0,0,.9.18h.33A2.34,2.34,0,0,0,573.5,276v-.33a2.32,2.32,0,0,0-.18-.9l5.43-5.42-.71-.71-5.31,5.31a2.32,2.32,0,0,0-1.57-.61h-.33a2.34,2.34,0,0,0-2.34,2.34V276a2.32,2.32,0,0,0,.61,1.56l-27.39,27.38a2.33,2.33,0,0,0-.73-.45V254.8h-1v49.5h-.16a2.32,2.32,0,0,0-1.54.6l-28-28a2.32,2.32,0,0,0,.2-.94v-.33a2.34,2.34,0,0,0-2.34-2.34h-.33a2.32,2.32,0,0,0-.94.2l-4.39-4.39-.71.71,4.29,4.29a2.32,2.32,0,0,0-.59,1.53V276a2.34,2.34,0,0,0,2.34,2.34h.33a2.32,2.32,0,0,0,1.53-.59l28,28a2.32,2.32,0,0,0-.19.93V307a2.34,2.34,0,0,0,2.34,2.34H540v36h-.16a2.32,2.32,0,0,0-1.24.37l-35.46-35.46a2.32,2.32,0,0,0,.37-1.24v-.33a2.34,2.34,0,0,0-2.34-2.34h-.33a2.32,2.32,0,0,0-1.24.37L486,293.13l0,0V260.3h.16A2.34,2.34,0,0,0,488.5,258v-.33a2.33,2.33,0,0,0-.66-1.62l33.38-33.37a2.32,2.32,0,0,0,1.62.66h.33A2.34,2.34,0,0,0,525.5,221v-.33a2.33,2.33,0,0,0-.66-1.62l14.85-14.85.31.31v1.33h1v-.33l10.89,10.89a2.32,2.32,0,0,0-.39,1.28V218a2.34,2.34,0,0,0,2.34,2.34h.33a2.32,2.32,0,0,0,1.28-.39l36.44,36.44a2.32,2.32,0,0,0-.39,1.28V258a2.34,2.34,0,0,0,1.5,2.18v34l-14.57,14.57a2.32,2.32,0,0,0-1.27-.38h-.33a2.34,2.34,0,0,0-2.34,2.34V311A2.32,2.32,0,0,0,574.88,312.24ZM486,81.3h.16A2.34,2.34,0,0,0,488.5,79v-.33a2.32,2.32,0,0,0-.6-1.55L521.28,43.7a2.32,2.32,0,0,0,1.55.6h.33A2.34,2.34,0,0,0,525.5,42v-.33a2.32,2.32,0,0,0-.6-1.55L539.69,25.3l12.6,12.6a2.32,2.32,0,0,0-.79,1.74V40a2.34,2.34,0,0,0,2.34,2.34h.33a2.32,2.32,0,0,0,1.74-.79l35.94,35.93a2.31,2.31,0,0,0-.34,1.2V79a2.33,2.33,0,0,0,1.5,2.17v34.1l-14.49,14.49a2.32,2.32,0,0,0-1.35-.43h-.33a2.34,2.34,0,0,0-2.34,2.34V132a2.32,2.32,0,0,0,.43,1.35l-33.42,33.42a2.32,2.32,0,0,0-.51-.27V130.14a2.33,2.33,0,0,0,1.5-2.17v-.33a2.31,2.31,0,0,0-.15-.8l27-27a2.31,2.31,0,0,0,1.44.51h.33A2.34,2.34,0,0,0,573.5,98v-.33A2.31,2.31,0,0,0,573,96.2l5.75-5.75-.71-.71-5.83,5.82a2.31,2.31,0,0,0-1-.26h-.33a2.34,2.34,0,0,0-2.34,2.34V98a2.31,2.31,0,0,0,.26,1l-27,27a2.34,2.34,0,0,0-.8-.51V75.8h-1v49.5h-.16a2.32,2.32,0,0,0-1.61.65l-28-28a2.31,2.31,0,0,0,.25-1v-.33a2.34,2.34,0,0,0-2.34-2.34h-.33a2.31,2.31,0,0,0-1,.25l-4.3-4.3-.71.71L506,95.18a2.31,2.31,0,0,0-.53,1.46V97a2.34,2.34,0,0,0,2.34,2.34h.33a2.31,2.31,0,0,0,1.46-.53l28,28a2.31,2.31,0,0,0-.16.83V128a2.34,2.34,0,0,0,2.34,2.34H540v36h-.16a2.32,2.32,0,0,0-1.32.42l-35.43-35.43a2.32,2.32,0,0,0,.42-1.32v-.33a2.34,2.34,0,0,0-2.34-2.34h-.33a2.32,2.32,0,0,0-1.32.42L486,114.26l0,0Zm0,34.5v-.18l12.83,12.83a2.31,2.31,0,0,0-.33,1.19V130a2.34,2.34,0,0,0,2.34,2.34h.33a2.31,2.31,0,0,0,1.18-.33l35.49,35.49a2.31,2.31,0,0,0-.33,1.19V169a2.34,2.34,0,0,0,2.34,2.34H540v31.76l0,0-.11.11-.28-.28L524,218.46a2.31,2.31,0,0,0-.82-.16h-.33a2.34,2.34,0,0,0-2.34,2.34V221a2.31,2.31,0,0,0,.16.82L487,255.46a2.31,2.31,0,0,0-.82-.16H486V219.14a2.33,2.33,0,0,0,1.5-2.17v-.33a2.3,2.3,0,0,0-.1-.65l27.79-27.79a2.3,2.3,0,0,0,.65.1h.33A2.34,2.34,0,0,0,518.5,186v-.33a2.3,2.3,0,0,0-.1-.65l5.77-5.77-.71-.71-5.56,5.56a2.32,2.32,0,0,0-1.73-.78h-.33a2.34,2.34,0,0,0-2.34,2.34V186a2.32,2.32,0,0,0,.78,1.73l-27.39,27.39a2.33,2.33,0,0,0-.89-.61V164.8h-1v49.5h-.16a2.32,2.32,0,0,0-1.26.37l-27.45-27.45a2.32,2.32,0,0,0,.37-1.26v-.33a2.34,2.34,0,0,0-2.34-2.34h-.33a2.32,2.32,0,0,0-1.26.37L447.93,179l-.71.71,4.65,4.65a2.32,2.32,0,0,0-.37,1.26V186a2.34,2.34,0,0,0,2.34,2.34h.33a2.32,2.32,0,0,0,1.26-.37l27.45,27.45a2.32,2.32,0,0,0-.37,1.26V217a2.34,2.34,0,0,0,2.34,2.34H485v36.16a2.33,2.33,0,0,0-.68.42l-36.39-36.39a2.32,2.32,0,0,0,.58-1.52v-.33a2.34,2.34,0,0,0-2.34-2.34h-.33a2.32,2.32,0,0,0-1.52.58l-11.44-11.44.88-.87-.71-.71-.87.88-.17-.17V171.14a2.34,2.34,0,0,0,1.5-2.18v-.33a2.32,2.32,0,0,0-.38-1.27L467,133.45a2.32,2.32,0,0,0,1.79.85h.33A2.34,2.34,0,0,0,471.5,132v-.33a2.32,2.32,0,0,0-.85-1.79L485,115.5v.31Zm-19.46,195.6-34.22,34.22a2.3,2.3,0,0,0-.33-.16V309.14a2.34,2.34,0,0,0,1.5-2.18v-.33a2.31,2.31,0,0,0-.24-1l27.35-27.35.22,0h.33A2.34,2.34,0,0,0,463.5,276v-.33c0-.08,0-.15,0-.22l6.1-6.1-.71-.71-5.76,5.76a2.33,2.33,0,0,0-2-1.06h-.33a2.34,2.34,0,0,0-2.34,2.34V276a2.33,2.33,0,0,0,1.06,2l-26.92,26.92a2.32,2.32,0,0,0-.64-.38V254.8h-1v49.5h-.16a2.33,2.33,0,0,0-1.63.67l-28-28a2.31,2.31,0,0,0,.26-1v-.33a2.34,2.34,0,0,0-2.34-2.34h-.33a2.31,2.31,0,0,0-1,.26l-4.45-4.45-.71.71L397,274.2a2.31,2.31,0,0,0-.51,1.44V276a2.34,2.34,0,0,0,2.34,2.34h.33a2.31,2.31,0,0,0,1.44-.51l28,28a2.31,2.31,0,0,0-.15.8V307a2.34,2.34,0,0,0,2.34,2.34H431v36h-.16a2.32,2.32,0,0,0-1.34.43l-36.1-36.1a2.3,2.3,0,0,0,.11-.66v-.33a2.34,2.34,0,0,0-2.34-2.34h-.33a2.3,2.3,0,0,0-.66.11l-11.55-11.55.06-.06H379v-.31l.83-.83-.71-.71-.12.12V260.14a2.31,2.31,0,0,0,.84.16h.33A2.34,2.34,0,0,0,382.5,258v-.33a2.33,2.33,0,0,0-.95-1.87l32.92-32.92a2.31,2.31,0,0,0,1.37.45h.33A2.34,2.34,0,0,0,418.5,221v-.33a2.32,2.32,0,0,0-.45-1.37l13.47-13.47H432v-.48l.17-.17,11.54,11.54a2.31,2.31,0,0,0-.21,1V218a2.34,2.34,0,0,0,2.34,2.34h.33a2.32,2.32,0,0,0,1-.21l36.59,36.59a2.31,2.31,0,0,0-.21,1V258a2.34,2.34,0,0,0,1.5,2.18V293h0L469.6,308.35a2.32,2.32,0,0,0-.44,0h-.33a2.34,2.34,0,0,0-2.34,2.34V311A2.33,2.33,0,0,0,466.54,311.41ZM378.82,115.8H379v-.18l.83-.83-.71-.71-.12.12V81.14a2.32,2.32,0,0,0,.84.16h.33A2.34,2.34,0,0,0,382.5,79v-.33a2.32,2.32,0,0,0-.88-1.81l32.92-32.92a2.32,2.32,0,0,0,1.29.39h.33A2.34,2.34,0,0,0,418.5,42v-.33a2.32,2.32,0,0,0-.39-1.29l14.06-14.06L444,38.16a2.31,2.31,0,0,0-.55,1.48V40a2.34,2.34,0,0,0,2.34,2.34h.33a2.31,2.31,0,0,0,1.48-.55l36,36a2.31,2.31,0,0,0-.17.86V79a2.33,2.33,0,0,0,1.5,2.17v32.94h0l-15.29,15.29a2.32,2.32,0,0,0-.55-.07h-.33a2.34,2.34,0,0,0-2.34,2.34V132a2.31,2.31,0,0,0,.07.54l-34.16,34.16a2.32,2.32,0,0,0-.41-.21V130.14a2.33,2.33,0,0,0,1.5-2.17v-.33a2.32,2.32,0,0,0-.19-.92l26.61-26.6a2.32,2.32,0,0,0,.92.19h.33A2.34,2.34,0,0,0,463.5,98v-.33a2.32,2.32,0,0,0-.19-.92l6.27-6.27-.71-.71-6.16,6.16a2.32,2.32,0,0,0-1.55-.6h-.33a2.34,2.34,0,0,0-2.34,2.34V98a2.32,2.32,0,0,0,.6,1.55L432.71,125.9a2.33,2.33,0,0,0-.71-.44V75.8h-1v49.5h-.16a2.32,2.32,0,0,0-1.69.74L401.2,98.1a2.31,2.31,0,0,0,.3-1.13v-.33a2.34,2.34,0,0,0-2.34-2.34h-.33a2.31,2.31,0,0,0-1.13.3l-4.36-4.36-.71.71L397,95.27a2.32,2.32,0,0,0-.45,1.37V97a2.34,2.34,0,0,0,2.34,2.34h.33a2.32,2.32,0,0,0,1.37-.45l28.08,28.08a2.3,2.3,0,0,0-.12.71V128a2.34,2.34,0,0,0,2.34,2.34H431v36h-.16a2.31,2.31,0,0,0-1.41.49l-36.06-36.06a2.31,2.31,0,0,0,.14-.76v-.33a2.34,2.34,0,0,0-2.34-2.34h-.33a2.31,2.31,0,0,0-.76.14L378.63,116ZM389.2,128a2.33,2.33,0,0,0-.7,1.66V130a2.34,2.34,0,0,0,2.34,2.34h.33a2.33,2.33,0,0,0,1.66-.7l36,36a2.31,2.31,0,0,0-.28,1.08V169a2.34,2.34,0,0,0,2.34,2.34H431v32.2l-.24.24.24.24v.93l-13.7,13.7a2.3,2.3,0,0,0-1.13-.31h-.33a2.34,2.34,0,0,0-2.34,2.34V221a2.31,2.31,0,0,0,.31,1.14l-33.24,33.24a2.33,2.33,0,0,0-.4,0h-.33a2.31,2.31,0,0,0-.84.16V219.3h.16A2.34,2.34,0,0,0,381.5,217v-.33a2.31,2.31,0,0,0-.25-1l27.55-27.55a2.31,2.31,0,0,0,1,.25h.33A2.34,2.34,0,0,0,412.5,186v-.33a2.31,2.31,0,0,0-.25-1l5.38-5.38-.71-.71-5.31,5.31a2.31,2.31,0,0,0-1.45-.52h-.33a2.34,2.34,0,0,0-2.34,2.34V186a2.31,2.31,0,0,0,.52,1.45l-27.41,27.4a2.31,2.31,0,0,0-1.45-.52H379V164.8h-1v49.66a2.33,2.33,0,0,0-.72.44l-28-28a2.32,2.32,0,0,0,.21-1v-.33a2.34,2.34,0,0,0-2.34-2.34h-.33a2.31,2.31,0,0,0-1,.21L341.39,179l-.71.71,4.39,4.39a2.32,2.32,0,0,0-.58,1.52V186a2.34,2.34,0,0,0,2.34,2.34h.33a2.32,2.32,0,0,0,1.52-.58l28,28a2.32,2.32,0,0,0-.19.91V217a2.33,2.33,0,0,0,1.5,2.17v37l-36.87-36.87a2.32,2.32,0,0,0,.37-1.26v-.33a2.34,2.34,0,0,0-2.34-2.34h-.33a2.32,2.32,0,0,0-1.26.37L325,203.1V171.3h.16A2.34,2.34,0,0,0,327.5,169v-.33a2.31,2.31,0,0,0-.33-1.18L360.65,134a2.31,2.31,0,0,0,1.18.33h.33A2.34,2.34,0,0,0,364.5,132v-.33a2.31,2.31,0,0,0-.33-1.18l13.75-13.75Zm-12,166.89-13.8,13.8a2.32,2.32,0,0,0-1.24-.37h-.33a2.34,2.34,0,0,0-2.34,2.34V311a2.32,2.32,0,0,0,.37,1.24l-33.46,33.46a2.31,2.31,0,0,0-1.24-.37H325V309.14a2.34,2.34,0,0,0,1.5-2.18v-.33s0-.07,0-.11l28.42-28.42a2.32,2.32,0,0,0,.93.19h.33A2.34,2.34,0,0,0,358.5,276v-.33a2.32,2.32,0,0,0-.19-.92l5.4-5.4-.71-.71-5.29,5.29a2.32,2.32,0,0,0-1.54-.6h-.33a2.34,2.34,0,0,0-2.34,2.34V276a2.32,2.32,0,0,0,.6,1.54l-27.94,27.93a2.34,2.34,0,0,0-1.16-1V254.8h-1v49.5h-.16a2.31,2.31,0,0,0-1,.21l-27.59-27.59a2.31,2.31,0,0,0,.21-1v-.33a2.34,2.34,0,0,0-2.34-2.34h-.33a2.31,2.31,0,0,0-1,.21l-4.4-4.4-.71.71,4.31,4.31a2.31,2.31,0,0,0-.57,1.51V276a2.34,2.34,0,0,0,2.34,2.34h.33a2.31,2.31,0,0,0,1.51-.57l27.39,27.4a2.32,2.32,0,0,0-.57,1.51V307a2.34,2.34,0,0,0,2.34,2.34H324v36.16a2.33,2.33,0,0,0-.43.22l-36.15-36.15a2.31,2.31,0,0,0,.08-.57v-.33a2.34,2.34,0,0,0-2.34-2.34h-.33a2.31,2.31,0,0,0-.57.08L271,293.13h0V260.3h.16A2.34,2.34,0,0,0,273.5,258v-.33a2.33,2.33,0,0,0-.68-1.64l33.37-33.37a2.33,2.33,0,0,0,1.64.68h.33A2.34,2.34,0,0,0,310.5,221v-.33a2.33,2.33,0,0,0-.68-1.64L324,204.82v1h1v-1.29l11.87,11.87a2.32,2.32,0,0,0-.37,1.26V218a2.34,2.34,0,0,0,2.34,2.34h.33a2.32,2.32,0,0,0,1.26-.37l37.16,37.15a2.31,2.31,0,0,0-.07.55V258a2.31,2.31,0,0,0,.5,1.43v34.68l-.08.08-1-1-.71.71ZM271,81.3h.16A2.34,2.34,0,0,0,273.5,79v-.33a2.32,2.32,0,0,0-.62-1.57l33.38-33.38a2.32,2.32,0,0,0,1.57.62h.33A2.34,2.34,0,0,0,310.5,42v-.33a2.32,2.32,0,0,0-.62-1.57L324.65,25.3l12.62,12.62a2.32,2.32,0,0,0-.77,1.72V40a2.34,2.34,0,0,0,2.34,2.34h.33a2.32,2.32,0,0,0,1.72-.77l36.66,36.66a2.33,2.33,0,0,0,0,.45V79a2.31,2.31,0,0,0,.5,1.43v34.81l-.08.08-1-1-.71.71,1,1-13.72,13.72a2.32,2.32,0,0,0-1.32-.42h-.33a2.34,2.34,0,0,0-2.34,2.34V132a2.32,2.32,0,0,0,.42,1.32l-33.43,33.43a2.32,2.32,0,0,0-1.32-.42H325V130.14a2.33,2.33,0,0,0,1.5-2.17v-.32l27.88-27.87a2.31,2.31,0,0,0,1.46.53h.33A2.34,2.34,0,0,0,358.5,98v-.33a2.31,2.31,0,0,0-.53-1.46l5.73-5.73-.71-.71-5.81,5.81a2.31,2.31,0,0,0-1-.25h-.33a2.34,2.34,0,0,0-2.34,2.34V98a2.31,2.31,0,0,0,.25,1l-27.54,27.54a2.34,2.34,0,0,0-1.21-1.06V75.8h-1v49.5h-.16a2.31,2.31,0,0,0-1,.26L295.24,98a2.31,2.31,0,0,0,.26-1v-.33a2.34,2.34,0,0,0-2.34-2.34h-.33a2.31,2.31,0,0,0-1,.26l-4.32-4.32-.71.71L291,95.2a2.31,2.31,0,0,0-.51,1.44V97a2.34,2.34,0,0,0,2.34,2.34h.33a2.31,2.31,0,0,0,1.44-.51L322,126.2a2.31,2.31,0,0,0-.51,1.44V128a2.34,2.34,0,0,0,2.34,2.34H324v36.16a2.32,2.32,0,0,0-.51.27l-36.1-36.1a2.3,2.3,0,0,0,.11-.67v-.33a2.34,2.34,0,0,0-2.34-2.34h-.33a2.3,2.3,0,0,0-.67.11L271,114.26h0Zm0,34.5v-.14l12.26,12.26a2.32,2.32,0,0,0-.76,1.72V130a2.34,2.34,0,0,0,2.34,2.34h.33a2.32,2.32,0,0,0,1.72-.76l35.94,35.94a2.31,2.31,0,0,0-.32,1.16V169a2.34,2.34,0,0,0,1.5,2.18V203.4l-15,15a2.31,2.31,0,0,0-.79-.15h-.33a2.34,2.34,0,0,0-2.34,2.34V221a2.31,2.31,0,0,0,.15.79L272,255.45a2.31,2.31,0,0,0-.79-.15H271V219.14a2.33,2.33,0,0,0,1.5-2.17v-.33a2.3,2.3,0,0,0-.11-.68l27.77-27.77a2.3,2.3,0,0,0,.68.11h.33A2.34,2.34,0,0,0,303.5,186v-.33a2.3,2.3,0,0,0-.11-.68l5.74-5.74-.71-.71-5.54,5.54a2.32,2.32,0,0,0-1.71-.76h-.33a2.34,2.34,0,0,0-2.34,2.34V186a2.32,2.32,0,0,0,.76,1.71l-27.38,27.38a2.33,2.33,0,0,0-.87-.59V164.8h-1v49.5h-.16a2.32,2.32,0,0,0-1.28.39l-27.44-27.44a2.32,2.32,0,0,0,.39-1.28v-.33a2.34,2.34,0,0,0-2.34-2.34h-.33a2.32,2.32,0,0,0-1.28.39L232.89,179l-.71.71,4.68,4.68a2.31,2.31,0,0,0-.36,1.23V186a2.34,2.34,0,0,0,2.34,2.34h.33a2.31,2.31,0,0,0,1.23-.36l27.46,27.46a2.31,2.31,0,0,0-.36,1.23V217a2.34,2.34,0,0,0,2.34,2.34H270v36.16a2.33,2.33,0,0,0-.71.43l-36.39-36.39a2.32,2.32,0,0,0,.59-1.54v-.33a2.34,2.34,0,0,0-2.34-2.34h-.33a2.32,2.32,0,0,0-1.54.59L217,203.6V171.14a2.34,2.34,0,0,0,1.5-2.18v-.33a2.32,2.32,0,0,0-.39-1.29l33.44-33.44a2.32,2.32,0,0,0,1.29.39h.33A2.34,2.34,0,0,0,255.5,132v-.33a2.32,2.32,0,0,0-.39-1.29L270,115.46v.34Zm-20.19,196.3L217.3,345.61a2.32,2.32,0,0,0-.3-.15V309.14a2.34,2.34,0,0,0,1.5-2.18v-.33a2.31,2.31,0,0,0-.25-1l27.33-27.33.25,0h.33A2.34,2.34,0,0,0,248.5,276v-.33a2.3,2.3,0,0,0,0-.25l6.07-6.07-.71-.71-5.73,5.73a2.33,2.33,0,0,0-1.94-1h-.33a2.34,2.34,0,0,0-2.34,2.34V276a2.33,2.33,0,0,0,1,1.94l-26.92,26.92a2.32,2.32,0,0,0-.62-.36V254.8h-1v49.5h-.16a2.33,2.33,0,0,0-1.65.69l-28-28a2.31,2.31,0,0,0,.27-1.07v-.33a2.34,2.34,0,0,0-2.34-2.34h-.33a2.31,2.31,0,0,0-1.07.27l-4.46-4.46-.71.71,4.4,4.4a2.31,2.31,0,0,0-.5,1.42V276a2.34,2.34,0,0,0,2.34,2.34h.33a2.31,2.31,0,0,0,1.42-.5l28.06,28.06a2.31,2.31,0,0,0-.14.78V307a2.34,2.34,0,0,0,2.34,2.34H216v36h-.16a2.32,2.32,0,0,0-1.36.45l-35.42-35.42a2.32,2.32,0,0,0,.45-1.36v-.33a2.34,2.34,0,0,0-2.34-2.34h-.33a2.32,2.32,0,0,0-1.36.45L162,293.28v-33h.16A2.34,2.34,0,0,0,164.5,258v-.33a2.32,2.32,0,0,0-.77-1.72l33.39-33.38a2.32,2.32,0,0,0,1.72.77h.33A2.34,2.34,0,0,0,201.5,221v-.33a2.32,2.32,0,0,0-.77-1.72l15.09-15.08.18.18v1.79h1V205l11.69,11.69a2.32,2.32,0,0,0-.19.93V218a2.34,2.34,0,0,0,2.34,2.34h.33a2.32,2.32,0,0,0,.93-.19l36.6,36.6a2.32,2.32,0,0,0-.19.93V258a2.34,2.34,0,0,0,1.5,2.18V293l0,0L254.3,308.61a2.31,2.31,0,0,0-1.14-.31h-.33a2.34,2.34,0,0,0-2.34,2.34V311A2.31,2.31,0,0,0,250.81,312.11ZM162,81.3h.16A2.34,2.34,0,0,0,164.5,79v-.33a2.33,2.33,0,0,0-.7-1.66l33.37-33.37a2.33,2.33,0,0,0,1.66.7h.33A2.34,2.34,0,0,0,201.5,42v-.33a2.33,2.33,0,0,0-.7-1.66l15-15L229,38.18a2.31,2.31,0,0,0-.53,1.46V40a2.34,2.34,0,0,0,2.34,2.34h.33a2.31,2.31,0,0,0,1.46-.53l36,36a2.31,2.31,0,0,0-.16.83V79a2.33,2.33,0,0,0,1.5,2.17v33l0,0-15.57,15.57a2.31,2.31,0,0,0-1.22-.35h-.33a2.34,2.34,0,0,0-2.34,2.34V132a2.31,2.31,0,0,0,.35,1.22l-33.47,33.47a2.31,2.31,0,0,0-.39-.19V130.14a2.33,2.33,0,0,0,1.5-2.17v-.33a2.31,2.31,0,0,0-.21-.95l26.59-26.59a2.31,2.31,0,0,0,.95.2h.33A2.34,2.34,0,0,0,248.5,98v-.33a2.32,2.32,0,0,0-.2-.95l6.25-6.25-.71-.71-6.15,6.15a2.31,2.31,0,0,0-1.53-.58h-.33a2.34,2.34,0,0,0-2.34,2.34V98a2.32,2.32,0,0,0,.58,1.53l-26.39,26.39a2.33,2.33,0,0,0-.69-.42V75.8h-1v49.5h-.16a2.32,2.32,0,0,0-1.71.76L186.18,98.12A2.31,2.31,0,0,0,186.5,97v-.33a2.34,2.34,0,0,0-2.34-2.34h-.33a2.31,2.31,0,0,0-1.15.32l-4.38-4.38-.71.71,4.34,4.34a2.32,2.32,0,0,0-.44,1.35V97a2.34,2.34,0,0,0,2.34,2.34h.33a2.32,2.32,0,0,0,1.35-.44l28.1,28.1a2.3,2.3,0,0,0-.11.68V128a2.34,2.34,0,0,0,2.34,2.34H216v36h-.16a2.31,2.31,0,0,0-1.43.51L179,131.4a2.31,2.31,0,0,0,.51-1.44v-.33a2.34,2.34,0,0,0-2.34-2.34h-.33a2.31,2.31,0,0,0-1.43.51L162,114.41Zm-.85,34.5H162l12.78,12.78a2.31,2.31,0,0,0-.26,1.05V130a2.34,2.34,0,0,0,2.34,2.34h.33a2.31,2.31,0,0,0,1.05-.26l35.55,35.55a2.31,2.31,0,0,0-.26,1.05V169a2.34,2.34,0,0,0,2.34,2.34H216v32.16h0l-.61-.61-15.55,15.55a2.3,2.3,0,0,0-.67-.11h-.33a2.34,2.34,0,0,0-2.34,2.34V221a2.31,2.31,0,0,0,.11.67l-33.78,33.78a2.31,2.31,0,0,0-.66-.11H162V219.14a2.33,2.33,0,0,0,1.5-2.17v-.33a2.31,2.31,0,0,0-.15-.8L191,188.15a2.31,2.31,0,0,0,.8.15h.33A2.34,2.34,0,0,0,194.5,186v-.33a2.31,2.31,0,0,0-.15-.8l5.61-5.61-.71-.71L193.8,184a2.33,2.33,0,0,0-1.63-.67h-.33a2.34,2.34,0,0,0-2.34,2.34V186a2.33,2.33,0,0,0,.67,1.63L162.8,215a2.34,2.34,0,0,0-.8-.51V164.8h-1v49.5h-.16a2.31,2.31,0,0,0-1.37.46L132,187.34a2.32,2.32,0,0,0,.46-1.37v-.33a2.34,2.34,0,0,0-2.34-2.34h-.33a2.31,2.31,0,0,0-1.37.46L123.73,179l-.71.71,4.78,4.78a2.31,2.31,0,0,0-.3,1.13V186a2.34,2.34,0,0,0,2.34,2.34h.33a2.31,2.31,0,0,0,1.13-.3l27.51,27.51a2.31,2.31,0,0,0-.3,1.13V217a2.34,2.34,0,0,0,2.34,2.34H161v36.16a2.34,2.34,0,0,0-.79.51L123.83,219.6a2.33,2.33,0,0,0,.67-1.63v-.33a2.34,2.34,0,0,0-2.34-2.34h-.33a2.33,2.33,0,0,0-1.63.67L108,203.77V171.3h.16A2.34,2.34,0,0,0,110.5,169v-.33a2.32,2.32,0,0,0-.62-1.57l33-33a2.31,2.31,0,0,0,1,.22h.33A2.34,2.34,0,0,0,146.5,132v-.33a2.31,2.31,0,0,0-.22-1Zm-55,51.25L69.46,130.37a2.32,2.32,0,0,0,0-.41v-.33a2.34,2.34,0,0,0-2.34-2.34h-.33a2.32,2.32,0,0,0-.41,0L53.34,114.26l-.34.34V81.14a2.31,2.31,0,0,0,.84.16h.33A2.34,2.34,0,0,0,56.5,79v-.33a2.33,2.33,0,0,0-1-1.89L88.45,43.83a2.31,2.31,0,0,0,1.39.47h.33A2.34,2.34,0,0,0,92.5,42v-.33A2.31,2.31,0,0,0,92,40.25l15-15,13,13a2.32,2.32,0,0,0-.46,1.37V40a2.34,2.34,0,0,0,2.34,2.34h.33a2.31,2.31,0,0,0,1.37-.46l36.08,36.08a2.3,2.3,0,0,0-.12.71V79a2.33,2.33,0,0,0,1.5,2.17v33.4l-15.33,15.33a2.31,2.31,0,0,0-1.51-.57h-.33a2.34,2.34,0,0,0-2.34,2.34V132a2.31,2.31,0,0,0,.57,1.51l-33,33a2.32,2.32,0,0,0-.89-.18H108V130.14a2.33,2.33,0,0,0,1.5-2.17v-.33a2.31,2.31,0,0,0-.08-.58l27.14-27.14a2.32,2.32,0,0,0,1.27.38h.33A2.34,2.34,0,0,0,140.5,98v-.33a2.32,2.32,0,0,0-.38-1.27L146,90.45l-.71-.71-5.93,5.93a2.31,2.31,0,0,0-1.24-.36h-.33a2.34,2.34,0,0,0-2.34,2.34V98a2.32,2.32,0,0,0,.36,1.24l-26.93,26.93a2.33,2.33,0,0,0-.93-.67V75.8h-1v49.5h-.16a2.31,2.31,0,0,0-1.45.52L78,98.42A2.31,2.31,0,0,0,78.5,97v-.33a2.34,2.34,0,0,0-2.34-2.34h-.33a2.31,2.31,0,0,0-1.45.52L69.8,90.25l-.71.71,4.66,4.66a2.31,2.31,0,0,0-.25,1V97a2.34,2.34,0,0,0,2.34,2.34h.33a2.31,2.31,0,0,0,1-.25l27.56,27.55a2.31,2.31,0,0,0-.25,1V128a2.34,2.34,0,0,0,2.34,2.34H107v36.16A2.33,2.33,0,0,0,106.14,167ZM106.2,346,69.47,309.25a2.29,2.29,0,0,0,0-.29v-.33a2.34,2.34,0,0,0-2.34-2.34h-.33l-.29,0L53.34,293.13l-.34.34V260.14a2.31,2.31,0,0,0,.84.16h.33A2.34,2.34,0,0,0,56.5,258v-.33a2.34,2.34,0,0,0-1-1.95l32.92-32.92a2.31,2.31,0,0,0,1.46.53h.33A2.34,2.34,0,0,0,92.5,221v-.33a2.31,2.31,0,0,0-.53-1.46l15-15,0,0v1.62h1v-.62l11.65,11.65a2.31,2.31,0,0,0-.15.81V218a2.34,2.34,0,0,0,2.34,2.34h.33a2.31,2.31,0,0,0,.81-.15l36.68,36.68a2.31,2.31,0,0,0-.15.81V258a2.34,2.34,0,0,0,1.5,2.18v33.27l-15.4,15.4a2.31,2.31,0,0,0-1.43-.51h-.33a2.34,2.34,0,0,0-2.34,2.34V311a2.31,2.31,0,0,0,.51,1.44l-33.05,33a2.31,2.31,0,0,0-.79-.15H108V309.14a2.34,2.34,0,0,0,1.5-2.18v-.33a2.3,2.3,0,0,0-.11-.68l27.77-27.77a2.3,2.3,0,0,0,.67.11h.33A2.34,2.34,0,0,0,140.5,276v-.33a2.3,2.3,0,0,0-.11-.67l5.65-5.65-.71-.71-5.45,5.45a2.32,2.32,0,0,0-1.71-.76h-.33a2.34,2.34,0,0,0-2.34,2.34V276a2.32,2.32,0,0,0,.76,1.71l-27.38,27.38a2.33,2.33,0,0,0-.88-.6V254.8h-1v49.5h-.16a2.31,2.31,0,0,0-1.38.46L78,277.35A2.31,2.31,0,0,0,78.5,276v-.33a2.34,2.34,0,0,0-2.34-2.34h-.33a2.31,2.31,0,0,0-1.38.46l-4.65-4.65-.71.71,4.7,4.7a2.31,2.31,0,0,0-.3,1.12V276a2.34,2.34,0,0,0,2.34,2.34h.33a2.31,2.31,0,0,0,1.12-.3l27.52,27.52a2.31,2.31,0,0,0-.3,1.12V307a2.34,2.34,0,0,0,2.34,2.34H107v36.16A2.34,2.34,0,0,0,106.2,346ZM161,473.59l-15.3,15.3a2.32,2.32,0,0,0-1.54-.59h-.33a2.34,2.34,0,0,0-2.34,2.34V491a2.32,2.32,0,0,0,.59,1.54l-33,33a2.32,2.32,0,0,0-.93-.2H108V489.14a2.34,2.34,0,0,0,1.5-2.18v-.33a2.32,2.32,0,0,0-.07-.54l27.17-27.16a2.31,2.31,0,0,0,1.24.36h.33A2.34,2.34,0,0,0,140.5,457v-.33a2.32,2.32,0,0,0-.36-1.24l5.9-5.9-.71-.71-5.89,5.89a2.32,2.32,0,0,0-1.27-.38h-.33a2.34,2.34,0,0,0-2.34,2.34V457a2.32,2.32,0,0,0,.38,1.27L109,485.16a2.33,2.33,0,0,0-1-.7V434.8h-1v49.5h-.16a2.31,2.31,0,0,0-1.48.55L78,457.45A2.31,2.31,0,0,0,78.5,456v-.33a2.34,2.34,0,0,0-2.34-2.34h-.33a2.31,2.31,0,0,0-1.48.55L69.8,449.3l-.71.71,4.64,4.64a2.31,2.31,0,0,0-.23,1V456a2.34,2.34,0,0,0,2.34,2.34h.33a2.31,2.31,0,0,0,1-.23l27.57,27.57a2.31,2.31,0,0,0-.23,1V487a2.34,2.34,0,0,0,2.34,2.34H107v36.16a2.33,2.33,0,0,0-.89.61L69.45,489.42a2.33,2.33,0,0,0,0-.45v-.33a2.34,2.34,0,0,0-2.34-2.34h-.33a2.34,2.34,0,0,0-.45,0l-13-13-.34.34V440.14a2.31,2.31,0,0,0,.84.16h.33A2.34,2.34,0,0,0,56.5,438v-.33a2.33,2.33,0,0,0-.94-1.86l32.92-32.92a2.32,2.32,0,0,0,1.36.45h.33A2.34,2.34,0,0,0,92.5,401v-.33a2.32,2.32,0,0,0-.45-1.36L107,384.35l0,0v.44h.44l12.49,12.49a2.32,2.32,0,0,0-.43,1.34V399a2.34,2.34,0,0,0,2.34,2.34h.33a2.32,2.32,0,0,0,1.34-.43l36.1,36.1a2.3,2.3,0,0,0-.11.67V438a2.33,2.33,0,0,0,1.5,2.17Zm0-128.79v49.5h-.16a2.31,2.31,0,0,0-1.47.54L132,367.44a2.31,2.31,0,0,0,.54-1.47v-.33a2.34,2.34,0,0,0-2.34-2.34h-.33a2.31,2.31,0,0,0-1.47.54l-4.64-4.64-.71.71,4.72,4.72a2.31,2.31,0,0,0-.24,1V366a2.34,2.34,0,0,0,2.34,2.34h.33a2.31,2.31,0,0,0,1-.24l27.57,27.57a2.31,2.31,0,0,0-.24,1V397a2.34,2.34,0,0,0,2.34,2.34H161v36.16a2.33,2.33,0,0,0-.88.6l-35.94-35.94a2.31,2.31,0,0,0,.32-1.16v-.33a2.34,2.34,0,0,0-2.34-2.34h-.33a2.31,2.31,0,0,0-1.16.32L108,384V350.3h.16A2.34,2.34,0,0,0,110.5,348v-.33a2.33,2.33,0,0,0-.68-1.64l33-33a2.3,2.3,0,0,0,1.05.26h.33A2.34,2.34,0,0,0,146.5,311v-.33a2.31,2.31,0,0,0-.26-1.05L161,294.8h1v-.11l12.81,12.81a2.31,2.31,0,0,0-.31,1.14V309a2.34,2.34,0,0,0,2.34,2.34h.33a2.31,2.31,0,0,0,1.14-.31l35.51,35.51a2.31,2.31,0,0,0-.31,1.14V348a2.34,2.34,0,0,0,2.34,2.34H216v33.35h0l-.61-.61L200,398.46a2.31,2.31,0,0,0-.81-.15h-.33a2.34,2.34,0,0,0-2.34,2.34V401a2.31,2.31,0,0,0,.15.81L163,435.46a2.31,2.31,0,0,0-.81-.15H162V399.14a2.34,2.34,0,0,0,1.5-2.18v-.33a2.3,2.3,0,0,0-.11-.66l27.1-27.1a2.32,2.32,0,0,0,1.34.43h.33A2.34,2.34,0,0,0,194.5,367v-.33a2.32,2.32,0,0,0-.43-1.34l5.89-5.89-.71-.71-5.93,5.93a2.31,2.31,0,0,0-1.16-.32h-.33a2.34,2.34,0,0,0-2.34,2.34V367a2.31,2.31,0,0,0,.32,1.16l-26.94,26.94a2.33,2.33,0,0,0-.88-.61V344.8ZM270,473.18l0,0-15.54,15.54a2.32,2.32,0,0,0-1.26-.37h-.33a2.34,2.34,0,0,0-2.34,2.34V491a2.32,2.32,0,0,0,.37,1.26l-33.45,33.45a2.32,2.32,0,0,0-.42-.21V489.14a2.34,2.34,0,0,0,1.5-2.18v-.33a2.32,2.32,0,0,0-.19-.91l26.61-26.61a2.32,2.32,0,0,0,.91.19h.33A2.34,2.34,0,0,0,248.5,457v-.33a2.32,2.32,0,0,0-.19-.91l6.23-6.23-.71-.71-6.12,6.12a2.32,2.32,0,0,0-1.56-.61h-.33a2.34,2.34,0,0,0-2.34,2.34V457a2.32,2.32,0,0,0,.61,1.56l-26.39,26.39a2.33,2.33,0,0,0-.72-.44V434.8h-1v49.5h-.16a2.32,2.32,0,0,0-1.74.79l-27.94-27.94a2.31,2.31,0,0,0,.34-1.19v-.33a2.34,2.34,0,0,0-2.34-2.34h-.33a2.31,2.31,0,0,0-1.19.34l-4.34-4.34-.71.71,4.31,4.31a2.32,2.32,0,0,0-.41,1.32V456a2.34,2.34,0,0,0,2.34,2.34h.33a2.32,2.32,0,0,0,1.32-.41L213.6,486a2.3,2.3,0,0,0-.1.64V487a2.34,2.34,0,0,0,2.34,2.34H216v36h-.16a2.31,2.31,0,0,0-1.46.53L179,490.43a2.31,2.31,0,0,0,.53-1.46v-.33a2.34,2.34,0,0,0-2.34-2.34h-.33a2.31,2.31,0,0,0-1.46.53L162,473.46V440.3h.16A2.34,2.34,0,0,0,164.5,438v-.33a2.33,2.33,0,0,0-.67-1.63l33.37-33.37a2.33,2.33,0,0,0,1.63.67h.33A2.34,2.34,0,0,0,201.5,401v-.33a2.33,2.33,0,0,0-.67-1.63l15-15,.18.18v.6h.6l12.4,12.4a2.31,2.31,0,0,0-.5,1.43V399a2.34,2.34,0,0,0,2.34,2.34h.33a2.31,2.31,0,0,0,1.43-.5l36.05,36.05a2.31,2.31,0,0,0-.15.79V438a2.33,2.33,0,0,0,1.5,2.17Zm0-128.37v49.5h-.16a2.31,2.31,0,0,0-1.39.47L241,367.35a2.31,2.31,0,0,0,.47-1.38v-.33a2.34,2.34,0,0,0-2.34-2.34h-.33a2.31,2.31,0,0,0-1.39.47l-4.56-4.56-.71.71,4.61,4.61a2.31,2.31,0,0,0-.29,1.11V366a2.34,2.34,0,0,0,2.34,2.34h.33a2.31,2.31,0,0,0,1.11-.3l27.52,27.52a2.31,2.31,0,0,0-.3,1.11V397a2.34,2.34,0,0,0,2.34,2.34H270v36.16a2.34,2.34,0,0,0-.81.52l-36-36a2.31,2.31,0,0,0,.26-1.06v-.33a2.34,2.34,0,0,0-2.34-2.34h-.33a2.3,2.3,0,0,0-1.06.26L217,383.79V350.14a2.33,2.33,0,0,0,1.5-2.17v-.33a2.31,2.31,0,0,0-.45-1.36l33.42-33.42a2.32,2.32,0,0,0,1.36.45h.33A2.34,2.34,0,0,0,255.5,311v-.33a2.32,2.32,0,0,0-.45-1.36L270,294.33v.48h1v-.27l12.34,12.34a2.32,2.32,0,0,0-.84,1.78V309a2.34,2.34,0,0,0,2.34,2.34h.33a2.32,2.32,0,0,0,1.78-.84l35.93,35.93a2.32,2.32,0,0,0-.37,1.24V348a2.33,2.33,0,0,0,1.5,2.17v33.45L309.09,398.5a2.32,2.32,0,0,0-.93-.19h-.33a2.34,2.34,0,0,0-2.34,2.34V401a2.32,2.32,0,0,0,.19.93l-33.6,33.6a2.32,2.32,0,0,0-.93-.19H271V399.14a2.34,2.34,0,0,0,1.5-2.18v-.33a2.32,2.32,0,0,0-.07-.54l27.16-27.16a2.32,2.32,0,0,0,1.24.37h.33A2.34,2.34,0,0,0,303.5,367v-.33a2.31,2.31,0,0,0-.37-1.24l6-6-.71-.71-6,6a2.32,2.32,0,0,0-1.27-.38h-.33a2.34,2.34,0,0,0-2.34,2.34V367a2.32,2.32,0,0,0,.38,1.27L272,395.16a2.33,2.33,0,0,0-1-.7V344.8ZM378,474.26l-.08.08-1-1-.71.71,1,1-13.69,13.69a2.32,2.32,0,0,0-1.35-.44h-.33a2.34,2.34,0,0,0-2.34,2.34V491a2.32,2.32,0,0,0,.44,1.35l-33.42,33.42a2.32,2.32,0,0,0-1.35-.44H325V489.14a2.34,2.34,0,0,0,1.5-2.18v-.26l27.91-27.91a2.31,2.31,0,0,0,1.43.5h.33A2.34,2.34,0,0,0,358.5,457v-.33a2.31,2.31,0,0,0-.5-1.43l5.71-5.71-.71-.71-5.78,5.78a2.31,2.31,0,0,0-1.06-.27h-.33a2.34,2.34,0,0,0-2.34,2.34V457a2.31,2.31,0,0,0,.27,1.06l-27.54,27.54a2.34,2.34,0,0,0-1.23-1.1V434.8h-1v49.5h-.16a2.31,2.31,0,0,0-1.08.28l-27.53-27.53a2.31,2.31,0,0,0,.28-1.08v-.33a2.34,2.34,0,0,0-2.34-2.34h-.33a2.31,2.31,0,0,0-1.08.28l-4.28-4.28-.71.71,4.22,4.22a2.31,2.31,0,0,0-.49,1.41V456a2.34,2.34,0,0,0,2.34,2.34h.33a2.31,2.31,0,0,0,1.41-.49L322,485.23a2.31,2.31,0,0,0-.49,1.41V487a2.34,2.34,0,0,0,2.34,2.34H324v36.16a2.33,2.33,0,0,0-.54.3l-36.08-36.08a2.3,2.3,0,0,0,.12-.71v-.33a2.34,2.34,0,0,0-2.34-2.34h-.33a2.3,2.3,0,0,0-.71.12L271,473.31h0v-33h.16A2.34,2.34,0,0,0,273.5,438v-.33a2.32,2.32,0,0,0-.6-1.54l33.39-33.39a2.32,2.32,0,0,0,1.54.6h.33A2.34,2.34,0,0,0,310.5,401v-.33a2.32,2.32,0,0,0-.6-1.54L324.2,384.8h.8v-.11l12.24,12.24a2.32,2.32,0,0,0-.74,1.7V399a2.34,2.34,0,0,0,2.34,2.34h.33a2.32,2.32,0,0,0,1.7-.74l36.68,36.68a2.32,2.32,0,0,0,0,.4V438a2.31,2.31,0,0,0,.5,1.43Zm0-79.8a2.34,2.34,0,0,0-.82.53l-28-28a2.31,2.31,0,0,0,.27-1.07v-.33a2.34,2.34,0,0,0-2.34-2.34h-.33a2.31,2.31,0,0,0-1.07.27l-4.37-4.37-.71.71,4.31,4.31a2.31,2.31,0,0,0-.49,1.42V366a2.34,2.34,0,0,0,2.34,2.34h.33a2.31,2.31,0,0,0,1.42-.49l28.06,28.06a2.31,2.31,0,0,0-.14.77V397a2.34,2.34,0,0,0,1.5,2.18v37.07l0,0-36.59-36.59a2.3,2.3,0,0,0,.12-.7v-.33a2.34,2.34,0,0,0-2.34-2.34h-.33a2.3,2.3,0,0,0-.7.12L325,383.28v-33h.16A2.34,2.34,0,0,0,327.5,348v-.33a2.32,2.32,0,0,0-.38-1.27l33.45-33.45a2.32,2.32,0,0,0,1.27.38h.33A2.34,2.34,0,0,0,364.5,311v-.33a2.32,2.32,0,0,0-.38-1.27l13.8-13.8,11.35,11.35a2.32,2.32,0,0,0-.77,1.72V309a2.34,2.34,0,0,0,2.34,2.34h.33a2.32,2.32,0,0,0,1.72-.77l35.94,35.94a2.31,2.31,0,0,0-.32,1.16V348a2.34,2.34,0,0,0,2.34,2.34H431v33.38l-.24.24.24.24v.64h.29l-13.87,13.87a2.32,2.32,0,0,0-1.25-.37h-.33a2.34,2.34,0,0,0-2.34,2.34V401a2.32,2.32,0,0,0,.37,1.25l-33.16,33.16a2.31,2.31,0,0,0-.55-.07h-.33a2.31,2.31,0,0,0-.84.16V399.3h.16A2.34,2.34,0,0,0,381.5,397v-.33a2.32,2.32,0,0,0-.19-.92l27-27a2.32,2.32,0,0,0,1.52.58h.33A2.34,2.34,0,0,0,412.5,367v-.33a2.32,2.32,0,0,0-.58-1.52l5.71-5.71-.71-.71-5.81,5.81a2.32,2.32,0,0,0-.95-.21h-.33a2.34,2.34,0,0,0-2.34,2.34V367a2.31,2.31,0,0,0,.21.95l-27,27a2.32,2.32,0,0,0-1.55-.6H379V344.8h-1Zm107,78.68h0l-15.25,15.25a2.31,2.31,0,0,0-.59-.08h-.33a2.34,2.34,0,0,0-2.34,2.34V491a2.31,2.31,0,0,0,.08.59l-34.14,34.14a2.32,2.32,0,0,0-.45-.23V489.14a2.34,2.34,0,0,0,1.5-2.18v-.33a2.32,2.32,0,0,0-.18-.88L460,459.13a2.32,2.32,0,0,0,.88.18h.33A2.34,2.34,0,0,0,463.5,457v-.33a2.32,2.32,0,0,0-.18-.88l6.26-6.26-.71-.71-6.13,6.13a2.32,2.32,0,0,0-1.58-.62h-.33a2.34,2.34,0,0,0-2.34,2.34V457a2.32,2.32,0,0,0,.62,1.58l-26.38,26.38a2.33,2.33,0,0,0-.74-.46V434.8h-1v49.5h-.16a2.32,2.32,0,0,0-1.72.77l-27.94-27.94a2.31,2.31,0,0,0,.32-1.16v-.33a2.34,2.34,0,0,0-2.34-2.34h-.33a2.31,2.31,0,0,0-1.16.32l-4.33-4.33-.71.71,4.29,4.29a2.32,2.32,0,0,0-.43,1.34V456a2.34,2.34,0,0,0,2.34,2.34h.33a2.32,2.32,0,0,0,1.34-.43l28.1,28.1a2.31,2.31,0,0,0-.11.66V487a2.34,2.34,0,0,0,2.34,2.34H431v36h-.16a2.31,2.31,0,0,0-1.44.51l-36-36a2.31,2.31,0,0,0,.15-.81v-.33a2.34,2.34,0,0,0-2.34-2.34h-.33a2.31,2.31,0,0,0-.81.15l-11.41-11.41.25-.25H379v-.13l.83-.83-.71-.71-.12.12V440.14a2.31,2.31,0,0,0,.84.16h.33A2.34,2.34,0,0,0,382.5,438v-.33a2.32,2.32,0,0,0-.85-1.78l32.93-32.93a2.32,2.32,0,0,0,1.26.37h.33A2.34,2.34,0,0,0,418.5,401v-.33a2.32,2.32,0,0,0-.37-1.26l14-14L444,397.19a2.31,2.31,0,0,0-.52,1.45V399a2.34,2.34,0,0,0,2.34,2.34h.33a2.31,2.31,0,0,0,1.45-.52l36,36a2.31,2.31,0,0,0-.16.82V438a2.33,2.33,0,0,0,1.5,2.17Zm0-128.34v49.5h-.16a2.32,2.32,0,0,0-1.36.45l-27.42-27.42a2.32,2.32,0,0,0,.45-1.36v-.33a2.34,2.34,0,0,0-2.34-2.34h-.33a2.32,2.32,0,0,0-1.36.45l-4.54-4.54-.71.71,4.59,4.59a2.31,2.31,0,0,0-.31,1.14V366a2.34,2.34,0,0,0,2.34,2.34h.33a2.31,2.31,0,0,0,1.14-.31l27.51,27.51a2.31,2.31,0,0,0-.31,1.14V397a2.34,2.34,0,0,0,2.34,2.34H485v36.16a2.34,2.34,0,0,0-.79.5l-36-36a2.31,2.31,0,0,0,.25-1v-.33a2.34,2.34,0,0,0-2.34-2.34h-.33a2.31,2.31,0,0,0-1,.25l-11.93-11.93.88-.87L433,383l-.87.88-.17-.17V350.14a2.33,2.33,0,0,0,1.5-2.17v-.33a2.32,2.32,0,0,0-.43-1.34L467,312.38a2.33,2.33,0,0,0,1.85.93h.33A2.34,2.34,0,0,0,471.5,311v-.33a2.33,2.33,0,0,0-.93-1.85L485,294.37v.44h1v-.31l12.88,12.88a2.32,2.32,0,0,0-.38,1.27V309a2.34,2.34,0,0,0,2.34,2.34h.33a2.32,2.32,0,0,0,1.27-.38l35.45,35.45a2.32,2.32,0,0,0-.38,1.27V348a2.34,2.34,0,0,0,2.34,2.34H540v32.94l0,0-.11.11-.28-.28-15.46,15.46a2.31,2.31,0,0,0-1-.21h-.33a2.34,2.34,0,0,0-2.34,2.34V401a2.32,2.32,0,0,0,.21,1l-33.59,33.59a2.32,2.32,0,0,0-1-.21H486V399.14a2.34,2.34,0,0,0,1.5-2.18v-.33a2.32,2.32,0,0,0-.06-.51L514.62,369a2.31,2.31,0,0,0,1.22.35h.33A2.34,2.34,0,0,0,518.5,367v-.33a2.31,2.31,0,0,0-.35-1.22l6-6-.71-.71-6,6a2.32,2.32,0,0,0-1.3-.39h-.33a2.34,2.34,0,0,0-2.34,2.34V367a2.32,2.32,0,0,0,.39,1.29L487,395.18a2.33,2.33,0,0,0-1-.72V344.8ZM593,474.3l-14.46,14.46a2.32,2.32,0,0,0-1.38-.46h-.33a2.34,2.34,0,0,0-2.34,2.34V491a2.31,2.31,0,0,0,.46,1.38l-33.42,33.42a2.31,2.31,0,0,0-.54-.3V489.14a2.34,2.34,0,0,0,1.5-2.18v-.33a2.31,2.31,0,0,0-.14-.76l27.06-27.06a2.31,2.31,0,0,0,1.41.49h.33A2.34,2.34,0,0,0,573.5,457v-.33a2.31,2.31,0,0,0-.49-1.41l5.73-5.73-.71-.71-5.79,5.79a2.31,2.31,0,0,0-1.08-.28h-.33a2.34,2.34,0,0,0-2.34,2.34V457a2.3,2.3,0,0,0,.28,1.08l-27,27a2.34,2.34,0,0,0-.83-.54V434.8h-1v49.5h-.16a2.33,2.33,0,0,0-1.64.68l-28-28a2.3,2.3,0,0,0,.27-1.06v-.33a2.34,2.34,0,0,0-2.34-2.34h-.33a2.31,2.31,0,0,0-1.06.27l-4.27-4.27-.71.71,4.2,4.2a2.31,2.31,0,0,0-.5,1.43V456a2.34,2.34,0,0,0,2.34,2.34h.33a2.31,2.31,0,0,0,1.43-.5l28.05,28.05a2.31,2.31,0,0,0-.15.79V487a2.34,2.34,0,0,0,2.34,2.34H540v36h-.16a2.32,2.32,0,0,0-1.35.44l-35.42-35.42a2.32,2.32,0,0,0,.44-1.35v-.33a2.34,2.34,0,0,0-2.34-2.34h-.33a2.32,2.32,0,0,0-1.35.44L486,473.31l0,0V440.3h.16A2.34,2.34,0,0,0,488.5,438v-.33a2.31,2.31,0,0,0-.58-1.52l33.39-33.39a2.32,2.32,0,0,0,1.52.58h.33A2.34,2.34,0,0,0,525.5,401v-.33a2.32,2.32,0,0,0-.58-1.52l14.77-14.77.31.31v.14h.14l12.12,12.12a2.32,2.32,0,0,0-.76,1.72V399a2.34,2.34,0,0,0,2.34,2.34h.33a2.32,2.32,0,0,0,1.72-.76l35.94,35.94a2.31,2.31,0,0,0-.32,1.16V438a2.33,2.33,0,0,0,1.5,2.17Zm0-129.5v49.5h-.16a2.31,2.31,0,0,0-1,.26L564.24,367a2.3,2.3,0,0,0,.26-1v-.33a2.34,2.34,0,0,0-2.34-2.34h-.33a2.31,2.31,0,0,0-1,.26l-4.36-4.36-.71.71L560,364.2a2.31,2.31,0,0,0-.51,1.44V366a2.34,2.34,0,0,0,2.34,2.34h.33a2.31,2.31,0,0,0,1.44-.51L591,395.2a2.31,2.31,0,0,0-.51,1.44V397a2.34,2.34,0,0,0,2.34,2.34H593v36.16a2.32,2.32,0,0,0-.51.27l-36.1-36.1a2.3,2.3,0,0,0,.11-.67v-.33a2.34,2.34,0,0,0-2.34-2.34h-.33a2.3,2.3,0,0,0-.67.11L541,384.25v-34.1a2.33,2.33,0,0,0,1.5-2.17v-.33a2.32,2.32,0,0,0-.37-1.24l33.46-33.46a2.31,2.31,0,0,0,1.24.37h.33A2.34,2.34,0,0,0,579.5,311v-.33a2.32,2.32,0,0,0-.37-1.24l14.59-14.59H594v-.27l.27-.27,12.83,12.83a2.32,2.32,0,0,0-.6,1.55V309a2.34,2.34,0,0,0,2.34,2.34h.33a2.32,2.32,0,0,0,1.55-.6l36,36a2.31,2.31,0,0,0-.21.95V348a2.33,2.33,0,0,0,1.5,2.17v33l-15.56,15.56a2.32,2.32,0,0,0-1.28-.39h-.33a2.34,2.34,0,0,0-2.34,2.34V401a2.32,2.32,0,0,0,.39,1.28l-33.44,33.44a2.32,2.32,0,0,0-1.28-.38H594V399.14a2.34,2.34,0,0,0,1.5-2.18v-.33s0,0,0-.06l27.84-27.84a2.31,2.31,0,0,0,1.5.56h.33A2.34,2.34,0,0,0,627.5,367v-.33a2.31,2.31,0,0,0-.56-1.5l5.73-5.73-.71-.71-5.82,5.82a2.31,2.31,0,0,0-1-.22h-.33a2.34,2.34,0,0,0-2.34,2.34V367a2.31,2.31,0,0,0,.22,1l-27.54,27.54a2.34,2.34,0,0,0-1.18-1V344.8ZM703,473.47l-.33-.33-15.44,15.44a2.31,2.31,0,0,0-1.07-.27h-.33a2.34,2.34,0,0,0-2.34,2.34V491a2.31,2.31,0,0,0,.27,1.07l-33.54,33.54a2.31,2.31,0,0,0-1.07-.27H649v-36h.16A2.34,2.34,0,0,0,651.5,487v-.33a2.31,2.31,0,0,0-.29-1.1L677.73,459a2.31,2.31,0,0,0,1.1.29h.33A2.34,2.34,0,0,0,681.5,457v-.33a2.31,2.31,0,0,0-.29-1.1l6-6-.71-.71-6,6a2.31,2.31,0,0,0-1.39-.47h-.33a2.34,2.34,0,0,0-2.34,2.34V457a2.31,2.31,0,0,0,.47,1.39l-26.42,26.41a2.31,2.31,0,0,0-1.39-.47H649V434.8h-1v49.66a2.34,2.34,0,0,0-1,.79l-28.59-28.59a2.3,2.3,0,0,0,.12-.7v-.33a2.34,2.34,0,0,0-2.34-2.34h-.33a2.3,2.3,0,0,0-.7.12L611,449.3l-.71.71,3.94,3.93a2.32,2.32,0,0,0-.74,1.7V456a2.34,2.34,0,0,0,2.34,2.34h.33a2.32,2.32,0,0,0,1.7-.74l28.68,28.68a2.32,2.32,0,0,0,0,.4V487a2.34,2.34,0,0,0,1.5,2.18v36.32a2.34,2.34,0,0,0-.79.5l-36-36a2.31,2.31,0,0,0,.25-1v-.33a2.34,2.34,0,0,0-2.34-2.34h-.33a2.31,2.31,0,0,0-1,.25l-13.25-13.25-.11.11-.28-.28-.16.16v-33h.16A2.34,2.34,0,0,0,596.5,438v-.33a2.31,2.31,0,0,0-.36-1.23l33.46-33.46a2.31,2.31,0,0,0,1.23.36h.33A2.34,2.34,0,0,0,633.5,401v-.33a2.31,2.31,0,0,0-.36-1.23L648,384.55v.26h1v-.31l12.35,12.35a2.32,2.32,0,0,0-.85,1.79V399a2.34,2.34,0,0,0,2.34,2.34h.33a2.32,2.32,0,0,0,1.79-.85l36.62,36.62a2.31,2.31,0,0,0-.08.57V438a2.33,2.33,0,0,0,1.5,2.17Zm0-128.67v49.5h-.16a2.32,2.32,0,0,0-1.55.6L673.9,367.51a2.32,2.32,0,0,0,.6-1.55v-.33a2.34,2.34,0,0,0-2.34-2.34h-.33a2.32,2.32,0,0,0-1.55.6l-4.69-4.69-.71.71,4.8,4.8a2.32,2.32,0,0,0-.19.92V366a2.34,2.34,0,0,0,2.34,2.34h.33a2.32,2.32,0,0,0,.92-.19l27.61,27.61a2.32,2.32,0,0,0-.19.92V397a2.34,2.34,0,0,0,2.34,2.34H703v36.16a2.33,2.33,0,0,0-.94.68l-36.63-36.63a2.31,2.31,0,0,0,.07-.54v-.33a2.34,2.34,0,0,0-2.34-2.34h-.33a2.31,2.31,0,0,0-.54.07l-13.16-13.16-.14.14V350.3h.16A2.34,2.34,0,0,0,651.5,348v-.33a2.31,2.31,0,0,0-.58-1.52l33.39-33.39a2.32,2.32,0,0,0,1.53.58h.33A2.34,2.34,0,0,0,688.5,311v-.33a2.32,2.32,0,0,0-.58-1.53L703,294v.77h1l12.2,12.2a2.33,2.33,0,0,0-.68,1.64V309a2.34,2.34,0,0,0,2.34,2.34h.33a2.33,2.33,0,0,0,1.64-.68l36,36a2.31,2.31,0,0,0-.26,1.05V348a2.34,2.34,0,0,0,2.34,2.34H758v33.27l-.36-.36-.11.11-.28-.28-15.71,15.71a2.32,2.32,0,0,0-1.37-.45h-.33a2.34,2.34,0,0,0-2.34,2.34V401a2.32,2.32,0,0,0,.45,1.37l-33.08,33.08a2.31,2.31,0,0,0-.71-.12H704V399.14a2.34,2.34,0,0,0,1.5-2.18v-.33a2.31,2.31,0,0,0-.14-.76l27.06-27.06a2.31,2.31,0,0,0,1.41.49h.33A2.34,2.34,0,0,0,736.5,367v-.33a2.31,2.31,0,0,0-.49-1.41l5.82-5.82-.71-.71-5.88,5.88a2.31,2.31,0,0,0-1.08-.28h-.33a2.34,2.34,0,0,0-2.34,2.34V367a2.3,2.3,0,0,0,.28,1.08l-27,27a2.34,2.34,0,0,0-.82-.54V344.8Zm67.1,52.29a2.32,2.32,0,0,0-.6,1.55V399a2.34,2.34,0,0,0,2.34,2.34h.33a2.32,2.32,0,0,0,1.55-.6l36,36a2.32,2.32,0,0,0-.2.94V438a2.33,2.33,0,0,0,1.5,2.17V474l-14.66,14.66a2.31,2.31,0,0,0-1.17-.33h-.33a2.34,2.34,0,0,0-2.34,2.34V491a2.31,2.31,0,0,0,.33,1.17l-33.49,33.49a2.3,2.3,0,0,0-.34-.17V489.14a2.34,2.34,0,0,0,1.5-2.18v-.33a2.31,2.31,0,0,0-.23-1l26.57-26.57a2.31,2.31,0,0,0,1,.23h.33A2.34,2.34,0,0,0,790.5,457v-.33a2.31,2.31,0,0,0-.23-1l6.14-6.14-.71-.71-6.06,6.06a2.31,2.31,0,0,0-1.48-.55h-.33a2.34,2.34,0,0,0-2.34,2.34V457a2.31,2.31,0,0,0,.55,1.48l-26.4,26.4a2.33,2.33,0,0,0-.65-.39V434.8h-1v49.5h-.16a2.32,2.32,0,0,0-1.8.86l-27.92-27.92a2.32,2.32,0,0,0,.38-1.27v-.33a2.34,2.34,0,0,0-2.34-2.34h-.33a2.32,2.32,0,0,0-1.27.38l-4.39-4.39-.71.71,4.39,4.39a2.31,2.31,0,0,0-.36,1.24V456a2.34,2.34,0,0,0,2.34,2.34h.33a2.32,2.32,0,0,0,1.24-.36l28.17,28.17a2.32,2.32,0,0,0-.07.54V487a2.34,2.34,0,0,0,2.34,2.34H758v36h-.16a2.32,2.32,0,0,0-1.54.59l-36-36a2.32,2.32,0,0,0,.2-.93v-.33a2.34,2.34,0,0,0-2.34-2.34h-.33a2.32,2.32,0,0,0-.93.2L704,473.59V440.3h.16A2.34,2.34,0,0,0,706.5,438v-.33a2.32,2.32,0,0,0-.74-1.69L738.71,403a2.31,2.31,0,0,0,1.13.3h.33A2.34,2.34,0,0,0,742.5,401v-.33a2.31,2.31,0,0,0-.3-1.13l15.16-15.16ZM811,293.78l-14.78,14.78a2.3,2.3,0,0,0-1.05-.26h-.33a2.34,2.34,0,0,0-2.34,2.34V311a2.31,2.31,0,0,0,.26,1.05l-33.55,33.55-.22-.1V309.14a2.34,2.34,0,0,0,1.5-2.18v-.33a2.31,2.31,0,0,0-.3-1.12l27.26-27.26a2.3,2.3,0,0,0,.37,0h.33A2.34,2.34,0,0,0,790.5,276v-.33a2.32,2.32,0,0,0,0-.37l6-6-.71-.71L790,274.27a2.33,2.33,0,0,0-1.88-1h-.33a2.34,2.34,0,0,0-2.34,2.34V276a2.33,2.33,0,0,0,1,1.88l-26.92,26.92a2.32,2.32,0,0,0-.55-.3V254.8h-1v49.5h-.16a2.32,2.32,0,0,0-1.71.76l-27.94-27.94a2.31,2.31,0,0,0,.32-1.15v-.33a2.34,2.34,0,0,0-2.34-2.34h-.33a2.31,2.31,0,0,0-1.15.32l-4.51-4.51-.71.71,4.47,4.47a2.32,2.32,0,0,0-.44,1.35V276a2.34,2.34,0,0,0,2.34,2.34h.33a2.32,2.32,0,0,0,1.35-.44l28.1,28.1a2.3,2.3,0,0,0-.11.68V307a2.34,2.34,0,0,0,2.34,2.34H758v36h-.16a2.31,2.31,0,0,0-1.43.51l-36-36a2.31,2.31,0,0,0,.15-.79v-.33a2.34,2.34,0,0,0-2.34-2.34h-.33a2.31,2.31,0,0,0-.79.15l-13-13V260.3h.16A2.34,2.34,0,0,0,706.5,258v-.33a2.32,2.32,0,0,0-.84-1.78l32.93-32.93a2.31,2.31,0,0,0,1.25.37h.33A2.34,2.34,0,0,0,742.5,221v-.33a2.32,2.32,0,0,0-.37-1.25l15.23-15.23.64.64v1h1l10.77,10.77a2.31,2.31,0,0,0-.27,1.07V218a2.34,2.34,0,0,0,2.34,2.34h.33a2.31,2.31,0,0,0,1.06-.27l36.54,36.54a2.31,2.31,0,0,0-.27,1.07V258a2.34,2.34,0,0,0,1.5,2.18Z" style="fill:#e8e8e8"/><path d="M865.75,566.68,850,582.46a2.31,2.31,0,0,0-.81-.15h-.33a2.34,2.34,0,0,0-2.34,2.34V585a2.31,2.31,0,0,0,.15.81L813,619.46a2.31,2.31,0,0,0-.81-.15H812V582.14a2.33,2.33,0,0,0,1.5-2.17v-.09l27-27a2.32,2.32,0,0,0,1.34.43h.33A2.34,2.34,0,0,0,844.5,551v-.33a2.32,2.32,0,0,0-.43-1.34l6.26-6.26-.71-.71-6.29,6.29a2.31,2.31,0,0,0-1.17-.33h-.33a2.34,2.34,0,0,0-2.34,2.34V551a2.31,2.31,0,0,0,.33,1.17l-26.54,26.54a2.34,2.34,0,0,0-1.29-1.21V528.8h-1v48.5h-.16a2.32,2.32,0,0,0-1.62.66l-27-27a2.31,2.31,0,0,0,.25-1v-.33a2.34,2.34,0,0,0-2.34-2.34h-.33a2.31,2.31,0,0,0-1,.25l-4.71-4.71-.71.71,4.63,4.63a2.31,2.31,0,0,0-.53,1.46V550a2.34,2.34,0,0,0,2.34,2.34h.33a2.31,2.31,0,0,0,1.46-.53l27,27a2.31,2.31,0,0,0-.16.83V580a2.34,2.34,0,0,0,2.34,2.34H811v37.16a2.33,2.33,0,0,0-.49.26L774.4,583.61a2.3,2.3,0,0,0,.1-.64v-.33a2.34,2.34,0,0,0-2.34-2.34h-.33a2.31,2.31,0,0,0-.64.1l-13.55-13.55-.11.11-.28-.28-15.94,15.94a2.31,2.31,0,0,0-1.15-.31h-.33a2.34,2.34,0,0,0-2.34,2.34V585a2.31,2.31,0,0,0,.31,1.15l-33.23,33.23a2.34,2.34,0,0,0-.42,0H704V582.14a2.33,2.33,0,0,0,1.5-2.17v-.33a2.28,2.28,0,0,0,0-.24l26.75-26.75a2.33,2.33,0,0,0,1.61.65h.33A2.34,2.34,0,0,0,736.5,551v-.33a2.32,2.32,0,0,0-.65-1.61l6-6-.71-.71L735,548.46a2.31,2.31,0,0,0-.83-.16h-.33a2.34,2.34,0,0,0-2.34,2.34V551a2.31,2.31,0,0,0,.16.83l-26.55,26.55a2.34,2.34,0,0,0-1.11-.88V528.8h-1v48.5h-.16a2.33,2.33,0,0,0-1.85.93l-26.92-26.92a2.32,2.32,0,0,0,.43-1.35v-.33a2.34,2.34,0,0,0-2.34-2.34h-.33a2.32,2.32,0,0,0-1.35.43l-4.9-4.9-.71.71,4.93,4.93a2.31,2.31,0,0,0-.32,1.16V550a2.34,2.34,0,0,0,2.34,2.34h.33a2.31,2.31,0,0,0,1.16-.32l27.22,27.22a2.33,2.33,0,0,0,0,.44V580a2.34,2.34,0,0,0,2.34,2.34H703v37.16a2.34,2.34,0,0,0-.77.48l-36.76-36.76a2.27,2.27,0,0,0,0-.23v-.33a2.34,2.34,0,0,0-2.34-2.34h-.33l-.23,0-13.47-13.47-.44.44-.61-.61-15.88,15.88a2.31,2.31,0,0,0-1-.26h-.33a2.34,2.34,0,0,0-2.34,2.34V585a2.31,2.31,0,0,0,.26,1l-33.55,33.55a2.31,2.31,0,0,0-1-.26H594V582.14a2.33,2.33,0,0,0,1.47-1.91l27.67-27.67a2.32,2.32,0,0,0,1.69.74h.33A2.34,2.34,0,0,0,627.5,551v-.33a2.33,2.33,0,0,0-.74-1.69l5.9-5.9-.71-.71-6.09,6.09a2.3,2.3,0,0,0-.71-.12h-.33a2.34,2.34,0,0,0-2.34,2.34V551a2.31,2.31,0,0,0,.12.71l-27.25,27.25a2.33,2.33,0,0,0-1.37-1.45V528.8h-1v48.5h-.16a2.31,2.31,0,0,0-1.43.51l-27-27a2.31,2.31,0,0,0,.15-.79v-.33a2.34,2.34,0,0,0-2.34-2.34h-.33a2.31,2.31,0,0,0-.79.15l-4.61-4.61-.71.71,4.45,4.45a2.33,2.33,0,0,0-.68,1.64V550a2.34,2.34,0,0,0,2.34,2.34h.33a2.33,2.33,0,0,0,1.64-.68l27,27a2.31,2.31,0,0,0-.26,1.05V580a2.34,2.34,0,0,0,2.34,2.34H593v37.16l-.28.14-36.26-36.26a2.32,2.32,0,0,0,0-.38v-.33a2.34,2.34,0,0,0-2.34-2.34h-.33a2.31,2.31,0,0,0-.37,0L540,566.85l-.11.11-.28-.28-15.74,15.74a2.31,2.31,0,0,0-.68-.11h-.33a2.34,2.34,0,0,0-2.34,2.34V585a2.3,2.3,0,0,0,.11.68l-33.77,33.77a2.3,2.3,0,0,0-.68-.11H486V582.14a2.33,2.33,0,0,0,1.5-2.17v-.26l26.9-26.9a2.31,2.31,0,0,0,1.43.5h.33A2.34,2.34,0,0,0,518.5,551v-.33a2.31,2.31,0,0,0-.5-1.43l6.17-6.17-.71-.71-6.23,6.23a2.31,2.31,0,0,0-1.06-.27h-.33a2.34,2.34,0,0,0-2.34,2.34V551a2.31,2.31,0,0,0,.27,1.06l-26.54,26.54a2.34,2.34,0,0,0-1.23-1.1V528.8h-1v48.5h-.16a2.32,2.32,0,0,0-1.7.75l-26.94-26.94a2.31,2.31,0,0,0,.31-1.14v-.33a2.34,2.34,0,0,0-2.34-2.34h-.33a2.31,2.31,0,0,0-1.14.31l-4.77-4.77-.71.71,4.73,4.73a2.32,2.32,0,0,0-.45,1.36V550a2.34,2.34,0,0,0,2.34,2.34h.33a2.31,2.31,0,0,0,1.36-.45l27.09,27.09a2.3,2.3,0,0,0-.12.69V580a2.34,2.34,0,0,0,2.34,2.34H485v37.16a2.32,2.32,0,0,0-.59.33l-36.06-36.06a2.31,2.31,0,0,0,.14-.78v-.33a2.34,2.34,0,0,0-2.34-2.34h-.33a2.31,2.31,0,0,0-.78.14l-12.18-12.18.88-.88-.71-.71-.88.88-.7-.7-.71.71.7.7-14.28,14.28a2.31,2.31,0,0,0-1-.24h-.33a2.34,2.34,0,0,0-2.34,2.34V585a2.31,2.31,0,0,0,.24,1L380.4,619.33l-.24,0h-.33a2.31,2.31,0,0,0-.84.16V582.3h.16A2.34,2.34,0,0,0,381.5,580v-.33a2.32,2.32,0,0,0,0-.43l26.67-26.67a2.32,2.32,0,0,0,1.71.76h.33A2.34,2.34,0,0,0,412.5,551v-.33a2.32,2.32,0,0,0-.76-1.71l5.89-5.89-.71-.71-6.08,6.08a2.3,2.3,0,0,0-.68-.11h-.33a2.34,2.34,0,0,0-2.34,2.34V551a2.31,2.31,0,0,0,.11.68L381,578.24a2.33,2.33,0,0,0-1.86-.93H379V528.8h-1v48.66a2.34,2.34,0,0,0-1.1.88l-27.55-27.55a2.31,2.31,0,0,0,.16-.82v-.33a2.34,2.34,0,0,0-2.34-2.34h-.33a2.31,2.31,0,0,0-.82.16l-4.62-4.62-.71.71,4.47,4.47a2.33,2.33,0,0,0-.66,1.62V550a2.34,2.34,0,0,0,2.34,2.34h.33a2.32,2.32,0,0,0,1.62-.66l27.74,27.74a2.29,2.29,0,0,0,0,.25V580a2.33,2.33,0,0,0,1.5,2.17v37.78l-36.54-36.54a2.32,2.32,0,0,0,0-.41v-.33a2.34,2.34,0,0,0-2.34-2.34h-.33a2.31,2.31,0,0,0-.41,0l-13.49-13.49-.11.11-.28-.28-15.73,15.73a2.31,2.31,0,0,0-.65-.1h-.33a2.34,2.34,0,0,0-2.34,2.34V585a2.3,2.3,0,0,0,.1.65l-33.79,33.79a2.3,2.3,0,0,0-.65-.1H271V582.14a2.33,2.33,0,0,0,1.5-2.17v-.3l26.88-26.88a2.31,2.31,0,0,0,1.45.52h.33A2.34,2.34,0,0,0,303.5,551v-.33a2.31,2.31,0,0,0-.52-1.45l6.15-6.15-.71-.71-6.22,6.22a2.31,2.31,0,0,0-1-.25h-.33a2.34,2.34,0,0,0-2.34,2.34V551a2.31,2.31,0,0,0,.25,1l-26.54,26.54a2.34,2.34,0,0,0-1.21-1.07V528.8h-1v48.5h-.16a2.32,2.32,0,0,0-1.72.77l-26.94-26.94a2.31,2.31,0,0,0,.32-1.16v-.33a2.34,2.34,0,0,0-2.34-2.34h-.33a2.31,2.31,0,0,0-1.16.32l-4.78-4.78-.71.71,4.75,4.75a2.32,2.32,0,0,0-.43,1.34V550a2.34,2.34,0,0,0,2.34,2.34h.33a2.32,2.32,0,0,0,1.34-.43l27.1,27.1a2.3,2.3,0,0,0-.11.67V580a2.34,2.34,0,0,0,2.34,2.34H270v37.16a2.33,2.33,0,0,0-.61.35l-36-36a2.31,2.31,0,0,0,.15-.81v-.33a2.34,2.34,0,0,0-2.34-2.34h-.33a2.31,2.31,0,0,0-.8.15l-13.6-13.6-.44.44-.61-.61-15.69,15.69a2.32,2.32,0,0,0-.53-.07h-.33a2.34,2.34,0,0,0-2.34,2.34V585a2.32,2.32,0,0,0,.07.53l-33.87,33.87a2.32,2.32,0,0,0-.53-.07H162V582.14a2.33,2.33,0,0,0,1.5-2.17v-.33s0-.08,0-.12l26.81-26.81a2.32,2.32,0,0,0,1.54.6h.33A2.34,2.34,0,0,0,194.5,551v-.33a2.32,2.32,0,0,0-.6-1.54L200,543l-.71-.71-6.16,6.16a2.32,2.32,0,0,0-.93-.19h-.33a2.34,2.34,0,0,0-2.34,2.34V551a2.32,2.32,0,0,0,.19.93l-26.54,26.54a2.34,2.34,0,0,0-1.15-1V528.8h-1v48.5h-.16a2.32,2.32,0,0,0-1.79.86l-26.92-26.92a2.32,2.32,0,0,0,.38-1.27v-.33a2.34,2.34,0,0,0-2.34-2.34h-.33a2.32,2.32,0,0,0-1.27.38l-4.84-4.84-.71.71,4.85,4.85a2.32,2.32,0,0,0-.37,1.24V550a2.34,2.34,0,0,0,2.34,2.34h.33a2.31,2.31,0,0,0,1.24-.37l27.16,27.16a2.31,2.31,0,0,0-.07.54V580a2.34,2.34,0,0,0,2.34,2.34H161v37.16a2.33,2.33,0,0,0-.7.43l-36-36a2.32,2.32,0,0,0,.19-.93v-.33a2.34,2.34,0,0,0-2.34-2.34h-.33a2.32,2.32,0,0,0-.93.19l-13.64-13.64-.11.11-.28-.28L91.07,582.49a2.32,2.32,0,0,0-.9-.18h-.33a2.34,2.34,0,0,0-2.34,2.34V585a2.32,2.32,0,0,0,.18.9L54.24,619.31h-.41a2.31,2.31,0,0,0-.84.16V582.3h.16A2.34,2.34,0,0,0,55.5,580v-.33a2.31,2.31,0,0,0-.08-.57L82,552.45a2.32,2.32,0,0,0,1.79.85h.33A2.34,2.34,0,0,0,86.5,551v-.33a2.32,2.32,0,0,0-.85-1.79L91.46,543l-.71-.71-6,6a2.31,2.31,0,0,0-.55-.07h-.33a2.34,2.34,0,0,0-2.34,2.34V551a2.31,2.31,0,0,0,.07.55L54.94,578.14a2.32,2.32,0,0,0-1.78-.84H53V528.8H52v48.66a2.34,2.34,0,0,0-1.17,1L23.29,550.92a2.32,2.32,0,0,0,.21-.95v-.33a2.34,2.34,0,0,0-2.34-2.34h-.33a2.32,2.32,0,0,0-.95.21l-4.67-4.67-.71.71,4.57,4.57a2.32,2.32,0,0,0-.58,1.53V550a2.34,2.34,0,0,0,2.34,2.34h.33a2.32,2.32,0,0,0,1.52-.58l27.82,27.82s0,.06,0,.1V580a2.33,2.33,0,0,0,1.5,2.17v37.95L15.43,583.52a2.31,2.31,0,0,0,.07-.55v-.33a2.34,2.34,0,0,0-2.34-2.34h-.33a2.31,2.31,0,0,0-.55.07L-1.24,566.85l-.71.71,13.29,13.29a2.32,2.32,0,0,0-.85,1.79V583a2.34,2.34,0,0,0,2.34,2.34h.33a2.32,2.32,0,0,0,1.79-.85l36.63,36.63a2.31,2.31,0,0,0-.08.56V622a2.31,2.31,0,0,0,.5,1.43v33.67l-15.6,15.6a2.31,2.31,0,0,0-1.24-.36h-.33a2.34,2.34,0,0,0-2.34,2.34V675a2.31,2.31,0,0,0,.36,1.24L-.6,709.67a2.32,2.32,0,0,0-1.24-.36H-2v-36h.16A2.34,2.34,0,0,0,.5,671v-.33a2.32,2.32,0,0,0-.2-.93l27-27a2.32,2.32,0,0,0,1.54.59h.33A2.34,2.34,0,0,0,31.5,641v-.33a2.32,2.32,0,0,0-.59-1.54l6-6-.71-.71-6.07,6.07a2.32,2.32,0,0,0-.93-.2h-.33a2.34,2.34,0,0,0-2.34,2.34V641a2.32,2.32,0,0,0,.2.93l-27,27a2.32,2.32,0,0,0-1.54-.59H-2V618.8H-3v49.66a2.32,2.32,0,0,0-.54.29l-28.09-28.09a2.3,2.3,0,0,0,.12-.71v-.33a2.34,2.34,0,0,0-2.34-2.34h-.33a2.31,2.31,0,0,0-.71.12l-4.49-4.49-.71.71,4.31,4.31a2.33,2.33,0,0,0-.74,1.69V640a2.34,2.34,0,0,0,2.34,2.34h.33a2.32,2.32,0,0,0,1.69-.74L-4.2,669.51a2.31,2.31,0,0,0-.3,1.13V671A2.34,2.34,0,0,0-3,673.14v36.32l-.21.09L-38.76,674a2.31,2.31,0,0,0,.26-1v-.33a2.34,2.34,0,0,0-2.34-2.34h-.33a2.31,2.31,0,0,0-1,.26l-13.61-13.61-.71.71L-43,671.19a2.31,2.31,0,0,0-.52,1.44V673a2.34,2.34,0,0,0,2.34,2.34h.33a2.31,2.31,0,0,0,1.45-.52L-4,710.19a2.31,2.31,0,0,0-.52,1.44V712A2.33,2.33,0,0,0-3,714.14V748.8h1V714.3h.16A2.34,2.34,0,0,0,.5,712v-.33a2.32,2.32,0,0,0-.38-1.28l33.44-33.44a2.32,2.32,0,0,0,1.28.38h.33A2.34,2.34,0,0,0,37.5,675v-.33a2.32,2.32,0,0,0-.38-1.28L52,658.48v.33h1V658l12.63,12.63a2.33,2.33,0,0,0-1.13,2V673a2.34,2.34,0,0,0,2.34,2.34h.33a2.33,2.33,0,0,0,2-1.13l36.54,36.54a2.32,2.32,0,0,0-.19.93V712a2.33,2.33,0,0,0,1.5,2.17V748.8h1V714.3h.16A2.34,2.34,0,0,0,110.5,712v-.33a2.32,2.32,0,0,0-.77-1.72L142.66,677a2.31,2.31,0,0,0,1.17.33h.33A2.34,2.34,0,0,0,146.5,675v-.33a2.31,2.31,0,0,0-.33-1.17L161,658.64v.16h1v-.29l12.87,12.87a2.32,2.32,0,0,0-.37,1.26V673a2.34,2.34,0,0,0,2.34,2.34h.33a2.32,2.32,0,0,0,1.26-.37l35.45,35.45a2.32,2.32,0,0,0-.37,1.26V712a2.34,2.34,0,0,0,2.34,2.34H216v34.5h1V714.14a2.33,2.33,0,0,0,1.5-2.17v-.33a2.31,2.31,0,0,0-.53-1.46l33.4-33.4a2.31,2.31,0,0,0,1.46.53h.33A2.34,2.34,0,0,0,255.5,675v-.33a2.31,2.31,0,0,0-.53-1.46l15-15v.66h1v-.46l12.43,12.43a2.33,2.33,0,0,0-.93,1.86V673a2.34,2.34,0,0,0,2.34,2.34h.33a2.33,2.33,0,0,0,1.86-.93l35.92,35.92a2.32,2.32,0,0,0-.44,1.35V712a2.33,2.33,0,0,0,1.5,2.17V748.8h1V714.3h.16A2.34,2.34,0,0,0,327.5,712v-.33a2.31,2.31,0,0,0-.46-1.37l33.42-33.42a2.31,2.31,0,0,0,1.37.46h.33A2.34,2.34,0,0,0,364.5,675v-.33a2.32,2.32,0,0,0-.46-1.37l13.87-13.88,11.45,11.45a2.32,2.32,0,0,0-.87,1.8V673a2.34,2.34,0,0,0,2.34,2.34h.33a2.32,2.32,0,0,0,1.8-.87l35.92,35.92a2.32,2.32,0,0,0-.39,1.28V712a2.34,2.34,0,0,0,2.34,2.34H431v34.5h1V714.14a2.33,2.33,0,0,0,1.5-2.17v-.33a2.31,2.31,0,0,0-.51-1.44l33.92-33.92a2.34,2.34,0,0,0,1.93,1h.33A2.34,2.34,0,0,0,471.5,675v-.33a2.34,2.34,0,0,0-1-1.93L485,658.18v.62h1v-.49l13,13a2.31,2.31,0,0,0-.46,1.37V673a2.34,2.34,0,0,0,2.34,2.34h.33a2.31,2.31,0,0,0,1.37-.46L538,710.27a2.31,2.31,0,0,0-.46,1.37V712a2.34,2.34,0,0,0,2.34,2.34H540v34.5h1V714.14a2.33,2.33,0,0,0,1.5-2.17v-.33a2.32,2.32,0,0,0-.44-1.35l33.42-33.42a2.32,2.32,0,0,0,1.35.44h.33A2.34,2.34,0,0,0,579.5,675v-.33a2.32,2.32,0,0,0-.44-1.35l14.48-14.48H594v-.46l.27-.27L607.18,671a2.33,2.33,0,0,0-.68,1.65V673a2.34,2.34,0,0,0,2.34,2.34h.33a2.33,2.33,0,0,0,1.65-.68l36,36a2.3,2.3,0,0,0-.27,1.07V712a2.33,2.33,0,0,0,1.5,2.17V748.8h1V714.3h.16A2.34,2.34,0,0,0,651.5,712v-.33a2.32,2.32,0,0,0-.66-1.62l33.38-33.38a2.33,2.33,0,0,0,1.62.66h.33A2.34,2.34,0,0,0,688.5,675v-.33a2.33,2.33,0,0,0-.66-1.62L703,657.85v1h1v-.16l12.27,12.27a2.32,2.32,0,0,0-.77,1.72V673a2.34,2.34,0,0,0,2.34,2.34h.33a2.32,2.32,0,0,0,1.72-.77l35.94,35.94a2.31,2.31,0,0,0-.33,1.17V712a2.34,2.34,0,0,0,2.34,2.34H758v34.5h1V714.14a2.33,2.33,0,0,0,1.5-2.17v-.33a2.32,2.32,0,0,0-.59-1.53l33.39-33.39a2.32,2.32,0,0,0,1.53.59h.33A2.34,2.34,0,0,0,797.5,675v-.33a2.32,2.32,0,0,0-.59-1.54l14.3-14.3H812V658l.54-.54-.54-.54V624.3h.16A2.34,2.34,0,0,0,814.5,622v-.33a2.33,2.33,0,0,0-.66-1.63l33.37-33.37a2.33,2.33,0,0,0,1.63.66h.33A2.34,2.34,0,0,0,851.5,585v-.33a2.33,2.33,0,0,0-.66-1.63l15.63-15.63ZM161,657.23l-15.5,15.5a2.32,2.32,0,0,0-1.34-.42h-.33a2.34,2.34,0,0,0-2.34,2.34V675a2.32,2.32,0,0,0,.42,1.34l-33.11,33.11a2.31,2.31,0,0,0-.66-.1H108V673.14a2.34,2.34,0,0,0,1.5-2.18v-.33a2.31,2.31,0,0,0-.15-.81l27-27a2.31,2.31,0,0,0,1.45.52h.33A2.34,2.34,0,0,0,140.5,641v-.33a2.31,2.31,0,0,0-.52-1.45l6.06-6.06-.71-.71-6.13,6.13a2.31,2.31,0,0,0-1-.25h-.33a2.34,2.34,0,0,0-2.34,2.34V641a2.31,2.31,0,0,0,.25,1l-27,27a2.34,2.34,0,0,0-.79-.5V618.8h-1v49.5h-.16a2.32,2.32,0,0,0-1.28.39L78.11,641.25A2.32,2.32,0,0,0,78.5,640v-.33a2.34,2.34,0,0,0-2.34-2.34h-.33a2.32,2.32,0,0,0-1.28.39l-4.76-4.76-.71.71,4.77,4.77a2.32,2.32,0,0,0-.36,1.23V640a2.34,2.34,0,0,0,2.34,2.34h.33a2.31,2.31,0,0,0,1.23-.36l27.46,27.46a2.32,2.32,0,0,0-.36,1.23V671a2.34,2.34,0,0,0,2.34,2.34H107v36.16a2.33,2.33,0,0,0-.7.43L69.49,673.09s0-.08,0-.12v-.33a2.34,2.34,0,0,0-2.34-2.34h-.45L53.34,656.95l-.34.34V624.14a2.31,2.31,0,0,0,.84.16h.33A2.34,2.34,0,0,0,56.5,622v-.33a2.33,2.33,0,0,0-1.16-2l32.94-32.94a2.32,2.32,0,0,0,1.56.61h.33A2.34,2.34,0,0,0,92.5,585v-.33a2.32,2.32,0,0,0-.61-1.56L107,568,120.1,581.1a2.32,2.32,0,0,0-.6,1.54V583a2.34,2.34,0,0,0,2.34,2.34h.33a2.32,2.32,0,0,0,1.54-.6l36,36a2.32,2.32,0,0,0-.2.94V622a2.34,2.34,0,0,0,1.5,2.18Zm109-.42,0,0-15.78,15.78a2.31,2.31,0,0,0-1-.24h-.33a2.34,2.34,0,0,0-2.34,2.34V675a2.31,2.31,0,0,0,.24,1l-33.56,33.56-.18-.08V673.14a2.34,2.34,0,0,0,1.5-2.18v-.33a2.31,2.31,0,0,0-.31-1.15l26.5-26.5a2.31,2.31,0,0,0,1.15.31h.33A2.34,2.34,0,0,0,248.5,641v-.33a2.31,2.31,0,0,0-.31-1.15l6.36-6.36-.71-.71-6.32,6.32a2.32,2.32,0,0,0-1.35-.44h-.33a2.34,2.34,0,0,0-2.34,2.34V641a2.32,2.32,0,0,0,.44,1.35l-26.42,26.42a2.31,2.31,0,0,0-.52-.28V618.8h-1v49.5h-.16a2.32,2.32,0,0,0-1.55.61l-28-28a2.32,2.32,0,0,0,.21-1v-.33a2.34,2.34,0,0,0-2.34-2.34h-.33a2.32,2.32,0,0,0-1,.21l-4.58-4.58-.71.71,4.48,4.48a2.32,2.32,0,0,0-.58,1.52V640a2.34,2.34,0,0,0,2.34,2.34h.33a2.32,2.32,0,0,0,1.52-.58l28,28a2.32,2.32,0,0,0-.19.91V671a2.34,2.34,0,0,0,2.34,2.34H216v36h-.16a2.32,2.32,0,0,0-1.26.37l-35.45-35.45a2.32,2.32,0,0,0,.37-1.26v-.33a2.34,2.34,0,0,0-2.34-2.34h-.33a2.32,2.32,0,0,0-1.26.37L162,657.1V624.3h.16A2.34,2.34,0,0,0,164.5,622v-.33a2.32,2.32,0,0,0-.87-1.8l33.4-33.4a2.32,2.32,0,0,0,1.8.87h.33A2.34,2.34,0,0,0,201.5,585v-.33a2.32,2.32,0,0,0-.87-1.8l15.18-15.18L229.17,581a2.33,2.33,0,0,0-.67,1.63V583a2.34,2.34,0,0,0,2.34,2.34h.33a2.33,2.33,0,0,0,1.63-.67l36,36a2.31,2.31,0,0,0-.26,1V622a2.34,2.34,0,0,0,1.5,2.18Zm108,1.08-.08.08-1-1-.71.71,1,1-13.92,13.92a2.31,2.31,0,0,0-1.13-.3h-.33a2.34,2.34,0,0,0-2.34,2.34V675a2.31,2.31,0,0,0,.3,1.13l-33.51,33.51a2.31,2.31,0,0,0-1.13-.3H325V673.14a2.34,2.34,0,0,0,1.5-2.18v-.33a2.28,2.28,0,0,0,0-.27l27.73-27.73a2.33,2.33,0,0,0,1.63.67h.33A2.34,2.34,0,0,0,358.5,641v-.33a2.33,2.33,0,0,0-.67-1.63l5.87-5.87-.71-.71-6,6a2.31,2.31,0,0,0-.81-.15h-.33a2.34,2.34,0,0,0-2.34,2.34V641a2.31,2.31,0,0,0,.15.81L326.1,669.33a2.35,2.35,0,0,0-1.1-.86V618.8h-1v49.5h-.16a2.31,2.31,0,0,0-.83.16L295.34,640.8a2.31,2.31,0,0,0,.16-.84v-.33a2.34,2.34,0,0,0-2.34-2.34h-.33a2.31,2.31,0,0,0-.83.16l-4.53-4.53-.71.71,4.39,4.39a2.33,2.33,0,0,0-.65,1.61V640a2.34,2.34,0,0,0,2.34,2.34h.33a2.32,2.32,0,0,0,1.61-.65L322.15,669a2.32,2.32,0,0,0-.65,1.61V671a2.34,2.34,0,0,0,2.34,2.34H324v36.16a2.29,2.29,0,0,0-.31.15l-36.23-36.23a2.33,2.33,0,0,0,0-.42v-.33a2.34,2.34,0,0,0-2.34-2.34h-.33a2.32,2.32,0,0,0-.42,0L271,656.95h0V624.3h.16A2.34,2.34,0,0,0,273.5,622v-.33a2.32,2.32,0,0,0-.78-1.73l33.39-33.39a2.32,2.32,0,0,0,1.73.78h.33A2.34,2.34,0,0,0,310.5,585v-.33a2.32,2.32,0,0,0-.78-1.73L324.65,568l12.79,12.79a2.33,2.33,0,0,0-.94,1.86V583a2.34,2.34,0,0,0,2.34,2.34h.33a2.33,2.33,0,0,0,1.86-.94l36.59,36.59a2.3,2.3,0,0,0-.12.69V622a2.31,2.31,0,0,0,.5,1.43Zm107-1.12h0l-15.56,15.56-.28,0h-.33a2.34,2.34,0,0,0-2.34,2.34V675a2.29,2.29,0,0,0,0,.28l-34.32,34.32-.21-.1V673.14a2.34,2.34,0,0,0,1.5-2.18v-.33a2.31,2.31,0,0,0-.3-1.12L459.71,643a2.31,2.31,0,0,0,1.12.3h.33A2.34,2.34,0,0,0,463.5,641v-.33a2.31,2.31,0,0,0-.3-1.12l6.38-6.38-.71-.71-6.34,6.33a2.32,2.32,0,0,0-1.38-.46h-.33a2.34,2.34,0,0,0-2.34,2.34V641a2.32,2.32,0,0,0,.46,1.38l-26.42,26.42a2.31,2.31,0,0,0-.54-.3V618.8h-1v49.5h-.16a2.32,2.32,0,0,0-1.53.59l-28-28a2.32,2.32,0,0,0,.19-.93v-.33a2.34,2.34,0,0,0-2.34-2.34h-.33a2.32,2.32,0,0,0-.93.19l-4.56-4.56-.71.71,4.46,4.46a2.32,2.32,0,0,0-.6,1.54V640a2.34,2.34,0,0,0,2.34,2.34h.33a2.32,2.32,0,0,0,1.54-.6l28,28a2.32,2.32,0,0,0-.2.94V671a2.34,2.34,0,0,0,2.34,2.34H431v36h-.16a2.31,2.31,0,0,0-1.23.36l-36.17-36.17a2.32,2.32,0,0,0,.06-.53v-.33a2.34,2.34,0,0,0-2.34-2.34h-.33a2.32,2.32,0,0,0-.53.06L378.75,658.8H379v-.49l.83-.83-.71-.71-.12.12V624.14a2.31,2.31,0,0,0,.84.16h.33A2.34,2.34,0,0,0,382.5,622v-.33a2.34,2.34,0,0,0-1.05-1.95l32.92-32.92a2.31,2.31,0,0,0,1.47.53h.33A2.34,2.34,0,0,0,418.5,585v-.33a2.31,2.31,0,0,0-.53-1.47l14.2-14.2,12,12a2.33,2.33,0,0,0-.69,1.65V583a2.34,2.34,0,0,0,2.34,2.34h.33a2.33,2.33,0,0,0,1.65-.69l36,36a2.31,2.31,0,0,0-.27,1.07V622a2.34,2.34,0,0,0,1.5,2.18Zm108,1.16-14.69,14.68a2.31,2.31,0,0,0-1.15-.32h-.33a2.34,2.34,0,0,0-2.34,2.34V675a2.31,2.31,0,0,0,.32,1.15l-33.5,33.5a2.31,2.31,0,0,0-.31-.15V673.14a2.34,2.34,0,0,0,1.5-2.18v-.33a2.31,2.31,0,0,0-.24-1l27-27a2.33,2.33,0,0,0,1.61.65h.33A2.34,2.34,0,0,0,573.5,641v-.33a2.32,2.32,0,0,0-.65-1.61l5.9-5.9-.71-.71-6,6a2.32,2.32,0,0,0-.84-.16h-.33a2.34,2.34,0,0,0-2.34,2.34V641a2.31,2.31,0,0,0,.16.83l-27,27a2.32,2.32,0,0,0-.63-.37V618.8h-1v49.5h-.16a2.31,2.31,0,0,0-1.44.51l-28-28a2.31,2.31,0,0,0,.15-.81v-.33a2.34,2.34,0,0,0-2.34-2.34h-.33a2.31,2.31,0,0,0-.81.15l-4.52-4.52-.71.71,4.37,4.37a2.33,2.33,0,0,0-.67,1.63V640a2.34,2.34,0,0,0,2.34,2.34h.33a2.33,2.33,0,0,0,1.63-.67l28,28a2.31,2.31,0,0,0-.26,1V671a2.34,2.34,0,0,0,2.34,2.34H540v36h-.16a2.31,2.31,0,0,0-1.13.3L503.2,674.09a2.31,2.31,0,0,0,.3-1.13v-.33a2.34,2.34,0,0,0-2.34-2.34h-.33a2.31,2.31,0,0,0-1.13.3L486,656.95l0,0V624.3h.16A2.34,2.34,0,0,0,488.5,622v-.33a2.32,2.32,0,0,0-.76-1.71l33.38-33.38a2.32,2.32,0,0,0,1.71.76h.33A2.34,2.34,0,0,0,525.5,585v-.33a2.32,2.32,0,0,0-.76-1.71L539.69,568l12.77,12.77a2.33,2.33,0,0,0-1,1.88V583a2.34,2.34,0,0,0,2.34,2.34h.33a2.33,2.33,0,0,0,1.88-1L592,620.26a2.32,2.32,0,0,0-.46,1.38V622a2.34,2.34,0,0,0,1.5,2.18Zm110-.83-.33-.33L687,672.46a2.31,2.31,0,0,0-.82-.16h-.33a2.34,2.34,0,0,0-2.34,2.34V675a2.31,2.31,0,0,0,.16.82L650,709.46a2.31,2.31,0,0,0-.82-.16H649v-36h.16A2.34,2.34,0,0,0,651.5,671v-.33a2.32,2.32,0,0,0-.42-1.33l26.43-26.43a2.32,2.32,0,0,0,1.33.42h.33A2.34,2.34,0,0,0,681.5,641v-.33a2.32,2.32,0,0,0-.42-1.33l6.17-6.17-.71-.71-6.21,6.21a2.31,2.31,0,0,0-1.17-.33h-.33a2.34,2.34,0,0,0-2.34,2.34V641a2.31,2.31,0,0,0,.33,1.17l-26.49,26.49a2.31,2.31,0,0,0-1.17-.33H649V618.8h-1v49.66a2.33,2.33,0,0,0-.87.59l-28.67-28.67a2.33,2.33,0,0,0,0-.41v-.33a2.34,2.34,0,0,0-2.34-2.34h-.33a2.32,2.32,0,0,0-.41,0L611,632.93l-.71.71,4.14,4.14a2.33,2.33,0,0,0-.94,1.86V640a2.34,2.34,0,0,0,2.34,2.34h.33a2.33,2.33,0,0,0,1.86-.94l28.59,28.59a2.3,2.3,0,0,0-.12.69V671a2.34,2.34,0,0,0,1.5,2.18v36.32a2.32,2.32,0,0,0-.59.34l-36.06-36.05a2.31,2.31,0,0,0,.14-.78v-.33a2.34,2.34,0,0,0-2.34-2.34h-.33a2.31,2.31,0,0,0-.78.14l-13.5-13.5-.11.11-.28-.28-.16.16V624.3h.16A2.34,2.34,0,0,0,596.5,622v-.33a2.31,2.31,0,0,0-.52-1.45l33.41-33.41a2.31,2.31,0,0,0,1.44.51h.33A2.34,2.34,0,0,0,633.5,585v-.33a2.31,2.31,0,0,0-.51-1.44l15.54-15.54,13,13a2.33,2.33,0,0,0-1.06,2V583a2.34,2.34,0,0,0,2.34,2.34h.33a2.33,2.33,0,0,0,2-1.06l36.55,36.55a2.32,2.32,0,0,0-.16.84V622a2.34,2.34,0,0,0,1.5,2.18Zm108,.5-14.9,14.9a2.31,2.31,0,0,0-.94-.2h-.33a2.34,2.34,0,0,0-2.34,2.34V675a2.32,2.32,0,0,0,.2.94l-33.6,33.6-.1,0V673.14a2.34,2.34,0,0,0,1.5-2.18v-.33a2.32,2.32,0,0,0-.36-1.23l26.46-26.46a2.32,2.32,0,0,0,1.23.36h.33A2.34,2.34,0,0,0,790.5,641v-.33a2.31,2.31,0,0,0-.36-1.23l6.27-6.27-.71-.71-6.26,6.26a2.32,2.32,0,0,0-1.28-.39h-.33a2.34,2.34,0,0,0-2.34,2.34V641a2.32,2.32,0,0,0,.39,1.28l-26.44,26.44a2.33,2.33,0,0,0-.44-.22V618.8h-1v49.5h-.16a2.32,2.32,0,0,0-1.63.66l-28-28a2.31,2.31,0,0,0,.25-1v-.33a2.34,2.34,0,0,0-2.34-2.34h-.33a2.31,2.31,0,0,0-1,.25l-4.62-4.62-.71.71,4.55,4.55a2.31,2.31,0,0,0-.52,1.45V640a2.34,2.34,0,0,0,2.34,2.34h.33a2.31,2.31,0,0,0,1.45-.52l28,28a2.31,2.31,0,0,0-.15.81V671a2.34,2.34,0,0,0,2.34,2.34H758v36h-.16a2.32,2.32,0,0,0-1.34.42L720.4,673.62a2.31,2.31,0,0,0,.1-.65v-.33a2.34,2.34,0,0,0-2.34-2.34h-.33a2.31,2.31,0,0,0-.65.1L704,657.23V624.3h.16A2.34,2.34,0,0,0,706.5,622v-.33a2.33,2.33,0,0,0-.94-1.86l32.92-32.92a2.32,2.32,0,0,0,1.36.44h.33A2.34,2.34,0,0,0,742.5,585v-.33a2.32,2.32,0,0,0-.44-1.36l15.3-15.3,12.92,12.92a2.32,2.32,0,0,0-.78,1.73V583a2.34,2.34,0,0,0,2.34,2.34h.33a2.32,2.32,0,0,0,1.73-.78l35.94,35.94a2.31,2.31,0,0,0-.33,1.18V622a2.34,2.34,0,0,0,1.5,2.18Z" style="fill:#e8e8e8"/></g></svg>