<svg id="Layer_1" data-name="Layer 1" xmlns="http://www.w3.org/2000/svg" viewBox="0 0 757.36 387.48"><title>Artboard 1</title><path id="_Compound_Path_" data-name="&lt;Compound Path&gt;" d="M94.83,137.6H0v-5.43H94.83ZM50.21,253.39H44.63V161.12h5.58Z" style="fill:#fff"/><path id="_Compound_Path_2" data-name="&lt;Compound Path&gt;" d="M135.74,253.39h-5.58V132.17h5.58Zm94.83,0H225v-59.7H159.91v-5.43H225V132.17h5.58Z" style="fill:#fff"/><path id="_Compound_Path_3" data-name="&lt;Compound Path&gt;" d="M374.68,253.39h-9.3l-57.64-45.23H331c20.08,0,36.26-15.74,36.26-35.28S351.06,137.6,331,137.6H284.49V253.39h-5.58V132.17H331c23.06,0,41.84,18.27,41.84,40.71S354,213.59,331,213.59h-7.81Z" style="fill:#fff"/><path id="_Compound_Path_4" data-name="&lt;Compound Path&gt;" d="M417.44,253.39h-5.58V132.17h5.58Z" style="fill:#fff"/><path id="_Compound_Path_5" data-name="&lt;Compound Path&gt;" d="M569.92,132.17l-58.57,123h-1.86l-58.57-123H457l53.37,112.17,53.37-112.17Z" style="fill:#fff"/><path id="_Compound_Path_6" data-name="&lt;Compound Path&gt;" d="M687.06,253.39H601.52V132.17h85.54v5.43h-80V248h80Zm0-59.7H631.27v-5.43h55.79Z" style="fill:#fff"/><path id="_Path_" data-name="&lt;Path&gt;" d="M207.07,332.88h62.25c-.75,23.66-19.91,42.11-43.89,42.11-24.62,0-43.9-19.07-43.9-43.42s19.29-43.42,43.9-43.42a43.8,43.8,0,0,1,34.7,16.53l1.12,1.43v-8.33l-.17-.17a49,49,0,0,0-35.65-14.87c-27.27,0-49.46,21.9-49.46,48.82s22.19,48.83,49.46,48.83,49.47-21.9,49.47-48.83v-4.1H207.07Z" style="fill:#5ac3ca"/><polygon id="_Path_2" data-name="&lt;Path&gt;" points="302.09 284.14 296.52 284.14 296.52 379 360.98 379 360.98 373.59 302.09 373.59 302.09 284.14" style="fill:#5ac3ca"/><path id="_Compound_Path_7" data-name="&lt;Compound Path&gt;" d="M539.83,329.13c8.6-3.79,13.84-11.5,13.84-20.62,0-13.44-11.24-24.37-25-24.37h-44V379h50.61C550,379,562,367.44,562,353.23,562,340.81,552.82,331,539.83,329.13Zm-25.54-1.66v5.41h21.23c11.54,0,20.92,9.13,20.92,20.36s-9.39,20.36-20.92,20.36H490.18v-84h38.44c10.74,0,19.49,8.5,19.49,19s-8.74,19-19.49,19Z" style="fill:#5ac3ca"/><polygon id="_Path_3" data-name="&lt;Path&gt;" points="622.03 282.75 576.2 379 582.32 379 623.14 293.19 650.03 349.83 621.82 349.83 619.22 355.24 652.62 355.24 663.8 378.65 663.97 379 670.09 379 624.26 282.75 622.03 282.75" style="fill:#5ac3ca"/><polygon id="_Path_4" data-name="&lt;Path&gt;" points="698.47 373.59 698.47 284.14 692.9 284.14 692.9 379 757.36 379 757.36 373.59 698.47 373.59" style="fill:#5ac3ca"/><path d="M405.82,75.33a2.71,2.71,0,0,1-.44,1.42l6.87,7.05a2.74,2.74,0,0,1,1.15-.73V47.67a2.75,2.75,0,0,1-1.63-2L398,31.54a2.72,2.72,0,0,1-.83.17,2.79,2.79,0,0,1-2.79-2.79,2.74,2.74,0,0,1,.18-.9L379.8,12.88A52.71,52.71,0,0,0,364.71,35l37,38a2.71,2.71,0,0,1,1.36-.4A2.79,2.79,0,0,1,405.82,75.33Z" style="fill:#5ac3ca"/><path d="M416.41,43.15l30.8-31.63A52.43,52.43,0,0,0,415.23,0V42.47A2.76,2.76,0,0,1,416.41,43.15Z" style="fill:#5ac3ca"/><path d="M399.93,28.92a2.71,2.71,0,0,1-.49,1.49l12.75,13.1a2.74,2.74,0,0,1,1.2-1V0A52.44,52.44,0,0,0,381.2,11.68l14.51,14.9a2.71,2.71,0,0,1,1.43-.45A2.79,2.79,0,0,1,399.93,28.92Z" style="fill:#5ac3ca"/><path d="M415.23,47.72V83.09a2.74,2.74,0,0,1,1.11.77l18.87-19.38a2.71,2.71,0,0,1-.41-1.37,2.79,2.79,0,0,1,2.79-2.79,2.71,2.71,0,0,1,1.31.37l25-25.69A52.72,52.72,0,0,0,448.62,12.7L417.19,45s0,.07,0,.11A2.75,2.75,0,0,1,415.23,47.72Z" style="fill:#5ac3ca"/><path d="M411.48,85.69v0L404,77.93a2.74,2.74,0,0,1-.93.19,2.76,2.76,0,0,1-2.58-3.8L364,36.9a52.67,52.67,0,0,0-2.4,15.75c0,28.52,36.63,66.32,51.78,67.83V88.3A2.76,2.76,0,0,1,411.48,85.69Z" style="fill:#5ac3ca"/><path d="M464.62,36.91,440.16,62a2.76,2.76,0,0,1-3.57,3.66L417,85.77a2.76,2.76,0,0,1-1.81,2.51v32.2C429.39,118.86,467,81.13,467,52.65A52.67,52.67,0,0,0,464.62,36.91Z" style="fill:#5ac3ca"/><path d="M422.8,312.15a2.71,2.71,0,0,1,.44-1.42l-6.87-7.05a2.74,2.74,0,0,1-1.15.73v35.4a2.75,2.75,0,0,1,1.63,2l13.79,14.16a2.72,2.72,0,0,1,.83-.17,2.79,2.79,0,0,1,2.79,2.79,2.74,2.74,0,0,1-.18.9l14.74,15.13a52.71,52.71,0,0,0,15.09-22.11l-37-38a2.71,2.71,0,0,1-1.36.4A2.79,2.79,0,0,1,422.8,312.15Z" style="fill:#5ac3ca"/><path d="M412.21,344.33,381.41,376a52.43,52.43,0,0,0,32,11.52V345A2.76,2.76,0,0,1,412.21,344.33Z" style="fill:#5ac3ca"/><path d="M428.69,358.56a2.71,2.71,0,0,1,.49-1.49L416.43,344a2.74,2.74,0,0,1-1.2,1v42.51a52.44,52.44,0,0,0,32.19-11.68l-14.51-14.9a2.71,2.71,0,0,1-1.43.45A2.79,2.79,0,0,1,428.69,358.56Z" style="fill:#5ac3ca"/><path d="M413.39,339.76V304.39a2.74,2.74,0,0,1-1.11-.77L393.41,323a2.71,2.71,0,0,1,.41,1.37,2.79,2.79,0,0,1-2.79,2.79,2.71,2.71,0,0,1-1.31-.37l-25,25.69A52.72,52.72,0,0,0,380,374.78l31.43-32.28s0-.07,0-.11A2.75,2.75,0,0,1,413.39,339.76Z" style="fill:#5ac3ca"/><path d="M417.14,301.8v0l7.53,7.73a2.74,2.74,0,0,1,.93-.19,2.76,2.76,0,0,1,2.58,3.8l36.44,37.42a52.67,52.67,0,0,0,2.4-15.75c0-28.52-36.63-66.32-51.78-67.83v32.19A2.76,2.76,0,0,1,417.14,301.8Z" style="fill:#5ac3ca"/><path d="M364,350.57l24.46-25.12a2.76,2.76,0,0,1,3.57-3.66l19.55-20.07a2.76,2.76,0,0,1,1.81-2.51V267c-14.16,1.62-51.78,39.35-51.78,67.82A52.67,52.67,0,0,0,364,350.57Z" style="fill:#5ac3ca"/></svg>