<svg xmlns="http://www.w3.org/2000/svg" xmlns:xlink="http://www.w3.org/1999/xlink" viewBox="0 0 400 122.3"><defs><clipPath id="a"><path d="M70.91,23.06a1,1,0,0,1-1,1.44,1,1,0,0,1-.37-.07L68,26l-.83,2.08c-2,5.11-3.34,12.75-3.86,16.18,6.07-2.7,17.55-15.11,17.55-24.7A19.58,19.58,0,0,0,80,13.72Z" fill="none"/></clipPath><linearGradient id="b" x1="11.14" y1="385.54" x2="11.36" y2="385.54" gradientTransform="matrix(81.13, 0, 0, -81.13, -840.69, 31307.68)" gradientUnits="userSpaceOnUse"><stop offset="0" stop-color="#4eb4bb"/><stop offset="0.14" stop-color="#57b8be"/><stop offset="0.7" stop-color="#78c7ca"/><stop offset="1" stop-color="#85cdcf"/></linearGradient><clipPath id="c"><path d="M65,22.69c-.94,1.85-2.15,4.59-3.39,7.53v.67a1,1,0,0,1,.41.28l6.66-6.84.25-.6a.88.88,0,0,1,0-.27,1,1,0,0,1,.53-.9A158.42,158.42,0,0,1,76.54,7.3a19.57,19.57,0,0,0-1.6-1.76C72.38,9.76,67.32,18.18,65,22.69" fill="none"/></clipPath><linearGradient id="d" x1="10.43" y1="384.43" x2="10.65" y2="384.43" gradientTransform="matrix(68.86, 0, 0, -68.86, -656.64, 26492.19)" gradientUnits="userSpaceOnUse"><stop offset="0" stop-color="#4aacb4"/><stop offset="0.46" stop-color="#4fb3bb"/><stop offset="0.97" stop-color="#59c2c9"/><stop offset="1" stop-color="#85cdcf"/></linearGradient><clipPath id="e"><path d="M41.7,102.73a19.58,19.58,0,0,0,.89,5.85l9.09-9.34A1,1,0,0,1,53,97.88l1.55-1.59.83-2.08c2-5.11,3.34-12.75,3.86-16.18-6.07,2.7-17.55,15.11-17.55,24.7" fill="none"/></clipPath><linearGradient id="f" x1="19.97" y1="388.84" x2="20.18" y2="388.84" gradientTransform="matrix(-81.13, 0, 0, 81.13, 1679.14, -31452.89)" xlink:href="#b"/><clipPath id="g"><path d="M53.88,98l-.25.6a.87.87,0,0,1,0,.27,1,1,0,0,1-.53.9A158.45,158.45,0,0,1,46.05,115a19.61,19.61,0,0,0,1.6,1.76c2.56-4.22,7.62-12.64,9.91-17.15C58.5,97.77,59.72,95,61,92.09v-.67a1,1,0,0,1-.41-.28Z" fill="none"/></clipPath><linearGradient id="h" x1="20.83" y1="388.32" x2="21.04" y2="388.32" gradientTransform="matrix(-68.86, 0, 0, 68.86, 1495.09, -26637.4)" xlink:href="#d"/><clipPath id="i"><path d="M102.73,80.6a19.59,19.59,0,0,0,5.85-.89l-9.34-9.09a1,1,0,0,1-1.36-1.33l-1.59-1.55-2.08-.83C89.1,64.87,81.46,63.56,78,63c2.7,6.07,15.11,17.56,24.7,17.56" fill="none"/></clipPath><linearGradient id="j" x1="17.21" y1="382.79" x2="17.43" y2="382.79" gradientTransform="matrix(0, 81.13, 81.13, 0, -30961.73, -1333.19)" xlink:href="#b"/><clipPath id="k"><path d="M91.41,61.35a1,1,0,0,1-.28.41L98,68.42l.6.25a.88.88,0,0,1,.27,0,1,1,0,0,1,.9.53A158.39,158.39,0,0,1,115,76.25a19.61,19.61,0,0,0,1.76-1.6c-4.22-2.56-12.64-7.62-17.15-9.91-1.85-.94-4.59-2.15-7.53-3.39Z" fill="none"/></clipPath><linearGradient id="l" x1="17.58" y1="381.19" x2="17.79" y2="381.19" gradientTransform="matrix(0, 68.86, 68.86, 0, -26146.24, -1149.14)" xlink:href="#d"/><clipPath id="m"><path d="M13.72,42.31l9.34,9.09a1,1,0,0,1,1.36,1.33L26,54.28l2.08.83c5.11,2,12.75,3.34,16.18,3.86-2.7-6.07-15.11-17.55-24.7-17.55a19.58,19.58,0,0,0-5.85.89" fill="none"/></clipPath><linearGradient id="n" x1="13.9" y1="391.6" x2="14.12" y2="391.6" gradientTransform="matrix(0, -81.13, -81.13, 0, 31798.84, 1186.64)" xlink:href="#b"/><clipPath id="o"><path d="M5.54,47.36C9.76,49.92,18.18,55,22.69,57.27c1.85.94,4.59,2.15,7.53,3.39h.67a1,1,0,0,1,.28-.41l-6.84-6.66-.6-.25a.88.88,0,0,1-.27,0,1,1,0,0,1-.9-.53A158.4,158.4,0,0,1,7.3,45.77a19.6,19.6,0,0,0-1.75,1.59" fill="none"/></clipPath><linearGradient id="p" x1="13.68" y1="391.57" x2="13.89" y2="391.57" gradientTransform="matrix(0, -68.86, -68.86, 0, 26983.35, 1002.59)" xlink:href="#d"/></defs><title>Artboard 1</title><rect x="146.19" y="37.57" width="35.03" height="2.01" fill="#231f20"/><rect x="162.68" y="48.27" width="2.06" height="34.09" fill="#231f20"/><polygon points="229.31 58.29 205.26 58.29 205.26 60.3 229.31 60.3 229.31 82.36 231.37 82.36 231.37 37.58 229.31 37.58 229.31 58.29" fill="#231f20"/><rect x="194.27" y="37.57" width="2.06" height="44.78" fill="#231f20"/><path d="M268.46,67.65a15,15,0,1,0,0-30.08H249.22V82.36h2.06V39.58h17.17a13,13,0,1,1,0,26.07h-8.59l21.29,16.71h3.43l-19-14.7Z" fill="#231f20"/><rect x="298.34" y="37.57" width="2.06" height="44.78" fill="#231f20"/><polygon points="334.74 79.01 315.03 37.58 312.76 37.58 334.4 83.02 335.09 83.02 356.73 37.58 354.46 37.58 334.74 79.01" fill="#231f20"/><polygon points="368.4 37.58 368.4 82.36 400 82.36 400 80.35 370.46 80.35 370.46 39.58 400 39.58 400 37.58 368.4 37.58" fill="#231f20"/><rect x="379.39" y="58.29" width="20.61" height="2.01" fill="#231f20"/><rect x="60.95" y="44.76" width="0.72" height="9.75" fill="#231f20"/><path d="M52,14.46c-1.47,1.51-2.74,2.85-3.84,4l8.4,8.62A1,1,0,0,1,57.1,27a1,1,0,0,1,1,1,1,1,0,0,1-.17.53l2.55,2.62a1,1,0,0,1,.43-.27V17.72a1,1,0,0,1-.61-.73l-5.13-5.26a1,1,0,0,1-.31.06l-.16,0c-.9.88-1.81,1.77-2.71,2.69" fill="#59c2c9"/><path d="M61.64,15.79a1,1,0,0,1,.44.25L73.53,4.28A19.51,19.51,0,0,0,67.16.89c-1.49,1.19-3.4,2.76-5.52,4.59Z" fill="#59c2c9"/><path d="M56,10.75a1,1,0,0,1-.18.56l4.74,4.87a1,1,0,0,1,.45-.37V6.08c-1.59,1.39-3.29,2.92-5,4.56a1,1,0,0,1,0,.12" fill="#59c2c9"/><path d="M69.07,24a1.23,1.23,0,0,1-.11-.24l-.25.6Z" fill="#59c2c9"/><path d="M69.95,22.43a1,1,0,0,1,.49.14L79.74,13a19.6,19.6,0,0,0-3.2-5.72,158.39,158.39,0,0,0-7.1,15.27,1,1,0,0,1,.51-.14" fill="#80cacc"/><path d="M74.94,5.54q-.43-.42-.89-.82l-11.68,12s0,0,0,0a1,1,0,0,1-.74,1V30.22c1.24-2.94,2.45-5.68,3.39-7.53,2.29-4.5,7.35-12.93,9.91-17.15" fill="#59c2c9"/><path d="M60.25,31.86h0L57.45,29a1,1,0,0,1-.35.07,1,1,0,0,1-1-1,1,1,0,0,1,.08-.37L47.74,19c-2.6,2.83-4.16,4.72-5.06,5.89,2.41,7.1,8.83,14.48,13.89,17.92.91-2.34,2.45-6.25,4.07-10.17a1,1,0,0,1-.38-.79" fill="#5cbcc1"/><g clip-path="url(#a)"><rect x="63.33" y="13.72" width="17.55" height="30.56" fill="url(#b)"/></g><path d="M53.88,10.75a1,1,0,0,1,.07-.34L48.47,4.79A19.59,19.59,0,0,0,42.86,13L48.2,18.5c1.1-1.19,2.37-2.52,3.84-4,.9-.92,1.8-1.82,2.71-2.69a1,1,0,0,1-.87-1" fill="#76c9ce"/><path d="M61.64,5.49c2.12-1.84,4-3.4,5.52-4.59A19.58,19.58,0,0,0,61.64,0Z" fill="#80ccce"/><path d="M49,4.34l5.4,5.54a1,1,0,0,1,.53-.17,1,1,0,0,1,1,.92C57.66,9,59.36,7.47,61,6.08V0A19.5,19.5,0,0,0,49,4.34" fill="#80ccce"/><path d="M42.6,13.72a19.58,19.58,0,0,0-.89,5.86,16.71,16.71,0,0,0,1,5.32c.9-1.17,2.46-3.07,5.06-5.89Z" fill="#73c3c8"/><g clip-path="url(#c)"><rect x="61.64" y="5.54" width="14.9" height="25.64" fill="url(#d)"/></g><path d="M61,32.83a1.06,1.06,0,0,1-.33-.18c-1.62,3.92-3.16,7.84-4.07,10.17a10.51,10.51,0,0,0,4.39,2Z" fill="#47aab3"/><path d="M61.64,32.82v12a6,6,0,0,0,1.7-.51c.52-3.43,1.82-11.07,3.86-16.18L68,26l-5.72,5.87a1,1,0,0,1-.67.93" fill="#42aab3"/><rect x="60.93" y="67.8" width="0.72" height="9.75" fill="#231f20"/><path d="M70.55,107.84c1.47-1.51,2.74-2.85,3.84-4L66,95.18a1,1,0,0,1-.51.15,1,1,0,0,1-1-1,1,1,0,0,1,.17-.53l-2.55-2.62a1,1,0,0,1-.43.27v13.16a1,1,0,0,1,.61.73l5.13,5.26a1,1,0,0,1,.31-.06l.16,0c.9-.88,1.81-1.77,2.71-2.69" fill="#59c2c9"/><path d="M61,106.52a1,1,0,0,1-.44-.25L49.07,118a19.51,19.51,0,0,0,6.37,3.39c1.49-1.19,3.4-2.76,5.52-4.59Z" fill="#59c2c9"/><path d="M66.64,111.55a1,1,0,0,1,.18-.56l-4.74-4.87a1,1,0,0,1-.45.37v9.73c1.59-1.39,3.29-2.92,5-4.56a1,1,0,0,1,0-.12" fill="#59c2c9"/><path d="M53.53,98.33a1.23,1.23,0,0,1,.11.24l.25-.6Z" fill="#59c2c9"/><path d="M52.64,99.88a1,1,0,0,1-.49-.14l-9.3,9.55a19.6,19.6,0,0,0,3.2,5.72,158.39,158.39,0,0,0,7.1-15.27,1,1,0,0,1-.51.14" fill="#80cacc"/><path d="M47.65,116.76q.43.42.89.82l11.68-12s0,0,0,0a1,1,0,0,1,.74-1V92.09c-1.24,2.94-2.45,5.68-3.39,7.53-2.29,4.5-7.35,12.93-9.91,17.15" fill="#59c2c9"/><path d="M62.35,90.45h0l2.8,2.87a1,1,0,0,1,.35-.07,1,1,0,0,1,1,1,1,1,0,0,1-.08.37l8.4,8.63c2.6-2.83,4.16-4.72,5.06-5.89C77.51,90.31,71.09,82.93,66,79.49c-.91,2.34-2.45,6.25-4.07,10.17a1,1,0,0,1,.38.79" fill="#5cbcc1"/><g clip-path="url(#e)"><rect x="41.7" y="78.03" width="17.55" height="30.56" fill="url(#f)"/></g><path d="M68.71,111.55a1,1,0,0,1-.07.34l5.48,5.63a19.59,19.59,0,0,0,5.61-8.22l-5.35-5.49c-1.1,1.19-2.37,2.52-3.84,4-.9.92-1.8,1.82-2.71,2.69a1,1,0,0,1,.87,1" fill="#76c9ce"/><path d="M61,116.82c-2.12,1.84-4,3.4-5.52,4.59a19.58,19.58,0,0,0,5.52.89Z" fill="#80ccce"/><path d="M73.61,118l-5.4-5.54a1,1,0,0,1-.53.17,1,1,0,0,1-1-.92c-1.72,1.63-3.42,3.16-5,4.55v6.08a19.5,19.5,0,0,0,12-4.34" fill="#80ccce"/><path d="M80,108.59a19.58,19.58,0,0,0,.89-5.86,16.71,16.71,0,0,0-1-5.32c-.9,1.17-2.46,3.07-5.06,5.89Z" fill="#73c3c8"/><g clip-path="url(#g)"><rect x="46.05" y="91.13" width="14.9" height="25.64" fill="url(#h)"/></g><path d="M61.64,89.48a1.06,1.06,0,0,1,.33.18c1.62-3.92,3.16-7.84,4.07-10.17a10.51,10.51,0,0,0-4.39-2Z" fill="#47aab3"/><path d="M61,89.48v-12a6,6,0,0,0-1.7.51c-.52,3.43-1.82,11.07-3.86,16.18l-.83,2.08,5.72-5.87a1,1,0,0,1,.67-.93" fill="#42aab3"/><rect x="67.8" y="60.66" width="9.75" height="0.72" fill="#231f20"/><path d="M107.84,51.76c-1.51-1.47-2.85-2.74-4-3.84l-8.62,8.4a1,1,0,0,1,.15.51,1,1,0,0,1-1,1,1,1,0,0,1-.53-.17l-2.62,2.55a1,1,0,0,1,.27.43h13.16a1,1,0,0,1,.73-.61l5.26-5.13a1,1,0,0,1-.06-.31,1,1,0,0,1,0-.16c-.88-.9-1.77-1.81-2.69-2.71" fill="#59c2c9"/><path d="M106.52,61.35a1,1,0,0,1-.25.44L118,73.24a19.51,19.51,0,0,0,3.39-6.37c-1.19-1.49-2.76-3.4-4.59-5.52Z" fill="#59c2c9"/><path d="M111.55,55.66a1,1,0,0,1-.56-.18l-4.87,4.74a1,1,0,0,1,.37.45h9.73c-1.39-1.59-2.92-3.29-4.56-5h-.12" fill="#59c2c9"/><path d="M98.33,68.78a1.23,1.23,0,0,1,.24-.11l-.6-.25Z" fill="#59c2c9"/><path d="M99.88,69.66a1,1,0,0,1-.14.49l9.55,9.3a19.6,19.6,0,0,0,5.72-3.2,158.39,158.39,0,0,0-15.27-7.1,1,1,0,0,1,.14.51" fill="#80cacc"/><path d="M116.76,74.66q.42-.43.82-.89l-12-11.68h0a1,1,0,0,1-1-.74H92.09c2.94,1.24,5.68,2.45,7.53,3.39,4.5,2.29,12.93,7.35,17.15,9.91" fill="#59c2c9"/><path d="M90.45,60h0l2.87-2.8a1,1,0,0,1-.07-.35,1,1,0,0,1,1-1,1,1,0,0,1,.37.08l8.63-8.4c-2.83-2.6-4.72-4.16-5.89-5.06-7.1,2.41-14.48,8.83-17.92,13.89,2.34.91,6.25,2.45,10.17,4.07a1,1,0,0,1,.79-.38" fill="#5cbcc1"/><g clip-path="url(#i)"><rect x="78.03" y="63.05" width="30.55" height="17.56" fill="url(#j)"/></g><path d="M111.55,53.59a1,1,0,0,1,.34.07l5.63-5.48a19.59,19.59,0,0,0-8.22-5.61l-5.49,5.35c1.19,1.1,2.52,2.37,4,3.84.92.9,1.82,1.8,2.69,2.71a1,1,0,0,1,1-.87" fill="#76c9ce"/><path d="M116.82,61.35c1.84,2.12,3.4,4,4.59,5.52a19.58,19.58,0,0,0,.89-5.52Z" fill="#80ccce"/><path d="M118,48.7l-5.54,5.4a1,1,0,0,1,.17.53,1,1,0,0,1-.92,1c1.63,1.72,3.16,3.42,4.55,5h6.08a19.5,19.5,0,0,0-4.34-12" fill="#80ccce"/><path d="M108.59,42.31a19.58,19.58,0,0,0-5.86-.89,16.71,16.71,0,0,0-5.32,1c1.17.9,3.07,2.46,5.89,5.06Z" fill="#73c3c8"/><g clip-path="url(#k)"><rect x="91.13" y="61.35" width="25.64" height="14.9" fill="url(#l)"/></g><path d="M89.48,60.67a1.06,1.06,0,0,1,.18-.33c-3.92-1.62-7.84-3.16-10.17-4.07a10.51,10.51,0,0,0-2,4.39Z" fill="#47aab3"/><path d="M89.48,61.35h-12A6,6,0,0,0,78,63c3.43.52,11.07,1.82,16.18,3.86l2.08.83L90.42,62a1,1,0,0,1-.93-.67" fill="#42aab3"/><rect x="44.76" y="60.64" width="9.75" height="0.72" fill="#231f20"/><path d="M14.46,70.26c1.51,1.47,2.85,2.74,4,3.84l8.62-8.4A1,1,0,0,1,27,65.2a1,1,0,0,1,1-1,1,1,0,0,1,.53.17l2.62-2.55a1,1,0,0,1-.27-.43H17.72A1,1,0,0,1,17,62l-5.26,5.13a1,1,0,0,1,.06.31,1,1,0,0,1,0,.16c.88.9,1.77,1.81,2.69,2.71" fill="#59c2c9"/><path d="M15.79,60.67a1,1,0,0,1,.25-.44L4.28,48.78A19.51,19.51,0,0,0,.89,55.14c1.19,1.49,2.76,3.4,4.59,5.52Z" fill="#59c2c9"/><path d="M10.75,66.35a1,1,0,0,1,.56.18l4.87-4.74a1,1,0,0,1-.37-.45H6.08c1.39,1.59,2.92,3.29,4.56,5h.12" fill="#59c2c9"/><path d="M24,53.24a1.23,1.23,0,0,1-.24.11l.6.25Z" fill="#59c2c9"/><path d="M22.43,52.36a1,1,0,0,1,.14-.49L13,42.57a19.6,19.6,0,0,0-5.72,3.2,158.39,158.39,0,0,0,15.27,7.1,1,1,0,0,1-.14-.51" fill="#80cacc"/><path d="M5.54,47.36q-.42.43-.82.89l12,11.68h0a1,1,0,0,1,1,.74H30.22c-2.94-1.24-5.68-2.45-7.53-3.39C18.18,55,9.76,49.92,5.54,47.36" fill="#59c2c9"/><path d="M31.86,62.06h0L29,64.86a1,1,0,0,1,.07.35,1,1,0,0,1-1,1,1,1,0,0,1-.37-.08L19,74.57c2.83,2.6,4.72,4.16,5.89,5.06C32,77.22,39.37,70.8,42.82,65.74c-2.34-.91-6.25-2.45-10.17-4.07a1,1,0,0,1-.79.38" fill="#5cbcc1"/><g clip-path="url(#m)"><rect x="13.72" y="41.42" width="30.56" height="17.55" fill="url(#n)"/></g><path d="M10.75,68.43a1,1,0,0,1-.34-.07L4.79,73.84A19.59,19.59,0,0,0,13,79.45L18.5,74.1c-1.19-1.1-2.52-2.37-4-3.84-.92-.9-1.82-1.8-2.69-2.71a1,1,0,0,1-1,.87" fill="#76c9ce"/><path d="M5.49,60.67c-1.84-2.12-3.4-4-4.59-5.52A19.58,19.58,0,0,0,0,60.67Z" fill="#80ccce"/><path d="M4.34,73.32l5.54-5.4a1,1,0,0,1-.17-.53,1,1,0,0,1,.92-1c-1.63-1.72-3.16-3.42-4.55-5H0a19.5,19.5,0,0,0,4.34,12" fill="#80ccce"/><path d="M13.72,79.71a19.58,19.58,0,0,0,5.86.89,16.71,16.71,0,0,0,5.32-1c-1.17-.9-3.07-2.46-5.89-5.06Z" fill="#73c3c8"/><g clip-path="url(#o)"><rect x="5.54" y="45.77" width="25.64" height="14.9" fill="url(#p)"/></g><path d="M32.83,61.35a1.06,1.06,0,0,1-.18.33c3.92,1.62,7.84,3.16,10.17,4.07a10.51,10.51,0,0,0,2-4.39Z" fill="#47aab3"/><path d="M32.82,60.67h12a6,6,0,0,0-.51-1.7c-3.43-.52-11.07-1.82-16.18-3.86L26,54.28,31.89,60a1,1,0,0,1,.93.67" fill="#42aab3"/></svg>