<?xml version="1.0" encoding="utf-8"?>
<!-- Generator: Adobe Illustrator 21.0.0, SVG Export Plug-In . SVG Version: 6.00 Build 0)  -->
<svg version="1.1" id="Layer_1" xmlns="http://www.w3.org/2000/svg" xmlns:xlink="http://www.w3.org/1999/xlink" x="0px" y="0px"
	 viewBox="0 0 792 792" style="enable-background:new 0 0 792 792;" xml:space="preserve">
<style type="text/css">
	.st0{fill:#FFFFFF;}
	.st1{clip-path:url(#SVGID_2_);}
	.st2{fill:#231F20;}
	.st3{clip-path:url(#SVGID_4_);}
	.st4{fill:#5AC3CA;}
	.st5{fill:#81CACC;}
	.st6{fill:#5CBCC2;}
	.st7{clip-path:url(#SVGID_6_);}
	.st8{fill:url(#SVGID_7_);}
	.st9{clip-path:url(#SVGID_9_);}
	.st10{fill:#76CACF;}
	.st11{fill:#7FCCCF;}
	.st12{fill:#72C3C8;}
	.st13{clip-path:url(#SVGID_11_);}
	.st14{fill:url(#SVGID_12_);}
	.st15{clip-path:url(#SVGID_14_);}
	.st16{fill:#47ABB3;}
	.st17{fill:#43AAB3;}
	.st18{clip-path:url(#SVGID_16_);}
	.st19{fill:url(#SVGID_17_);}
	.st20{clip-path:url(#SVGID_19_);}
	.st21{clip-path:url(#SVGID_21_);}
	.st22{fill:url(#SVGID_22_);}
	.st23{clip-path:url(#SVGID_24_);}
	.st24{clip-path:url(#SVGID_26_);}
	.st25{fill:url(#SVGID_27_);}
	.st26{clip-path:url(#SVGID_29_);}
	.st27{clip-path:url(#SVGID_31_);}
	.st28{fill:url(#SVGID_32_);}
	.st29{clip-path:url(#SVGID_34_);}
	.st30{clip-path:url(#SVGID_36_);}
	.st31{fill:url(#SVGID_37_);}
	.st32{clip-path:url(#SVGID_39_);}
	.st33{clip-path:url(#SVGID_41_);}
	.st34{fill:url(#SVGID_42_);}
	.st35{clip-path:url(#SVGID_44_);}
</style>
<title>Artboard 1</title>
<path class="st0" d="M205.2,694.7h-73.5v-4.3h73.5V694.7z M170.8,784.4h-4.3v-71.5h4.3V784.4z"/>
<path class="st0" d="M236.9,784.4h-4.3v-93.8h4.3V784.4z M310.3,784.4h-4.3v-46.2h-50.4v-4.3h50.4v-43.5h4.3V784.4z"/>
<g>
	<g>
		<defs>
			<rect id="SVGID_1_" width="792" height="792"/>
		</defs>
		<clipPath id="SVGID_2_">
			<use xlink:href="#SVGID_1_"  style="overflow:visible;"/>
		</clipPath>
		<g class="st1">
			<path class="st0" d="M420.4,783.6h-7.2l-44.7-35h18.1c15.2,0.5,27.7-11.3,28.2-26.5c0.5-15.2-11.3-27.7-26.5-28.2
				c-0.6,0-1.2,0-1.8,0h-36v89.7h-4.3v-93.8h40.3c17.9,0,32.4,14.1,32.4,31.5c0,17.4-14.5,31.5-32.4,31.5h-6.1L420.4,783.6z"/>
			<rect x="449.2" y="689.8" class="st0" width="4.3" height="93.8"/>
			<polygon class="st0" points="571.6,689.8 526.3,785 524.8,785 479.5,689.8 484.2,689.8 525.5,776.6 566.9,689.8 			"/>
			<path class="st0" d="M662.4,783.6h-66.3v-93.8h66.3v4.3h-62v85.4h62V783.6z M662.4,737.4h-43.2v-4.3h43.2V737.4z"/>
		</g>
	</g>
</g>
<rect x="402" y="255" class="st2" width="3.3" height="45"/>
<g>
	<g>
		<defs>
			<rect id="SVGID_3_" width="792" height="792"/>
		</defs>
		<clipPath id="SVGID_4_">
			<use xlink:href="#SVGID_3_"  style="overflow:visible;"/>
		</clipPath>
		<g class="st3">
			<path class="st4" d="M360.8,115c-6.8,7-12.7,13.2-17.8,18.6l38.8,39.8c0.7-0.4,1.5-0.7,2.3-0.7c2.6,0,4.8,2.1,4.8,4.8l0,0
				c0,0.9-0.3,1.7-0.8,2.4l11.8,12.1c0.5-0.6,1.2-1,2-1.2V130c-1.4-0.6-2.5-1.9-2.8-3.4l-23.7-24.3c-0.5,0.2-0.9,0.3-1.4,0.3
				c-0.3,0-0.5,0-0.8-0.1C369.2,106.5,365,110.7,360.8,115"/>
			<path class="st4" d="M405.2,121.1c0.8,0.2,1.4,0.6,2,1.2L460.1,68c-8.7-7-18.7-12.3-29.4-15.7c-6.9,5.5-15.7,12.7-25.5,21.2
				V121.1z"/>
			<path class="st4" d="M378.9,97.8c0,0.9-0.3,1.8-0.9,2.6l21.9,22.5c0.5-0.8,1.2-1.4,2.1-1.7v-45c-7.4,6.4-15.2,13.5-23.2,21.1
				C378.9,97.5,378.9,97.7,378.9,97.8"/>
			<path class="st4" d="M439.5,158.9c-0.2-0.3-0.4-0.7-0.5-1.1l-1.1,2.8L439.5,158.9z"/>
			<path class="st5" d="M443.6,151.8c0.8,0,1.6,0.2,2.2,0.6l43-44.1c-3.4-9.6-8.4-18.5-14.8-26.4c-7.5,14.1-16.7,31.8-32.8,70.6
				C441.9,152,442.7,151.8,443.6,151.8"/>
			<path class="st4" d="M466.6,73.8c-1.3-1.3-2.7-2.6-4.1-3.8l-54,55.5c0,0.1,0,0.1,0,0.2c0,2.1-1.4,3.9-3.4,4.5v57.7
				c5.7-13.6,11.3-26.2,15.7-34.8C431.4,132.2,454.8,93.2,466.6,73.8"/>
			<path class="st6" d="M398.7,195.4L398.7,195.4l-12.9-13.3c-0.5,0.2-1.1,0.3-1.6,0.3c-2.6,0-4.8-2.1-4.8-4.8l0,0
				c0-0.6,0.1-1.2,0.4-1.7L340.9,136c-12,13.1-19.2,21.8-23.4,27.2c11.1,32.8,40.8,66.9,64.2,82.8c4.2-10.8,11.3-28.9,18.8-47
				C399.4,198.2,398.7,196.8,398.7,195.4"/>
		</g>
	</g>
</g>
<g>
	<g>
		<defs>
			<path id="SVGID_5_" d="M448,154.7c1,2.4-0.1,5.2-2.5,6.3c-0.6,0.3-1.2,0.4-1.9,0.4c-0.6,0-1.2-0.1-1.7-0.4l-7.2,7.4
				c-1.2,3.1-2.5,6.3-3.9,9.6c-9.4,23.6-15.5,58.9-17.8,74.8c28.1-12.5,81.1-69.8,81.1-114.2c0-9.2-1.4-18.3-4.1-27L448,154.7z"/>
		</defs>
		<clipPath id="SVGID_6_">
			<use xlink:href="#SVGID_5_"  style="overflow:visible;"/>
		</clipPath>
		<g class="st7">
			
				<linearGradient id="SVGID_7_" gradientUnits="userSpaceOnUse" x1="-1740.2819" y1="738.7653" x2="-1739.2822" y2="738.7653" gradientTransform="matrix(81.13 0 0 -81.13 141602.0625 60118.2266)">
				<stop  offset="0" style="stop-color:#4FB4BC"/>
				<stop  offset="0.13" style="stop-color:#57B8BF"/>
				<stop  offset="0.69" style="stop-color:#78C8CB"/>
				<stop  offset="1" style="stop-color:#85CECF"/>
			</linearGradient>
			<rect x="413" y="111.6" class="st8" width="81.1" height="141.2"/>
		</g>
	</g>
</g>
<g>
	<g>
		<defs>
			<rect id="SVGID_8_" width="792" height="792"/>
		</defs>
		<clipPath id="SVGID_9_">
			<use xlink:href="#SVGID_8_"  style="overflow:visible;"/>
		</clipPath>
		<g class="st9">
			<path class="st10" d="M369.3,97.8c0-0.5,0.1-1.1,0.3-1.6l-25.3-26c-11.8,10.2-20.7,23.3-25.9,38l24.7,25.4
				c5.1-5.5,11-11.7,17.8-18.6c4.1-4.2,8.3-8.4,12.5-12.4C371,102.2,369.3,100.2,369.3,97.8"/>
			<path class="st11" d="M405.2,73.5c9.8-8.5,18.6-15.7,25.5-21.2c-8.3-2.6-16.9-4-25.5-4.1V73.5z"/>
			<path class="st11" d="M346.7,68.2l24.9,25.6c0.7-0.5,1.6-0.8,2.5-0.8c2.4,0,4.5,1.8,4.7,4.2c8-7.5,15.8-14.6,23.2-21v-28
				C381.8,48.5,362.4,55.5,346.7,68.2"/>
			<path class="st12" d="M317.2,111.6c-2.8,8.8-4.2,17.9-4.2,27.1c0.2,8.4,1.7,16.7,4.5,24.6c4.2-5.4,11.4-14.2,23.4-27.2
				L317.2,111.6z"/>
		</g>
	</g>
</g>
<g>
	<g>
		<defs>
			<path id="SVGID_10_" d="M420.8,153c-4.4,8.6-10,21.2-15.7,34.8v3.1c0.7,0.3,1.4,0.7,1.9,1.3l30.8-31.6l1.1-2.8
				c-0.1-0.4-0.2-0.8-0.2-1.3c0-1.7,0.9-3.3,2.5-4.1c16.1-38.8,25.3-56.4,32.8-70.6c-2.3-2.8-4.8-5.6-7.4-8.1
				C454.8,93.3,431.4,132.2,420.8,153"/>
		</defs>
		<clipPath id="SVGID_11_">
			<use xlink:href="#SVGID_10_"  style="overflow:visible;"/>
		</clipPath>
		<g class="st13">
			
				<linearGradient id="SVGID_12_" gradientUnits="userSpaceOnUse" x1="-1736.4113" y1="729.3426" x2="-1735.4106" y2="729.3426" gradientTransform="matrix(68.86 0 0 -68.86 119974.4844 50355.582)">
				<stop  offset="0" style="stop-color:#4BADB5"/>
				<stop  offset="0.46" style="stop-color:#50B4BC"/>
				<stop  offset="0.97" style="stop-color:#5AC3CA"/>
				<stop  offset="1" style="stop-color:#85CECF"/>
			</linearGradient>
			<rect x="405.2" y="73.8" class="st14" width="68.9" height="118.5"/>
		</g>
	</g>
</g>
<g>
	<g>
		<defs>
			<rect id="SVGID_13_" width="792" height="792"/>
		</defs>
		<clipPath id="SVGID_14_">
			<use xlink:href="#SVGID_13_"  style="overflow:visible;"/>
		</clipPath>
		<g class="st15">
			<path class="st16" d="M402,199.9c-0.6-0.2-1.1-0.5-1.5-0.9c-7.5,18.1-14.6,36.2-18.8,47c7.8,5.3,14.9,8.6,20.3,9.1V199.9z"/>
			<path class="st17" d="M405.2,199.8v55.3c2.7-0.4,5.4-1.2,7.8-2.4c2.4-15.9,8.4-51.2,17.8-74.8c1.3-3.3,2.6-6.5,3.9-9.6
				l-26.4,27.1C408.2,197.5,407,199.2,405.2,199.8"/>
			<rect x="401.9" y="361.5" class="st2" width="3.3" height="45"/>
			<path class="st4" d="M446.3,546.5c6.8-7,12.7-13.2,17.8-18.6L425.3,488c-0.7,0.4-1.5,0.7-2.3,0.7c-2.6,0-4.8-2.1-4.8-4.8l0,0
				c0-0.9,0.3-1.7,0.8-2.4l-11.8-12.1c-0.5,0.6-1.2,1-2,1.2v60.8c1.4,0.6,2.5,1.9,2.8,3.4l23.7,24.3c0.5-0.2,0.9-0.3,1.4-0.3
				c0.3,0,0.5,0,0.8,0.1C438,554.9,442.2,550.7,446.3,546.5"/>
			<path class="st4" d="M402,540.4c-0.8-0.2-1.4-0.6-2-1.2l-52.9,54.3c8.7,7,18.7,12.3,29.4,15.7c6.9-5.5,15.7-12.8,25.5-21.2V540.4
				z"/>
			<path class="st4" d="M428.3,563.7c0-0.9,0.3-1.8,0.9-2.6l-21.9-22.5c-0.5,0.8-1.2,1.4-2.1,1.7v45c7.4-6.4,15.2-13.5,23.2-21
				C428.3,564.1,428.3,563.9,428.3,563.7"/>
			<path class="st4" d="M367.7,502.6c0.2,0.3,0.4,0.7,0.5,1.1l1.1-2.8L367.7,502.6z"/>
			<path class="st5" d="M363.6,509.7c-0.8,0-1.6-0.2-2.2-0.6l-43,44.1c3.4,9.6,8.4,18.5,14.8,26.4c7.5-14.1,16.7-31.8,32.8-70.6
				C365.2,509.5,364.4,509.7,363.6,509.7"/>
			<path class="st4" d="M340.5,587.8c1.3,1.3,2.7,2.6,4.1,3.8l54-55.5c0-0.1,0-0.1,0-0.2c0-2.1,1.4-3.9,3.4-4.5v-57.7
				c-5.7,13.6-11.3,26.2-15.7,34.8C375.8,529.3,352.4,568.3,340.5,587.8"/>
			<path class="st6" d="M408.4,466.2L408.4,466.2l12.9,13.3c0.5-0.2,1.1-0.3,1.6-0.3c2.6,0,4.8,2.1,4.8,4.8l0,0
				c0,0.6-0.1,1.2-0.4,1.7l38.8,39.9c12-13.1,19.2-21.8,23.4-27.2c-11.1-32.8-40.8-66.9-64.2-82.8c-4.2,10.8-11.3,28.9-18.8,47
				C407.8,463.4,408.4,464.7,408.4,466.2"/>
		</g>
	</g>
</g>
<g>
	<g>
		<defs>
			<path id="SVGID_15_" d="M313,522.9c0,9.2,1.4,18.3,4.1,27l42-43.2c-1-2.4,0-5.2,2.4-6.2c1.2-0.5,2.5-0.5,3.7,0l7.2-7.4
				c1.2-3.1,2.5-6.3,3.9-9.6c9.4-23.6,15.4-58.9,17.8-74.8C366.1,421.2,313,478.6,313,522.9"/>
		</defs>
		<clipPath id="SVGID_16_">
			<use xlink:href="#SVGID_15_"  style="overflow:visible;"/>
		</clipPath>
		<g class="st18">
			
				<linearGradient id="SVGID_17_" gradientUnits="userSpaceOnUse" x1="-1783.7175" y1="845.2126" x2="-1782.7179" y2="845.2126" gradientTransform="matrix(-81.13 0 0 81.13 -144318.8906 -68092.6953)">
				<stop  offset="0" style="stop-color:#4FB4BC"/>
				<stop  offset="0.13" style="stop-color:#57B8BF"/>
				<stop  offset="0.69" style="stop-color:#78C8CB"/>
				<stop  offset="1" style="stop-color:#85CECF"/>
			</linearGradient>
			<rect x="313" y="408.8" class="st19" width="81.1" height="141.2"/>
		</g>
	</g>
</g>
<g>
	<g>
		<defs>
			<rect id="SVGID_18_" width="792" height="792"/>
		</defs>
		<clipPath id="SVGID_19_">
			<use xlink:href="#SVGID_18_"  style="overflow:visible;"/>
		</clipPath>
		<g class="st20">
			<path class="st10" d="M437.9,563.7c0,0.5-0.1,1.1-0.3,1.5l25.3,26c11.8-10.2,20.7-23.3,25.9-38l-24.7-25.4
				c-5.1,5.5-11,11.7-17.8,18.6c-4.1,4.2-8.3,8.4-12.5,12.5C436.1,559.3,437.8,561.3,437.9,563.7"/>
			<path class="st11" d="M402,588c-9.8,8.5-18.6,15.7-25.5,21.2c8.3,2.6,16.9,4,25.5,4.2V588z"/>
			<path class="st11" d="M460.5,593.3l-24.9-25.6c-0.7,0.5-1.6,0.8-2.5,0.8c-2.4,0-4.5-1.8-4.7-4.2c-8,7.5-15.8,14.6-23.2,21v28.1
				C425.3,613.1,444.8,606,460.5,593.3"/>
			<path class="st12" d="M490,550c2.7-8.8,4.1-17.9,4.1-27.1c-0.2-8.4-1.7-16.7-4.5-24.6c-4.2,5.4-11.4,14.2-23.4,27.2L490,550z"/>
		</g>
	</g>
</g>
<g>
	<g>
		<defs>
			<path id="SVGID_20_" d="M369.3,500.9l-1.1,2.8c0.1,0.4,0.2,0.8,0.2,1.3c0,1.7-0.9,3.3-2.5,4.1c-16.1,38.8-25.3,56.4-32.8,70.6
				c2.3,2.8,4.8,5.6,7.4,8.1c11.9-19.5,35.2-58.4,45.8-79.2c4.4-8.5,10-21.2,15.7-34.8v-3.1c-0.7-0.3-1.4-0.7-1.9-1.3L369.3,500.9z"
				/>
		</defs>
		<clipPath id="SVGID_21_">
			<use xlink:href="#SVGID_20_"  style="overflow:visible;"/>
		</clipPath>
		<g class="st21">
			
				<linearGradient id="SVGID_22_" gradientUnits="userSpaceOnUse" x1="-1787.5881" y1="854.7575" x2="-1786.5875" y2="854.7575" gradientTransform="matrix(-68.86 0 0 68.86 -122691.3203 -58330.0508)">
				<stop  offset="0" style="stop-color:#4BADB5"/>
				<stop  offset="0.46" style="stop-color:#50B4BC"/>
				<stop  offset="0.97" style="stop-color:#5AC3CA"/>
				<stop  offset="1" style="stop-color:#85CECF"/>
			</linearGradient>
			<rect x="333.1" y="469.3" class="st22" width="68.9" height="118.5"/>
		</g>
	</g>
</g>
<g>
	<g>
		<defs>
			<rect id="SVGID_23_" width="792" height="792"/>
		</defs>
		<clipPath id="SVGID_24_">
			<use xlink:href="#SVGID_23_"  style="overflow:visible;"/>
		</clipPath>
		<g class="st23">
			<path class="st16" d="M405.2,461.7c0.5,0.2,1.1,0.5,1.5,0.9c7.5-18.1,14.6-36.2,18.8-47c-7.8-5.3-14.9-8.6-20.3-9.1V461.7z"/>
			<path class="st17" d="M402,461.7v-55.3c-2.7,0.4-5.4,1.2-7.8,2.4c-2.4,15.9-8.4,51.2-17.8,74.8c-1.3,3.3-2.6,6.5-3.9,9.6
				l26.4-27.1C399,464.1,400.2,462.4,402,461.7"/>
			<rect x="433.6" y="328.5" class="st2" width="45" height="3.3"/>
			<path class="st4" d="M618.7,287.4c-7-6.8-13.2-12.7-18.6-17.8l-39.8,38.8c0.4,0.7,0.7,1.5,0.7,2.3c0,2.6-2.1,4.8-4.8,4.8
				c-0.9,0-1.7-0.3-2.4-0.8l-12.1,11.8c0.6,0.5,1,1.2,1.2,2h60.8c0.6-1.4,1.9-2.5,3.4-2.8l24.3-23.7c-0.2-0.5-0.3-0.9-0.3-1.4
				c0-0.3,0-0.5,0.1-0.8C627.1,295.6,622.9,291.5,618.7,287.4"/>
			<path class="st4" d="M612.6,331.7c-0.2,0.8-0.6,1.4-1.2,2l54.3,52.9c7-8.7,12.3-18.7,15.7-29.4c-5.5-6.9-12.8-15.7-21.2-25.5
				H612.6z"/>
			<path class="st4" d="M635.8,305.4c-0.9,0-1.8-0.3-2.6-0.9l-22.5,21.9c0.8,0.5,1.4,1.2,1.7,2.1h45c-6.4-7.4-13.5-15.2-21-23.2
				C636.2,305.4,636,305.4,635.8,305.4"/>
			<path class="st4" d="M574.8,366c0.3-0.2,0.7-0.4,1.1-0.5l-2.8-1.1L574.8,366z"/>
			<path class="st5" d="M581.9,370.1c0,0.8-0.2,1.6-0.6,2.2l44.1,43c9.6-3.4,18.5-8.4,26.4-14.8c-14.1-7.5-31.8-16.7-70.6-32.8
				C581.7,368.5,581.9,369.3,581.9,370.1"/>
			<path class="st4" d="M659.9,393.2c1.3-1.3,2.6-2.7,3.8-4.1l-55.5-54c-0.1,0-0.1,0-0.2,0c-2.1,0-3.9-1.4-4.5-3.4h-57.7
				c13.6,5.7,26.2,11.3,34.8,15.7C601.5,357.9,640.4,381.3,659.9,393.2"/>
			<path class="st6" d="M538.3,325.2L538.3,325.2l13.3-12.9c-0.2-0.5-0.3-1.1-0.3-1.6c0-2.6,2.1-4.8,4.8-4.8c0.6,0,1.2,0.1,1.7,0.4
				l39.9-38.8c-13.1-12-21.8-19.2-27.2-23.4c-32.8,11.1-66.9,40.8-82.8,64.2c10.8,4.2,28.9,11.3,47,18.8
				C535.5,325.9,536.8,325.2,538.3,325.2"/>
		</g>
	</g>
</g>
<g>
	<g>
		<defs>
			<path id="SVGID_25_" d="M595.1,420.6c9.2,0,18.3-1.4,27-4.1l-43.2-42c-2.4,1-5.2,0-6.2-2.4c-0.5-1.2-0.5-2.5,0-3.7l-7.4-7.2
				l-9.6-3.9c-23.6-9.4-58.9-15.5-74.8-17.8C493.3,367.6,550.7,420.7,595.1,420.6"/>
		</defs>
		<clipPath id="SVGID_26_">
			<use xlink:href="#SVGID_25_"  style="overflow:visible;"/>
		</clipPath>
		<g class="st24">
			
				<linearGradient id="SVGID_27_" gradientUnits="userSpaceOnUse" x1="-1708.777" y1="813.7069" x2="-1707.7773" y2="813.7069" gradientTransform="matrix(0 81.13 81.13 0 -65464.5391 138972.5781)">
				<stop  offset="0" style="stop-color:#4FB4BC"/>
				<stop  offset="0.13" style="stop-color:#57B8BF"/>
				<stop  offset="0.69" style="stop-color:#78C8CB"/>
				<stop  offset="1" style="stop-color:#85CECF"/>
			</linearGradient>
			<rect x="480.9" y="339.5" class="st25" width="141.2" height="81.1"/>
		</g>
	</g>
</g>
<g>
	<g>
		<defs>
			<rect id="SVGID_28_" width="792" height="792"/>
		</defs>
		<clipPath id="SVGID_29_">
			<use xlink:href="#SVGID_28_"  style="overflow:visible;"/>
		</clipPath>
		<g class="st26">
			<path class="st10" d="M635.8,295.8c0.5,0,1.1,0.1,1.5,0.3l26-25.3c-10.2-11.8-23.3-20.7-38-25.9L600,269.6
				c5.5,5.1,11.7,11,18.6,17.8c4.2,4.1,8.4,8.3,12.5,12.5C631.5,297.6,633.5,295.9,635.8,295.8"/>
			<path class="st11" d="M660.2,331.7c8.5,9.8,15.7,18.6,21.2,25.5c2.6-8.3,4-16.9,4.1-25.5H660.2z"/>
			<path class="st11" d="M665.5,273.2l-25.6,24.9c0.5,0.7,0.8,1.6,0.8,2.5c0,2.4-1.8,4.5-4.2,4.7c7.5,8,14.6,15.8,21,23.2h28.1
				C685.2,308.4,678.1,288.9,665.5,273.2"/>
			<path class="st12" d="M622.1,243.7c-8.8-2.7-17.9-4.1-27.1-4.1c-8.4,0.1-16.7,1.6-24.6,4.4c5.4,4.2,14.2,11.4,27.2,23.4
				L622.1,243.7z"/>
		</g>
	</g>
</g>
<g>
	<g>
		<defs>
			<path id="SVGID_30_" d="M542.8,331.7c-0.3,0.7-0.7,1.4-1.3,1.9l31.6,30.8l2.8,1.1c0.4-0.1,0.8-0.2,1.3-0.2c1.7,0,3.3,0.9,4.2,2.5
				c38.8,16.1,56.4,25.3,70.6,32.8c2.8-2.3,5.6-4.8,8.1-7.4c-19.5-11.9-58.4-35.2-79.2-45.8c-8.5-4.4-21.2-10-34.8-15.7L542.8,331.7
				z"/>
		</defs>
		<clipPath id="SVGID_31_">
			<use xlink:href="#SVGID_30_"  style="overflow:visible;"/>
		</clipPath>
		<g class="st27">
			
				<linearGradient id="SVGID_32_" gradientUnits="userSpaceOnUse" x1="-1699.2927" y1="817.6393" x2="-1698.2922" y2="817.6393" gradientTransform="matrix(0 68.86 68.86 0 -55701.8945 117345)">
				<stop  offset="0" style="stop-color:#4BADB5"/>
				<stop  offset="0.46" style="stop-color:#50B4BC"/>
				<stop  offset="0.97" style="stop-color:#5AC3CA"/>
				<stop  offset="1" style="stop-color:#85CECF"/>
			</linearGradient>
			<rect x="541.5" y="331.7" class="st28" width="118.5" height="68.9"/>
		</g>
	</g>
</g>
<g>
	<g>
		<defs>
			<rect id="SVGID_33_" width="792" height="792"/>
		</defs>
		<clipPath id="SVGID_34_">
			<use xlink:href="#SVGID_33_"  style="overflow:visible;"/>
		</clipPath>
		<g class="st29">
			<path class="st16" d="M533.8,328.5c0.2-0.5,0.5-1.1,0.8-1.5c-18.1-7.5-36.2-14.6-47-18.8c-5.3,7.8-8.6,14.9-9.1,20.3H533.8z"/>
			<path class="st17" d="M533.8,331.7h-55.3c0.4,2.7,1.2,5.4,2.4,7.8c15.9,2.4,51.2,8.4,74.8,17.8l9.6,3.9l-27.1-26.4
				C536.2,334.7,534.5,333.5,533.8,331.7"/>
			<rect x="327.1" y="328.4" class="st2" width="45" height="3.3"/>
			<path class="st4" d="M187.1,372.9c7,6.8,13.2,12.7,18.6,17.8l39.8-38.8c-0.4-0.7-0.7-1.5-0.7-2.3c0-2.6,2.1-4.8,4.8-4.8l0,0
				c0.9,0,1.7,0.3,2.4,0.8l12.1-11.8c-0.6-0.5-1-1.2-1.2-2h-60.8c-0.6,1.4-1.9,2.5-3.4,2.8l-24.3,23.7c0.2,0.5,0.3,0.9,0.3,1.4
				c0,0.3,0,0.5-0.1,0.8C178.7,364.5,182.9,368.7,187.1,372.9"/>
			<path class="st4" d="M193.3,328.5c0.2-0.8,0.6-1.4,1.2-2l-54.3-52.9c-7,8.7-12.3,18.7-15.7,29.4c5.5,6.9,12.8,15.7,21.2,25.5
				H193.3z"/>
			<path class="st4" d="M170,354.8c0.9,0,1.8,0.3,2.6,0.9l22.5-21.9c-0.8-0.5-1.4-1.2-1.7-2.1h-45c6.4,7.4,13.5,15.2,21.1,23.2
				C169.6,354.8,169.8,354.8,170,354.8"/>
			<path class="st4" d="M231.1,294.2c-0.3,0.2-0.7,0.4-1.1,0.5l2.8,1.1L231.1,294.2z"/>
			<path class="st5" d="M223.9,290.1c0-0.8,0.2-1.6,0.6-2.2l-44.1-43c-9.6,3.4-18.5,8.4-26.4,14.8c14.1,7.5,31.8,16.7,70.6,32.8
				C224.1,291.7,223.9,290.9,223.9,290.1"/>
			<path class="st4" d="M145.9,267c-1.3,1.3-2.6,2.7-3.8,4.1l55.5,54c0.1,0,0.1,0,0.2,0c2.1,0,3.9,1.4,4.5,3.4H260
				c-13.6-5.7-26.2-11.3-34.8-15.7C204.3,302.3,165.4,278.9,145.9,267"/>
			<path class="st6" d="M267.5,335L267.5,335l-13.3,12.9c0.2,0.5,0.3,1.1,0.3,1.6c0,2.6-2.1,4.8-4.8,4.8l0,0c-0.6,0-1.2-0.1-1.7-0.4
				l-39.9,38.8c13.1,12,21.8,19.2,27.2,23.4c32.8-11.1,66.9-40.8,82.8-64.2c-10.8-4.2-28.9-11.3-47-18.8
				C270.3,334.3,268.9,334.9,267.5,335"/>
		</g>
	</g>
</g>
<g>
	<g>
		<defs>
			<path id="SVGID_35_" d="M183.7,243.7l43.2,42c2.4-1,5.2,0,6.2,2.4c0.5,1.2,0.5,2.5,0,3.7l7.4,7.2c3.1,1.2,6.3,2.5,9.6,3.9
				c23.6,9.4,58.9,15.5,74.8,17.8c-12.5-28.1-69.8-81.1-114.2-81.1C201.6,239.5,192.5,240.9,183.7,243.7"/>
		</defs>
		<clipPath id="SVGID_36_">
			<use xlink:href="#SVGID_35_"  style="overflow:visible;"/>
		</clipPath>
		<g class="st30">
			
				<linearGradient id="SVGID_37_" gradientUnits="userSpaceOnUse" x1="-1815.2234" y1="770.2708" x2="-1814.2238" y2="770.2708" gradientTransform="matrix(0 -81.13 -81.13 0 62746.3672 -146948.375)">
				<stop  offset="0" style="stop-color:#4FB4BC"/>
				<stop  offset="0.13" style="stop-color:#57B8BF"/>
				<stop  offset="0.69" style="stop-color:#78C8CB"/>
				<stop  offset="1" style="stop-color:#85CECF"/>
			</linearGradient>
			<rect x="183.7" y="239.6" class="st31" width="141.2" height="81.1"/>
		</g>
	</g>
</g>
<g>
	<g>
		<defs>
			<rect id="SVGID_38_" width="792" height="792"/>
		</defs>
		<clipPath id="SVGID_39_">
			<use xlink:href="#SVGID_38_"  style="overflow:visible;"/>
		</clipPath>
		<g class="st32">
			<path class="st10" d="M170,364.4c-0.5,0-1.1-0.1-1.6-0.3l-26,25.3c10.2,11.8,23.3,20.7,38,25.9l25.4-24.7
				c-5.5-5.1-11.7-11-18.6-17.8c-4.2-4.1-8.4-8.3-12.4-12.5C174.4,362.6,172.4,364.3,170,364.4"/>
			<path class="st11" d="M145.7,328.5c-8.5-9.8-15.7-18.6-21.2-25.5c-2.6,8.3-4,16.9-4.1,25.5H145.7z"/>
			<path class="st11" d="M140.4,387l25.6-25c-0.5-0.7-0.8-1.6-0.8-2.5c0-2.4,1.8-4.5,4.2-4.7c-7.5-8-14.6-15.8-21.1-23.2h-28.1
				C120.6,351.8,127.7,371.3,140.4,387"/>
			<path class="st12" d="M183.7,416.5c8.8,2.7,17.9,4.1,27.1,4.1c8.4-0.2,16.7-1.7,24.6-4.5c-5.4-4.2-14.2-11.4-27.2-23.4
				L183.7,416.5z"/>
		</g>
	</g>
</g>
<g>
	<g>
		<defs>
			<path id="SVGID_40_" d="M145.9,267c19.5,11.9,58.4,35.2,79.2,45.8c8.6,4.4,21.2,10,34.8,15.7h3.1c0.3-0.7,0.7-1.4,1.3-1.9
				l-31.6-30.8l-2.8-1.1c-0.4,0.1-0.8,0.2-1.3,0.2c-1.7,0-3.3-0.9-4.1-2.5c-38.8-16.1-56.4-25.3-70.6-32.8
				C151.2,261.9,148.5,264.4,145.9,267"/>
		</defs>
		<clipPath id="SVGID_41_">
			<use xlink:href="#SVGID_40_"  style="overflow:visible;"/>
		</clipPath>
		<g class="st33">
			
				<linearGradient id="SVGID_42_" gradientUnits="userSpaceOnUse" x1="-1824.707" y1="766.4622" x2="-1823.7064" y2="766.4622" gradientTransform="matrix(0 -68.86 -68.86 0 52983.7383 -125320.8047)">
				<stop  offset="0" style="stop-color:#4BADB5"/>
				<stop  offset="0.46" style="stop-color:#50B4BC"/>
				<stop  offset="0.97" style="stop-color:#5AC3CA"/>
				<stop  offset="1" style="stop-color:#85CECF"/>
			</linearGradient>
			<rect x="145.9" y="259.7" class="st34" width="118.5" height="68.9"/>
		</g>
	</g>
</g>
<g>
	<g>
		<defs>
			<rect id="SVGID_43_" width="792" height="792"/>
		</defs>
		<clipPath id="SVGID_44_">
			<use xlink:href="#SVGID_43_"  style="overflow:visible;"/>
		</clipPath>
		<g class="st35">
			<path class="st16" d="M272,331.7c-0.2,0.6-0.5,1.1-0.9,1.5c18.1,7.5,36.2,14.6,47,18.8c5.3-7.8,8.6-14.9,9.1-20.3H272z"/>
			<path class="st17" d="M272,328.5h55.3c-0.4-2.7-1.2-5.4-2.4-7.8c-15.9-2.4-51.2-8.4-74.8-17.8l-9.7-3.9l27.1,26.4
				C269.6,325.5,271.3,326.7,272,328.5"/>
		</g>
	</g>
</g>
</svg>
